/* XPM */
static char *result[] = {
/* columns rows colors chars-per-pixel */
"64 64 160 2 ",
"   c #3A3B45",
".  c #3A394B",
"X  c #3A3954",
"o  c #3A3959",
"O  c #3B3963",
"+  c #3A376C",
"@  c #3A3868",
"#  c #3A2D7A",
"$  c #3E3B7E",
"%  c #3C337C",
"&  c #3D4148",
"*  c #3F407F",
"=  c #40437F",
"-  c #393484",
";  c #3C338B",
":  c #393592",
">  c #3C30AD",
",  c #3E32BB",
"<  c #40328F",
"1  c #422F95",
"2  c #452F9C",
"3  c #413193",
"4  c #4C3296",
"5  c #45319B",
"6  c #4B329B",
"7  c #513F98",
"8  c #472FA1",
"9  c #482EA4",
"0  c #4B2DAC",
"q  c #4431A5",
"w  c #4932A2",
"e  c #4131A8",
"r  c #4A30AB",
"t  c #4E2CB5",
"y  c #4F2BB8",
"u  c #502BB7",
"i  c #522CBD",
"p  c #4133BE",
"a  c #5133B6",
"s  c #533CB6",
"d  c #5434BC",
"f  c #563DBC",
"g  c #395382",
"h  c #3A4D92",
"j  c #3F5596",
"k  c #3F539A",
"l  c #405B89",
"z  c #52479A",
"x  c #56539C",
"c  c #595C9E",
"v  c #476599",
"b  c #5A629E",
"n  c #4E44A4",
"m  c #4F4BA3",
"M  c #4F41A9",
"N  c #504EA5",
"B  c #5043A9",
"V  c #514AAA",
"C  c #455CA5",
"Z  c #5154A4",
"A  c #525AA4",
"S  c #5250AA",
"D  c #5343B4",
"F  c #544AB2",
"G  c #5744BB",
"H  c #5E6CA1",
"J  c #566AAA",
"K  c #5F72A1",
"L  c #5775A8",
"P  c #6076A2",
"I  c #627CA3",
"U  c #562EC4",
"Y  c #4634C2",
"T  c #4A36C5",
"R  c #4D36C8",
"E  c #5633C3",
"W  c #5739C2",
"Q  c #583CC2",
"!  c #5037CB",
"~  c #5238CD",
"^  c #5639D2",
"/  c #5A3BD6",
"(  c #5D3BD9",
")  c #603CDD",
"_  c #663EE2",
"`  c #623FEC",
"'  c #5943C1",
"]  c #5C48C6",
"[  c #5F4ACE",
"{  c #7568C8",
"}  c #7A6CCA",
"|  c #7D71CC",
" . c #6B40E7",
".. c #6542ED",
"X. c #6B41ED",
"o. c #644BED",
"O. c #694BEF",
"+. c #7142EF",
"@. c #6452EC",
"#. c #6953EF",
"$. c #6C44F1",
"%. c #664CF0",
"&. c #6A4EF2",
"*. c #7543F4",
"=. c #7945F7",
"-. c #7349F5",
";. c #7C45F9",
":. c #774BF8",
">. c #7C4CFA",
",. c #6E51F4",
"<. c #7253F6",
"1. c #7655F9",
"2. c #7957FA",
"3. c #7D59FC",
"4. c #7F6BF7",
"5. c #8576CF",
"6. c #8778CF",
"7. c #8C7CCE",
"8. c #8247FB",
"9. c #8649FD",
"0. c #894AFE",
"q. c #855CF7",
"w. c #895BF7",
"e. c #8551FE",
"r. c #8954FA",
"t. c #815CFF",
"y. c #8958F8",
"u. c #846EEE",
"i. c #8473EC",
"p. c #8975EE",
"a. c #847CED",
"s. c #897DEC",
"d. c #8663F3",
"f. c #8962F5",
"g. c #856BF1",
"h. c #896CF2",
"j. c #8064FB",
"k. c #8573F1",
"l. c #8679F1",
"z. c #20DFFB",
"x. c #1FECFE",
"c. c #20E2FC",
"v. c #9484CD",
"b. c #9887CC",
"n. c #9B8BCC",
"m. c #9991CB",
"M. c #8681D3",
"N. c #9590D9",
"B. c #94B0C6",
"V. c #888BE6",
"C. c #8583EC",
"Z. c #8884E9",
"A. c #8488EB",
"S. c #86ECFB",
"D. c #89F3FC",
"F. c #8CFAFE",
"G. c #BEF0FC",
"H. c #C4F8FD",
"J. c #F3F3FC",
"K. c #F8F8FD",
/* pixels */
"i.i.i.a.i.a.a.C.A.A.A A A = V.V.V.V.V.V.V.V.V.V.V.I V.V.V.V.V.V.V.V.V.V.V.V.V.V.V.V.V.I V.V.V.V.V.V.l x A A A.C.C.a.a.i.i.i.i.i.",
"i.i.i.i.i.i.a.a.C.C.A A A * V.V.V.V.V.V.V.V.V.V.V.I V.V.V.V.V.V.V.V.V.V.V.V.V.V.V.V.V.I V.V.V.V.V.V.$ Z A A A.C.a.a.i.i.i.i.i.i.",
"i.u.u.i.u.i.i.a.a.C.Z Z Z $ V.Z.Z.Z.Z.Z.Z.Z.Z.Z.Z.P Z.Z.Z.Z.Z.Z.Z.B.Z.Z.Z.Z.Z.V.Z.Z.Z.P P P P P P P $ Z Z Z C.C.a.a.i.u.u.i.i.i.",
"u.u.u.u.k.i.k.a.a.C.Z Z Z $ Z.Z.Z.Z.Z.Z.Z.Z.Z.Z.Z.P Z.Z.Z.Z.Z.Z.Z.Z.Z.Z.Z.Z.Z.Z.Z.Z.Z.Z.Z.Z.Z.s.Z.K $ Z Z S C.l.a.i.k.u.u.u.u.u.",
"u.g.g.g.g.u.k.k.l.N N m m % s.s.s.s.s.s.s.s.s.s.s.K s.s.s.s.s.s.s.s.s.s.s.s.s.s.s.s.s.s.s.s.s.Z.s.s.% m N Z S l.p.u.u.g.u.g.g.g.",
"g.g.g.g.g.u.k.k.l.N m N m % s.s.p.s.s.s.s.s.s.l.s.H s.s.s.s.s.s.s.s.s.s.s.s.s.s.p.s.s.s.s.s.s.p.p.s.% m m m N k.k.u.u.g.g.g.g.g.",
"d.d.g.d.d.g.u.g.F V N n # p.p.p.p.p.p.p.p.s.p.p.p.H p.p.p.p.p.p.p.p.p.p.p.p.p.p.p.p.p.p.p.s.p.p.p.p.p.# m n V F k.g.g.d.d.g.d.d.",
"d.d.d.d.d.d.h.F F V n # p.p.p.p.p.p.p.p.p.p.p.p.p.b p.h.p.p.p.p.p.p.p.p.p.p.p.p.p.p.p.p.p.p.p.p.p.p.p.p.# n V V G g.g.d.d.d.d.d.",
"d.q.d.q.d.d.G G D B n h.p.h.p.h.h.p.h.h.p.h.h.p.h.c p.h.h.p.h.h.h.p.h.h.h.p.h.h.p.h.p.h.p.h.p.h.h.p.h.h.h.n n D F G d.d.d.q.d.q.",
"[ [ [ [ ] ' G F B B h.h.h.h.h.h.h.h.h.h.h.h.h.h.h.c h.h.h.h.h.h.h.h.h.h.h.h.h.h.h.h.h.h.h.h.h.h.h.h.h.h.h.h.M D G G ' ] [ [ [ [ ",
"q.d.4.4.4.' G s f.h.h.h.f.h.h.f.h.h.h.h.h.h.h.h.h.x x h.h.f.h.h.h.h.h.h.h.f.f.h.h.h.h.f.h.f.f.h.h.f.h.h.h.f.h.h.D G ' 4.4.4.d.q.",
"y.q.4.4.4.' G s f.f.f.f.f.h.f.f.f.f.f.f.f.f.f.f.f.x x x x x x f.w.f.h.f.f.h.f.h.f.f.h.f.f.h.f.f.h.f.f.f.h.f.f.f.s G Q 4.4.4.q.y.",
"r.q.4.4.j.Q f s f.f.f.f.f.f.f.w.f.f.w.f.f.f.f.f.f.f.f.w.f.f.z f.w.f.w.f.f.w.w.f.w.f.f.f.w.f.f.f.f.f.w.f.f.f.w.f.a f Q j.4.3.t.r.",
"e.q.4.3.j.W d a y.w.y.w.w.w.w.w.w.w.w.w.y.y.y.w.y.w.w.w.q.q.z w.w.w.w.w.w.w.w.w.w.y.w.w.w.y.w.w.y.w.w.w.w.w.w.w.a f Q j.4.4.y.r.",
"r.e.4.t.j.W d a y.y.y.y.y.y.y.y.y.y.y.y.y.y.y.y.y.y.y.y.3.q.j #.w.y.y.y.w.w.r.w.y.y.y.y.y.y.y.y.y.y.y.y.y.y.y.r.a d E j.j.3.e.e.",
"0.e.j.3.t.E d a r.r.r.r.r.r.r.r.r.r.r.r.r.r.m.m.m.m.m.m.m.m.z B.m.m.m.m.m.m.m.m.m.m.r.r.r.r.r.r.r.r.r.r.r.r.r.r.a d E j.t.4.q.9.",
"0.e.t.3.j.E i u 0.0.0.0.0.0.r.0.r.0.r.0.r.n.n.& & & & & & & & & & & & & & & & & & n.n.0.0.0.0.0.r.r.0.r.0.0.0.r.u i U t.t.t.r.0.",
"0.e.t.t.t.U i u 0.0.0.0.0.0.0.0.0.0.0.0.0.n.    & & & & & & & & & & & & & & & & & & n.0.0.0.0.0.0.0.0.0.0.0.0.0.u i U t.t.t.e.0.",
"0.e.3.t.t.U i u 0.0.0.0.0.0.0.0.0.0.r.0.r.n.    & v v v l v v v v v v I L v v &     n.0.0.0.0.0.0.0.0.0.0.0.0.0.u i i t.t.t.e.0.",
"0.e.t.t.t.U i u 0.0.0.0.0.0.0.0.0.4 4 4 4 4     v v l l l l l l l = l l l = v v     n.0.0.0.0.0.0.0.0.0.0.0.0.0.u i U y.t.t.0.0.",
"0.e.t.t.t.U i u 9.9.0.0.0.0.0.0.0.4 0.0.0.n.    v = l g l = = * l g g g = l = v     n.0.0.0.0.0.0.0.0.0.0.0.9.9.u i U t.t.t.e.0.",
"0.0.t.t.t.U i u 0.0.0.0.0.0.0.0.0.4 0.0.0.n.    v = g g = = l * = l g g = = l v     n.0.0.0.0.0.0.0.0.0.0.0.0.0.u i U t.t.t.e.0.",
"0.0.t.t.t.U i u 0.0.0.0.0.0.0.0.4 4 0.0.0.n.n.  v v l l l l l l l l l l = l c c   n.n.0.0.0.0.0.0.0.0.0.9.0.0.0.u i U t.t.t.e.0.",
"0.e.t.t.t.U i u 0.0.0.0.0.4 4 4 4 4 0.0.0.n.    & v v v v v v v v v v v v b l       n.0.0.0.0.0.0.0.0.0.9.0.0.0.u i E t.t.3.0.0.",
"0.0.3.j.t.U i u 0.0.0.0.0.4 0.9.0.0.0.0.0.n.&                   & &                 7.0.0.0.0.0.0.9.0.0.0.0.0.0.u i U t.t.t.0.0.",
"0.e.t.t.t.U i u 0.0.0.0.0.4 0.0.0.0.0.0.0.n.                    & &                 n.0.0.0.0.0.0.0.9.0.0.0.0.0.u i U t.t.t.0.0.",
"0.e.t.t.3.U i y 0.0.0.0.4 4 4 0.0.0.0.0.0.n.                                        n.0.0.0.0.0.0.0.0.0.0.0.0.0.u i U t.t.t.e.0.",
"0.0.t.3.3.U i t 9.8.0.0.4 K.4 0.0.0.0.0.0.7.      c.D.G.F.F.F.F.S.S.S.D.D.D.x.      4 4 4 4 0.0.0.9.9.9.9.9.0.0.u i U t.t.3.>.0.",
"8.e.3.3.3.E U y 9.9.9.9.4 4 4 9.8.0.0.0.8.7.&   c.F.D.H.K.K.J.J.K.K.J.J.F.F.F.x.    7.0.4 4 0.0.9.9.9.9.8.8.0.8.y y U 3.3.t.e.0.",
"0.>.3.3.3.E y t 9.9.9.9.4 J.4 9.0.8.8.0.0.7.7.. D.F.J.J.K.K.J.J.J.K.J.J.K.K.D.D.& 7.n.0.8.4 8.8.9.9.9.9.0.8.8.0.y U U 3.3.3.9.8.",
"8.9.3.3.3.U y t 8.8.9.8.9 4 9 8.8.8.8.8.0.7.7.  D.D.K.J.J.J.J.J.J.J.J.J.J.J.D.D.. 7.7.8.8.9 0.8.8.0.8.8.8.0.8.8.y y E 3.3.3.2.8.",
"8.>.3.3.3.U y t 8.9.8.8.4 J.4 9.8.8.8.8.0.7.& . c.D.S.H.J.J.J.J.J.J.J.J.G.D.D.c.X . 7.8.0.4 8.8.8.8.8.8.8.8.8.8.t y y 3.3.3.9.8.",
"8.8.2.3.2.i t 0 8.8.8.8.6 6 6 8.8.8.8.8.8.b.X X . z.S.S.S.S.S.S.S.S.S.S.S.S.x.. X X v.8.8.6 8.8.8.8.8.8.8.8.8.8.t t y 3.2.2.2.8.",
"8.>.2.2.2.u 0 0 8.8.8.8.8.w 8.8.8.8.;.8.8.7.X X X X X X X X X X .   X X X X X X X X v.;.8.6 8.8.8.;.8.8.8.8.8.8.0 0 a 2.3.2.8.8.",
"8.2.2.2.2.a 0 0 ;.8.8.;.;.w 8.;.8.=.8.8.8.7.X X o X X X X X X X . X X X X X X X o X v.8.;.6 8.8.8.;.8.;.8.;.8.8.9 0 t 2.2.2.>.8.",
"8.>.2.2.2.0 0 9 8.;.8.;.8.6 ;.8.8.8.8.8.8.7.o o o o o o o o o o o o o o o o o X o o 7.;.;.w 8.;.;.8.;.8.8.;.;.8.9 0 0 1.2.2.>.;.",
";.:.2.2.1.r 9 8 ;.;.;.;.w 6 ;.;.=.;.8.=.=.7.o o o C v C C C C C C C C J J C C o o o 7.;.8.w ;.;.;.;.;.;.;.8.;.;.9 9 0 1.2.2.>.;.",
";.:.1.1.1.0 w 2 w w 6 w w 6 ;.;.;.;.=.8.8.7.7.o C C k l C h h l j j j j k k k C o 7.7.;.;.w ;.;.;.;.;.;.;.;.;.;.2 9 w 1.1.1.:.;.",
";.:.1.1.1.w 8 2 ;.;.:.;.;.;.;.;.=.;.=.;.=.7.O o C h h h h h h h h h h h h h h C o o 7.;.;.w ;.=.;.;.;.;.;.;.;.;.2 8 w 1.1.1.:.;.",
"=.:.1.<.<.w 2 2 =.=.;.=.=.;.=.=.;.=.;.=.=.5.O O C h h h h h h h h h h h h h h C O O 7.=.=.w =.=.;.=.=.=.=.=.=.=.2 2 w <.1.1.:.=.",
"=.:.<.1.<.5 5 5 ;.=.=.;.=.=.;.=.=.=.=.=.=.6.o O C C k k k k k k j k k k k k C C @ O 7.=.=.w =.=.=.=.=.=.=.=.=.=.2 5 6 <.1.<.:.=.",
"*.:.<.<.<.5 3 3 =.;.=.*.=.=.=.=.=.=.=.=.=.7.O O @ C C C C C C C C C C C C C C @ @ @ 6.=.=.w =.=.=.=.=.=.=.=.=.=.1 3 5 <.<.<.:.=.",
"*.*.<.<.<.5 5 1 *.*.*.*.*.*.*.*.*.*.*.*.*.5.+ + @ @ @ + + + + @ @ @ + + @ @ @ @ @ @ 5.*.*.w *.*.*.*.*.=.*.*.*.*.3 1 2 <.<.<.-.*.",
"=.:.,.<.<.3 1 : +.+.+.+.+.+.+.+.+.+.+.+.+.} 5.+ + + + + + + + + + + + + + + + + + | | +.*.w +.+.+.+.+.+.+.+.+.+.: 1 3 <.<.,.-.=.",
"*.-.,.,.<.3 < < +.+. . . .+.+. .+.+._ *._ } } } } } } } } } } } } } } } q | { { } } } X.+.q X.X._ +.+. .+._ +.+.< 3 3 ,.,.,.-.*.",
"*.-.,.-.&.< < < _ +. . . . ._ +._ _ +._ +._ { } { { { { { { { { { { { { q { { { { {  . . .q  . . . . ._ +._ _ +.< ; 3 ,.,.,.-.*.",
"*.&.&.<.-.< < ; _ _ _ _ _ _ _ _ _ _ _ _ _ _ _ _ _ _ _ _ _ _ _ _ .. . . .q  ._  ._ _  ._ _ q  ._ _ _ _  ._ _ _ _ ; < 3 ,.,.,.$.*.",
"*.*.&.#.,.< - < _ ) _ _ _ _ _ _ _ _ ) _ _ _ _ _ _ _ _ _ _ _ _ _ ) ) ) ) q _ ( _ _ ) _ ) q q q e _ _ _ ) _ _ _ ) ; ; ; ,.,.,.$.*.",
"$.*.,.,.O.< ; - ) ) ) ) ) ) ) ) ) ) ) ) ) ) ) ) ) ) ) ) ) ) ) ) ) ) ) e e q ) ) ) ) ) ( e ) ) e ) ) ) ) ) ) ) ) ; ; < O.&.O.-.*.",
"$.$.,.%.#.< < - / ) ( ) ( ( ( ( ( ( ( ( ( ( ( ( ( ( ( ( ( ( ( ( ( ( ( e N.e ( ( ( ( ( ( e ( ( > ) ) ) ) ( ( ( ( - ; < &.&.,.&.X.",
"$.$.%.%.O.; ; ; / / / / / / / / / / / / / / / / / ( / / ( / / / / / / e e e / / / / / / e / / > ^ ) ^ ^ / / / / - < - &.&.&.$.*.",
"` %.,.%.O.- ; - ^ / ^ ^ ^ ^ ^ ^ ^ ^ ^ ^ / ^ ^ ^ ^ ^ ^ ^ ^ ^ ^ ^ / ^ ^ > M.e / ^ ^ / / ^ e ^ ^ > ^ / ^ ^ ^ / ^ ^ - ; - O.%.&.*.` ",
"*.$.%.%.,.- - - ~ ^ ^ ^ ^ ^ ^ ~ [ ^ ^ ~ ^ ^ ^ ~ ^ ^ ~ ^ ^ ~ ^ ^ ^ ^ ~ q > > ~ ~ ^ ^ > > , ~ ~ > ^ ^ ~ ^ ^ ~ ^ ~ - - ; %.%.%.$.$.",
"$.$.o.%.%.- - - - - ! ! ~ ~ ~ ~ ~ ~ > > > > > > > > > e e e e > > > e > | q ~ ~ ~ ~ q ~ ~ ' ~ > ~ E ~ ~ ~ ~ % - ; - - %.%.%...$.",
"` X.%.- - $.- - - - - % ! ! ~ E ~ R > > R R ! ! ! ! ! ! ! ! ! ! ! ! ! > > > ! ! ! ! > R ! ! ! > ! ! ! ! - $ - - - - $.- - %.$.$.",
"; - - ; $...O.#.- - - - - R R R R R > R R R R R R R R R R R R R R R R R > R R R R R > R R R T > R R R - - - - - #.O.$.` - - - - ",
"` *.*.` ....o.@.#.- - - - ' Y Y T T > Y T T Y T T Y R T T T T T R T R R > T R T T T > T T T T > T Y Y - $ - - @.O.O.$...$.*.` ` ",
"` ` ` ` ....o.o.@.- - - - Y T Y T > > , > > > > > , T Y T T T T T T T Y > Y T Y T > > T T T p > Y ' Y - - - - @.@.O.X.` ` ` ` $.",
"$.` $.` ....o.@.@.- ; ; : Y Y Y Y > Y , Y p Y p p > p Y Y Y Y Y p Y Y Y > Y Y Y Y > > Y Y p Y > , p , - - - - @.o.O.....` *.` ` ",
"` ` ` ` ....o.o.@.- ; - : > > > > > > , > , > , > > > > > , > > > > > > , > > > > > > > , > , > > , > : - : - @.@.o...` ` ` ` ` ",
"` ` ` ` ` o.o.o.@.- : : : , p p p p p p p p p p p p p p p p p p p p p p , p p p p p p p p p p p , p p : : : : @.o.o...` ` ` $.` ",
"` ` ` ` ` ` o.o.@.: : : : > p p p p p p p p p p p p p p p , p p p p p , , , p p p p p p p p p , , , , : - : : @.o.o.` ` ` ` ` ` ",
"` ` ` ` ` ` o.o.@.: : : : , , , , , , , , , , , , , p , , , , , , p , , , , , p , , , , , , , , , , , : : : - @.o.o.` ` ` ` ` ` ",
"` ` ` ` ` ( o.@.@.: : : : , , , , , , , , , , , , , , , , , , , , , , , , , , , , , , , , , , , , , , : : : : @.o.` ` ` ` ` ` ` "
};
