/* XPM */
static char *result[] = {
/* columns rows colors chars-per-pixel */
"64 64 161 2 ",
"   c #3A3B45",
".  c #3A394B",
"X  c #3A3954",
"o  c #3A3959",
"O  c #3B3963",
"+  c #3A376C",
"@  c #3A3868",
"#  c #3A2D7A",
"$  c #3E3B7E",
"%  c #3C337C",
"&  c #3D4148",
"*  c #3F407F",
"=  c #40437F",
"-  c #393484",
";  c #3C338B",
":  c #393592",
">  c #3C30AD",
",  c #3E32BB",
"<  c #40328F",
"1  c #422F95",
"2  c #452F9C",
"3  c #413193",
"4  c #4C3296",
"5  c #45319B",
"6  c #4B329B",
"7  c #513F98",
"8  c #472FA1",
"9  c #482EA4",
"0  c #4B2DAC",
"q  c #4431A5",
"w  c #4932A2",
"e  c #4131A8",
"r  c #4A30AB",
"t  c #4E2CB5",
"y  c #4F2BB8",
"u  c #502BB7",
"i  c #522CBD",
"p  c #4133BE",
"a  c #5133B6",
"s  c #533CB6",
"d  c #5434BC",
"f  c #563DBC",
"g  c #395284",
"h  c #3F598D",
"j  c #405B89",
"k  c #52479A",
"l  c #56539C",
"z  c #595C9E",
"x  c #47639B",
"c  c #5A629E",
"v  c #4E44A4",
"b  c #4F4BA3",
"n  c #4F41A9",
"m  c #504EA5",
"M  c #5043A9",
"N  c #514AAA",
"B  c #5154A4",
"V  c #525AA4",
"C  c #5250AA",
"Z  c #5343B4",
"A  c #544AB2",
"S  c #5744BB",
"D  c #5E6CA1",
"F  c #5C67A0",
"G  c #5F72A1",
"H  c #5775A8",
"J  c #6076A2",
"K  c #627CA3",
"L  c #562EC4",
"P  c #4634C2",
"I  c #4A36C5",
"U  c #4D36C8",
"Y  c #5633C3",
"T  c #5739C2",
"R  c #583CC2",
"E  c #5037CB",
"W  c #5238CD",
"Q  c #5639D2",
"!  c #5A3BD6",
"~  c #5D3BD9",
"^  c #603CDD",
"/  c #663EE2",
"(  c #623FEC",
")  c #5943C1",
"_  c #5C48C6",
"`  c #5F4ACE",
"'  c #7568C8",
"]  c #7A6CCA",
"[  c #7D71CC",
"{  c #6B40E7",
"}  c #6542ED",
"|  c #6B41ED",
" . c #644BED",
".. c #694BEF",
"X. c #7142EF",
"o. c #6452EC",
"O. c #6953EF",
"+. c #6C44F1",
"@. c #664CF0",
"#. c #6A4EF2",
"$. c #7543F4",
"%. c #7945F7",
"&. c #7349F5",
"*. c #7C45F9",
"=. c #774BF8",
"-. c #7C4CFA",
";. c #6E51F4",
":. c #7253F6",
">. c #7655F9",
",. c #7957FA",
"<. c #7D59FC",
"1. c #7F6BF7",
"2. c #8576CF",
"3. c #8778CF",
"4. c #8C7CCE",
"5. c #8247FB",
"6. c #8649FD",
"7. c #894AFE",
"8. c #855CF7",
"9. c #895BF7",
"0. c #8551FE",
"q. c #8954FA",
"w. c #815CFF",
"e. c #8958F8",
"r. c #846EEE",
"t. c #8473EC",
"y. c #8975EE",
"u. c #847CED",
"i. c #897DEC",
"p. c #8663F3",
"a. c #8962F5",
"s. c #856BF1",
"d. c #896CF2",
"f. c #8064FB",
"g. c #8573F1",
"h. c #8679F1",
"j. c #25C7F7",
"k. c #24C9F7",
"l. c #23D3F9",
"z. c #7CD3F7",
"x. c #7ED8F8",
"c. c #9484CD",
"v. c #9887CC",
"b. c #9B8BCC",
"n. c #9991CB",
"m. c #8681D3",
"M. c #9590D9",
"N. c #94B0C6",
"B. c #888BE6",
"V. c #8583EC",
"C. c #8884E9",
"Z. c #8488EB",
"A. c #81DDF9",
"S. c #ACD5F7",
"D. c #B2DEF9",
"F. c #82E1F9",
"G. c #D7D5F7",
"H. c #DCDAF8",
"J. c #E0DEF9",
"K. c #F3F3FD",
"L. c #FBFBFE",
/* pixels */
"t.t.t.u.t.u.u.V.Z.Z.V V V = B.B.B.B.B.B.B.B.B.B.B.K B.B.B.B.B.B.B.B.B.B.B.B.B.B.B.B.B.K B.B.B.B.B.B.j m V V Z.V.V.u.u.t.t.t.t.u.",
"t.t.t.t.t.t.u.u.V.V.V V V * B.B.B.B.B.B.B.B.C.B.B.K B.B.B.B.B.B.B.B.B.B.B.B.B.B.B.C.B.K B.B.B.B.B.B.* l V V Z.V.u.u.t.t.t.t.t.t.",
"t.r.r.t.r.t.t.u.u.V.B B B $ B.C.C.C.C.C.B.C.C.C.C.J B.C.C.C.C.C.C.N.C.C.C.C.C.C.C.C.C.K K J J J J J $ B B B V.V.u.u.t.r.r.r.r.t.",
"r.r.r.r.g.t.g.u.u.V.B B B $ C.C.C.C.C.C.C.C.C.C.C.J C.C.C.C.C.C.C.C.C.C.C.C.C.C.C.C.C.C.C.C.C.i.i.G $ B B B V.h.h.t.g.r.r.r.r.r.",
"r.s.s.s.s.r.g.g.h.m m b b % i.i.C.i.i.i.i.i.i.C.i.D i.C.i.i.i.C.i.C.i.i.i.C.i.i.i.C.i.i.C.i.i.C.i.i.% m b m N h.t.t.s.r.r.s.s.s.",
"s.s.s.s.s.r.g.g.h.m b m b % i.i.y.i.i.i.i.i.i.i.y.D i.y.i.y.i.i.i.y.i.i.i.y.i.i.i.i.y.i.y.i.y.i.i.i.% m b b N h.g.d.r.s.r.s.s.s.",
"p.p.s.p.p.s.r.s.A N m v # y.y.y.y.y.y.y.y.y.y.y.y.F y.y.y.y.y.y.y.y.y.y.y.y.y.y.y.y.y.y.y.y.y.i.y.y.y.# b b m N g.d.r.p.p.s.p.p.",
"p.p.p.p.p.p.d.A A N v # y.y.y.y.y.y.y.y.y.y.y.y.y.F y.y.y.y.y.y.y.y.y.y.y.y.y.y.y.y.y.y.y.y.y.y.y.y.y.y.# v M A A d.p.p.p.p.p.p.",
"p.8.p.8.p.p.S S Z M v d.y.d.y.d.d.d.d.y.d.y.d.d.y.V d.y.y.d.y.d.d.d.y.d.d.d.d.y.d.y.d.d.d.d.d.d.y.d.y.d.d.v n Z S S p.p.p.8.p.8.",
"` ` ` ` _ ) S A M M d.d.d.d.d.d.d.d.d.d.d.d.d.d.d.z d.d.d.d.d.d.d.d.d.d.d.d.d.d.d.d.d.d.d.d.d.d.d.d.d.d.d.d.n Z Z S ) _ ` ` ` ` ",
"8.p.1.1.1.) S s a.d.d.d.a.d.d.a.d.d.d.d.d.d.d.d.a.l l a.a.d.d.d.d.a.d.d.d.d.d.d.d.d.d.d.d.d.a.d.a.d.d.a.d.d.d.d.Z S ) 1.1.1.p.8.",
"e.8.1.1.1.) S s a.a.a.a.a.d.a.a.a.a.a.a.a.a.a.a.a.l l l l l l a.a.d.a.a.a.a.a.a.a.a.d.a.a.d.a.a.a.a.d.a.a.a.a.a.f S R 1.1.1.<.e.",
"q.8.1.1.f.R f s a.a.a.a.a.a.a.9.9.a.a.9.9.a.a.9.a.a.a.9.a.9.k a.a.a.9.a.a.9.a.9.9.a.a.a.9.a.a.a.a.a.9.a.a.a.a.a.s f R f.1.f.8.e.",
"0.8.1.<.f.T d a e.9.e.9.9.9.9.9.9.9.9.9.9.9.9.9.9.9.9.9.8.8.k 9.9.9.9.9.9.9.9.9.9.9.9.9.9.e.9.9.9.9.9.9.9.9.e.e.a d R f.f.f.8.q.",
"q.0.1.w.f.T d a e.e.e.e.e.e.e.e.e.e.e.e.9.9.e.e.e.e.9.9.<.e.g 1.e.e.e.e.9.e.e.e.e.e.e.e.e.e.e.e.e.e.e.e.e.e.e.e.a d Y f.f.<.0.0.",
"7.0.f.<.w.Y d a q.q.q.q.q.q.q.q.q.q.q.q.q.q.n.n.n.n.n.n.n.n.h N.n.n.n.n.n.n.n.n.n.n.q.q.q.q.q.q.q.q.q.q.q.q.q.q.u d L 1.w.1.8.6.",
"7.0.w.<.f.Y i u 7.7.7.7.7.7.q.7.q.q.q.q.7.b.b.& & & & & & & & & & & & & & & & & & b.b.7.7.7.7.7.q.q.7.q.7.7.7.q.u i L w.w.w.q.7.",
"7.0.w.w.w.L i u 7.7.7.7.7.7.7.7.7.7.7.7.7.b.&   & & & & & & & & & & & & & & & & & & b.7.7.7.7.7.7.7.7.7.7.7.7.7.u i L w.w.w.0.7.",
"7.0.<.w.w.L i u 7.7.7.7.7.7.7.7.7.7.7.7.q.b.    & j x x j x x x x x x K K x x & &   b.7.7.7.7.7.7.7.7.7.7.7.7.7.u i i w.w.w.0.7.",
"7.0.w.w.w.L i u 7.7.7.6.7.7.7.7.7.4 4 4 4 4     x x j j j j j j j = j j j = x x     b.7.7.7.7.7.7.7.7.7.7.7.7.7.u i L e.w.w.7.7.",
"7.0.w.w.w.L i u 7.7.7.7.7.7.7.7.7.4 7.7.7.b.    x = j g = = g g j j = g = = j x     b.7.7.7.7.7.7.7.7.7.7.7.6.6.u i L w.w.w.0.7.",
"7.7.w.w.w.L i u 7.7.7.7.7.7.7.7.7.4 7.7.7.b.    x = j = j j = * = j g g = = j x     b.7.7.7.7.7.7.7.7.7.7.7.7.7.u i L w.w.w.0.7.",
"7.7.w.w.w.L i u 7.7.7.7.7.7.7.7.4 4 7.7.7.v.b.  x x j j j j h h j j j j = j z z   b.b.7.7.7.7.7.7.7.7.7.6.7.7.7.u i L w.w.w.0.7.",
"7.0.w.w.w.L i u 7.7.7.7.7.4 4 4 4 4 7.7.7.b.    & x x x x x x h x x x j x c j       b.7.7.7.7.7.7.7.7.7.6.7.7.7.u i Y w.w.<.7.7.",
"7.7.<.f.w.L i u 7.7.7.7.7.4 7.7.7.7.7.7.7.b.                    & &                 b.7.7.7.7.7.7.7.6.6.6.7.7.7.u i L w.w.w.7.7.",
"7.0.w.w.w.L i u 7.7.7.7.7.4 6.6.7.7.7.7.7.b.                    & & & &             4.7.7.7.7.7.7.7.7.7.7.7.7.7.u i L w.w.w.7.7.",
"7.0.w.w.<.L i y 7.7.7.7.4 4 4 7.7.7.7.7.7.b.                . . & & & & & &         b.7.7.7.7.7.7.7.7.7.6.7.7.7.u i L w.w.w.0.7.",
"7.7.w.<.<.L i t 6.5.7.7.4 L.4 7.5.7.7.7.7.4.      z z z x x x x j j x H x j j       4 4 4 4 7.7.7.7.6.7.6.6.7.7.u i L w.w.<.-.7.",
"5.0.<.<.<.Y L y 6.6.6.6.4 4 4 6.7.5.7.5.7.4.& & x x j j h h h h h h h h j j x x   . b.7.4 4 5.7.7.7.7.5.5.7.7.7.y i L <.<.w.0.7.",
"7.-.<.<.<.Y y t 6.6.6.6.4 K.4 6.7.5.5.7.7.4.4.. x * g g g g g g g g g g g g g x & 4.4.7.5.8 7.7.5.5.7.5.7.5.5.5.y i L <.<.<.-.5.",
"5.6.<.<.<.L y t 5.5.6.5.9 4 9 5.5.5.7.5.7.4.4.  x g g g g g g g g g g g g g g x . 4.4.5.5.4 5.5.5.5.5.5.5.7.5.5.y y L ,.<.<.6.5.",
"5.-.<.<.<.L y t 5.6.5.5.4 K.4 6.5.5.5.5.7.4.  . x x j j h h h b h x h h h h x x . . 4.5.7.9 5.7.5.5.5.5.5.5.5.5.t y L <.<.<.<.5.",
"6.6.,.<.,.y y 0 5.5.5.5.6 6 6 5.5.5.5.5.5.c.X X X x x x V x x x x x h x x x x o X X c.5.5.6 5.5.5.5.5.5.5.5.5.5.t t a <.,.<.-.5.",
"*.=.<.,.,.t t 0 5.5.5.5.*.6 5.5.5.5.5.5.*.c.X X X X X X X X X X o @ X X o o X o X X c.*.*.6 *.5.5.5.5.5.5.5.5.5.0 0 t ,.<.,.-.5.",
"*.,.,.,.,.t 0 9 *.5.*.5.5.w 5.*.*.5.5.*.5.4.X X X X X X X X X o o X X X X X X X o X c.5.5.6 5.5.5.5.*.5.5.*.5.5.9 0 t ,.,.,.-.5.",
"5.-.,.,.,.r r 9 *.*.5.*.5.w 5.*.5.*.5.*.*.c.o o o o o o o o o o o o o o o o o o o o 4.*.*.w *.5.*.*.5.*.5.*.*.5.9 0 r ,.,.,.-.*.",
"*.=.,.,.,.r 9 8 *.*.5.*.w 6 *.5.*.*.*.*.*.4.o o o l.A.F.A.A.A.F.x.x.x.x.x.x.l.& o o 4.*.*.w *.*.*.*.*.*.*.*.*.*.8 9 r ,.,.,.=.%.",
"*.*.,.,.,.9 8 8 w w w 6 6 6 *.*.*.*.*.*.*.4.4.o k.A.A.D.J.J.J.J.K.J.J.J.F.x.x.l.o 4.4.*.5.w *.*.*.*.*.*.*.*.*.*.8 8 9 ,.,.,.*.*.",
"%.=.:.>.,.8 w 2 *.%.%.*.5.%.5.$.*.*.*.*.%.4.O o x.A.H.H.J.G.J.G.J.J.J.H.J.J.x.x.o o 4.%.%.w *.*.*.%.*.*.*.*.*.*.2 8 w :.>.>.=.%.",
"%.&.>.>.>.w 2 5 %.*.%.%.%.%.$.5.%.%.*.%.%.4.O O x.x.H.H.J.G.G.G.H.H.J.J.D.J.x.x.O O 4.*.*.w %.%.%.*.%.*.*.%.%.%.2 2 q >.>.,.=.%.",
"%.=.:.>.:.5 5 5 $.$.5.%.%.%.%.%.%.%.%.%.%.3.O O j.A.A.S.G.G.G.G.G.G.G.G.S.x.z.k.O O 3.%.%.w %.%.%.%.%.%.%.%.%.%.2 5 5 :.:.,.&.%.",
"%.=.:.>.:.5 3 1 5.$.$.%.%.%.%.%.%.%.%.%.%.3.O O @ j.z.z.z.z.z.z.x.x.z.z.z.z.k.O O O 3.%.%.w %.%.%.%.%.%.%.%.%.%.: 3 5 :.:.:.&.%.",
"$.=.:.:.:.5 2 : 5.X.$.$.$.$.$.$.$.$.$.$.$.2.+ @ @ @ @ @ @ @ @ @ @ @ @ @ @ @ @ @ @ @ 2.$.$.w $.$.$.$.%.$.$.$.$.%.1 1 5 :.:.:.&.%.",
"$.&.;.:.:.3 1 1 X.X.X.X.X.X.X.X.$.X.X.X.( 2.] + + + + + + + + + + + + + + + @ @ + 2.] +.X.q X.$.%./ X.X.X.X.X.$.1 1 3 :.;.:.&.%.",
"$.&.;.;.;.3 < < X.X.{ X.X.$.X.$./ %.$.( X.2.] ] ] ] ] ] ] ] ] ] ' ' ' ] > ] ] ] ] ] ] | X.q { { / $.X./ $.X./ X.< 3 3 :.;.:.&.$.",
"$.&.;.;.;.< < < / X.{ { / / / / X./ / / / { ' ' ] ] ' ' ' ' ' ] ' ' ' ' q ' ' ' ' ' { { / q { { X./ / X./ / X./ < ; 3 ;.;.;.&.$.",
"$.+.;.;.#.< ; < / / / / / / / / / / / / / / / / / / / / / / / /  .{ ^ { q { / { / / / / / q { { { / / / / / / / ; < ; ;.;.;.+.$.",
"$.&.;.&.#.< < - / ^ / / / / / / / / ^ / / / / ^ ^ / / / ^ / ^ ^ } ! ^ { q ^ ^ / / ^ / / r q e e ^ / / ^ / ^ / ^ < ; ; ;.;.;.+.$.",
"+.&.;.#.#.< - < ^ ^ ^ ^ ^ ^ ^ ^ ^ ^ ^ ^ ^ ^ ^ ^ ^ ^ ^ ^ ^ ^ ^ ^ ^ ^ ^ q > q ^ ~ ^ ^ ^ ^ e ^ ^ e ^ ^ ^ ^ ^ ^ ^ ^ ; ; ; #.#.#.&.$.",
"+.+...;.O.< < - ^ ! ! ^ ^ ! ! ^ ~ ~ ~ ~ ~ ~ ~ ~ ~ ~ ~ ~ ^ ! ! ^ ^ ! ! > M.q ~ ~ ~ ~ ~ ~ e ~ ~ e ^ ^ ^ ^ ~ ~ ~ ~ - - ; ;.;.#.+.| ",
"+.+.#.#.+.; ; - ! ! ! ! ! ! ! ! ! ! ! ! ! ! ! ! ! ! ! ! ! ! ! ! ! ! ! e q > ! ! ! ! ! ! q ! ! > ! ! Q ^ ! ! ! ! - - < +.#.#.+.$.",
"( @.#...@.; - - Q Q Q Q Q Q Q Q Q ! Q Q Q Q ! Q Q ! Q Q ! Q Q ! W ! ! e m.> ! Q Q Q Q ! > Q Q > Q Q ! T Q ! Q ! < - - ..@.@.+.+.",
"$.+.#.@.@.- - - W Q W Q Q Q Q Q Q Q Q W W Q Q Q Q Q W W Q Q W Q Q W Q e > > W Q Q W q > > Q Q > Q Q W Q Q W W W - - - @.@.@.+.+.",
"+.+.@.@.#.- - - - - W E W W W W W E > > > > > > > > e > > e > e e > > e [ 8 W W W W > W W W W > W W W W W W - - ; - - @.@.@.+.| ",
"( +.@.- ; +.- - - - % - E E Y E E E > > E E E E E E E E E E E E E E E > > > E E E E > E E E E > E E E E - - - - - - +.- - @.} +.",
"- - - - | } #.O.- - - - - U U U U U > U U U U U U U U U U U U U U U U U > U U U U E > U I E I > E I E % - - % - O.#.} +.- - - - ",
"( $.( +.(  . . .O.- - - - I I I I I , I I I I I I P I I I I I I U I I I > I I I I I , I I I I > I I P - - - - o.....} +.| ( ( ( ",
"( ( ( ( } (  .o.O.- - - - P P I P > > > > > > > > , I P I P I I I P I P > I I I P > > P I I p > I P P - - - - o.o...} } ( +.( +.",
"$.( +.( ( }  .o.O.- - : - P P P P > P P P p P p P > p P P P p P P P P P > P P P P > > P P P P > > P p : - - - o.....} } ( $.( ( ",
"( ( ( ( ( +. . .O.- - - : > > > > > > > > , > > > , > , > > , > > > > > > > > > > > > > > > > , > > > - : g - o... .} } ( ( ( ( ",
"( ( ( ( ( (  .o.o.- : : : p p p p p p p p p p p , p p p p p p p p p p p p p p P p p p p p p p p p p p : : - : o. . .} ( ( ( +.( ",
"( ( +.( (  . . .o.: : : - , p p p p p p p p p p , p p p , p p p p p p p p p p p p p p p p p p p p p , : - : : o. . .( ( ( ( ( ( ",
"( ( ( ( ( (  .o.o.- : : : , , , , , , , , , , , , , , , , , , , , , , , , , , , , , , , , , , , , , , : : : : o. . .( ( ( ( ( ( ",
"( ( ( ( ( ( ( o.o.: : : : , , , , , , , , , , , , , , , , , , , , , , , , , , , , , , , , , , , , , , : : : : o. .( ( ( ( ( ( ( "
};
