/* XPM */
static char *result[] = {
/* columns rows colors chars-per-pixel */
"64 64 157 2 ",
"   c #3A3B45",
".  c #3A394B",
"X  c #3A3954",
"o  c #3A3959",
"O  c #3B3963",
"+  c #3A376C",
"@  c #3A3868",
"#  c #3A2D7A",
"$  c #3C337C",
"%  c #3E3B7E",
"&  c #3D4148",
"*  c #3F407F",
"=  c #40437F",
"-  c #393484",
";  c #3C338B",
":  c #393592",
">  c #3C30AD",
",  c #3E32BB",
"<  c #40328F",
"1  c #422F95",
"2  c #452F9C",
"3  c #413193",
"4  c #4C3296",
"5  c #45319B",
"6  c #4B329B",
"7  c #513F98",
"8  c #472FA1",
"9  c #482EA4",
"0  c #4B2DAC",
"q  c #4431A5",
"w  c #4932A2",
"e  c #4131A8",
"r  c #4A30AB",
"t  c #4E2CB5",
"y  c #4F2BB8",
"u  c #502BB7",
"i  c #522CBD",
"p  c #4133BE",
"a  c #5133B6",
"s  c #533CB6",
"d  c #5434BC",
"f  c #563DBC",
"g  c #395186",
"h  c #3F598D",
"j  c #3A4D92",
"k  c #3F5596",
"l  c #3F539A",
"z  c #52459A",
"x  c #544B9A",
"c  c #56539C",
"v  c #595C9E",
"b  c #46629C",
"n  c #5A629E",
"m  c #4E44A4",
"M  c #4F4BA3",
"N  c #4F41A9",
"B  c #504EA5",
"V  c #5043A9",
"C  c #514AAA",
"Z  c #455CA5",
"A  c #5154A4",
"S  c #525AA4",
"D  c #5250AA",
"F  c #5343B4",
"G  c #544AB2",
"H  c #5744BB",
"J  c #5C67A0",
"K  c #5E6CA1",
"L  c #536BAF",
"P  c #5F72A1",
"I  c #5674A8",
"U  c #6076A2",
"Y  c #627CA3",
"T  c #562EC4",
"R  c #4634C2",
"E  c #4A36C5",
"W  c #4D36C8",
"Q  c #5633C3",
"!  c #5739C2",
"~  c #583CC2",
"^  c #5037CB",
"/  c #5238CD",
"(  c #5639D2",
")  c #5A3BD6",
"_  c #5D3BD9",
"`  c #603CDD",
"'  c #663EE2",
"]  c #623FEC",
"[  c #5943C1",
"{  c #5C48C6",
"}  c #5F4ACE",
"|  c #7568C8",
" . c #7A6CCA",
".. c #7D71CC",
"X. c #6B40E7",
"o. c #6542ED",
"O. c #6B41ED",
"+. c #644BED",
"@. c #694BEF",
"#. c #7142EF",
"$. c #6452EC",
"%. c #6953EF",
"&. c #6C44F1",
"*. c #664CF0",
"=. c #6A4EF2",
"-. c #7543F4",
";. c #7945F7",
":. c #7349F5",
">. c #7C45F9",
",. c #774BF8",
"<. c #7C4CFA",
"1. c #6E51F4",
"2. c #7253F6",
"3. c #7655F9",
"4. c #7957FA",
"5. c #7D59FC",
"6. c #7F6BF7",
"7. c #8576CF",
"8. c #8778CF",
"9. c #8C7CCE",
"0. c #8247FB",
"q. c #8649FD",
"w. c #894AFE",
"e. c #855CF7",
"r. c #895BF7",
"t. c #8551FE",
"y. c #8954FA",
"u. c #815CFF",
"i. c #8958F8",
"p. c #846EEE",
"a. c #8473EC",
"s. c #8975EE",
"d. c #847CED",
"f. c #897DEC",
"g. c #8663F3",
"h. c #8962F5",
"j. c #856BF1",
"k. c #896CF2",
"l. c #8064FB",
"z. c #8573F1",
"x. c #8679F1",
"c. c #1EF0FF",
"v. c #9484CD",
"b. c #9887CC",
"n. c #9B8BCC",
"m. c #9991CB",
"M. c #8681D3",
"N. c #9590D9",
"B. c #94B0C6",
"V. c #888BE6",
"C. c #8583EC",
"Z. c #8884E9",
"A. c #8488EB",
"S. c #8EFFFF",
"D. c #C9FFFF",
"F. c #F3F3FD",
"G. c #FFFFFF",
/* pixels */
"a.a.a.d.a.d.d.C.A.A.S S S = V.V.V.V.V.V.V.V.V.V.V.Y V.V.V.V.V.V.V.V.V.V.V.V.V.V.V.V.V.Y V.V.V.V.V.V.z c S S A.A.d.d.d.a.a.a.d.a.",
"a.a.a.a.a.a.d.d.C.C.S S S * V.V.V.V.V.V.V.V.V.V.V.Y V.V.V.V.V.V.V.V.V.V.V.V.V.V.V.V.V.Y V.V.V.V.V.V.% b S S A.C.d.d.a.a.a.a.a.a.",
"a.p.p.a.p.a.a.d.d.C.A A A % V.Z.Z.Z.Z.Z.Z.Z.Z.Z.Z.U Z.V.Z.Z.Z.Z.Z.B.Z.Z.Z.Z.Z.Z.Z.Z.Z.Y Y U U U U U % A S A C.x.d.a.a.p.p.a.a.p.",
"p.p.p.p.z.a.z.d.d.C.A A A % Z.Z.Z.Z.Z.Z.Z.Z.Z.Z.Z.P Z.Z.Z.Z.Z.Z.Z.Z.Z.Z.Z.Z.Z.Z.f.Z.Z.Z.Z.Z.f.Z.Z.P % A A D C.C.d.z.a.z.p.p.p.p.",
"p.j.j.j.j.p.z.z.x.B B M M $ f.f.f.Z.f.Z.f.Z.f.Z.f.K f.Z.f.f.f.Z.f.Z.f.Z.f.Z.f.f.f.f.Z.f.Z.f.Z.f.f.f.$ M M A C x.s.p.p.j.p.j.j.j.",
"j.j.j.j.j.p.z.z.x.B M B M $ f.f.f.f.s.f.s.f.s.f.s.K f.s.f.s.f.f.f.s.f.s.f.s.f.f.f.f.s.f.s.f.s.f.f.f.$ M M M B x.z.p.p.j.j.j.j.j.",
"g.g.j.g.g.j.p.j.G C B m # s.s.s.s.s.s.s.s.s.s.s.s.J s.s.s.s.s.s.s.s.s.s.s.s.s.s.s.s.s.s.s.s.s.f.s.s.s.# M m B C z.j.j.g.g.j.g.g.",
"g.g.g.g.g.g.k.G G C m # s.s.s.s.s.s.s.s.s.s.s.s.s.J s.s.s.s.s.s.s.s.s.s.s.s.s.s.s.s.s.s.s.s.s.s.s.s.s.s.# m C F G k.j.g.g.g.g.g.",
"g.e.g.e.g.g.H H F V m k.s.k.s.k.k.k.s.k.s.k.k.k.s.v k.k.k.s.k.k.k.k.k.s.k.k.s.k.s.k.k.s.k.s.k.k.k.s.k.k.k.m m F H H g.g.h.e.g.e.",
"} } } } { [ H G V V k.k.k.k.k.k.k.k.k.k.k.k.k.k.k.v k.k.k.k.k.k.k.k.k.k.k.k.k.k.k.k.k.k.k.k.k.k.k.k.k.k.k.k.N F F H [ { } } } } ",
"e.g.6.6.6.[ H s h.k.k.k.h.k.k.h.h.k.k.k.k.k.k.k.k.c c k.k.k.k.k.k.k.k.k.k.h.h.k.k.k.k.k.k.h.h.k.k.k.k.k.k.h.k.k.F H [ 6.6.6.l.e.",
"i.e.6.6.6.[ H s h.h.h.h.h.k.h.h.k.h.h.h.h.h.h.h.h.c c c c x c g.h.h.h.h.h.k.h.h.h.h.h.h.h.k.h.h.h.h.h.h.k.h.h.h.s H ~ 6.6.6.e.i.",
"y.e.6.6.l.~ f s h.h.h.h.h.h.h.r.h.h.r.h.r.h.h.r.r.h.h.r.h.r.x h.h.h.h.r.h.h.h.h.h.r.h.h.h.r.h.h.h.h.h.r.h.h.r.h.a f ~ l.6.l.e.t.",
"t.e.6.5.l.! d a i.r.i.r.r.r.r.r.r.r.r.r.r.r.r.r.r.r.r.r.r.r.z r.r.i.r.r.r.i.r.r.r.r.r.r.r.r.r.r.i.i.r.r.r.i.r.r.a f ! l.6.l.e.t.",
"y.t.6.u.l.! d a i.i.i.i.i.i.i.i.r.y.i.i.r.i.i.i.r.r.r.r.r.i.z r.i.i.i.i.i.i.i.i.i.i.i.i.i.i.i.i.i.i.i.i.i.i.i.i.a d Q l.5.6.y.t.",
"w.t.l.5.u.Q d a y.y.y.y.y.y.y.y.y.y.y.y.y.y.m.m.m.m.m.n.m.m.7 m.m.m.m.m.m.m.m.m.m.m.y.y.y.y.y.y.y.y.i.i.y.y.y.y.a d Q l.u.6.y.q.",
"w.t.u.5.l.Q i u w.w.w.w.w.w.y.w.y.w.y.y.w.n.n.&   & & & & & & & & & & & & &     & n.n.y.w.w.w.w.w.y.w.y.w.w.w.y.u i Q u.u.u.t.w.",
"w.t.u.u.u.T i u w.w.w.w.w.w.w.w.w.w.w.w.w.n.            &         &     &       & & n.w.w.w.w.w.w.w.w.w.w.w.w.w.u i T u.u.u.t.w.",
"w.t.5.u.u.T i u w.w.w.w.w.w.w.w.w.w.y.w.y.n.  &   c.S.S.S.S.S.S.S.S.S.S.S.S.c.  &   n.w.w.w.w.w.w.w.w.w.w.w.w.w.u i i u.u.u.t.w.",
"w.t.u.u.u.T i u w.w.w.w.w.w.w.w.w.4 4 4 4 4     c.S.S.D.G.G.G.G.G.G.G.G.D.S.S.c.    9.w.w.w.w.w.w.w.w.w.q.w.w.w.u i T i.u.u.w.w.",
"w.t.u.u.u.T i u w.w.w.w.w.w.w.w.w.4 w.w.w.n.    S.S.G.G.G.G.G.G.G.G.G.G.G.G.S.S.    n.w.w.w.w.w.w.w.w.w.w.w.w.w.u i T u.u.u.t.w.",
"w.w.u.u.u.T i u w.w.w.w.w.w.w.w.w.4 w.w.w.n.    S.S.G.G.G.G.G.G.G.G.G.G.G.F.S.S.    n.w.w.w.w.w.w.w.w.w.w.w.w.w.u i T u.u.u.t.w.",
"w.w.u.u.u.T i u w.w.w.w.w.w.w.w.4 4 w.w.w.n.n.  c.S.S.D.G.G.F.F.G.G.G.G.D.S.D.c.  n.n.w.w.w.w.w.w.w.w.w.w.q.q.w.u i T u.u.u.w.w.",
"w.t.u.u.u.T i u w.w.w.w.w.4 4 4 4 4 w.w.w.n.      c.S.S.S.S.S.S.S.S.S.S.S.S.c.      n.w.w.w.w.w.w.w.w.w.w.w.w.w.u i Q u.u.5.t.w.",
"w.w.5.l.u.T i u w.w.w.w.w.4 w.w.w.w.w.w.w.n.&                                       9.w.w.w.w.w.q.q.w.w.w.w.w.w.u i T u.u.u.w.w.",
"w.t.u.u.u.T i u w.w.w.w.w.4 w.w.w.w.w.w.w.n.                                        n.w.w.w.w.w.w.w.w.w.w.w.w.w.u i T u.u.u.q.w.",
"w.t.u.u.5.T i y w.w.w.w.4 4 4 w.w.w.w.w.w.n.                  &                     n.w.w.w.w.w.w.w.w.w.w.w.w.w.u i T u.5.6.t.w.",
"w.w.u.5.5.T i t q.0.w.w.4 F.4 w.w.w.w.0.w.9.      v v c b b b b b b b I K b b       4 4 4 4 w.w.q.q.q.q.q.w.w.0.u i T u.5.5.q.w.",
"0.t.5.5.5.Q T y q.q.q.q.4 4 4 q.0.w.w.w.0.9.&   b b h h h h h h h h h h * h b b & . 9.w.9 4 w.0.q.q.q.q.w.0.w.w.y i T 5.5.5.w.w.",
"w.<.5.5.5.Q y t q.q.q.q.4 F.4 q.w.0.0.w.w.9.9.. b = g g = * g g g = g g = g = b & 9.n.w.w.4 0.w.q.q.q.q.0.w.0.0.y i T 5.u.5.<.0.",
"0.q.5.5.5.T y t 0.0.q.0.9 4 9 0.0.0.0.0.w.9.9.  b * h g h h g g g g h g g g h b . 9.9.0.0.4 w.0.0.0.q.0.0.0.0.0.y y T 5.5.5.t.0.",
"0.<.5.5.5.T y t 0.q.0.0.4 F.4 q.0.0.0.0.w.9.& . b b h h h h h h h h h h h h b b . X 9.0.0.4 0.0.0.0.q.0.w.0.0.0.t y T 5.5.5.<.0.",
"0.<.5.5.5.y t 0 0.0.0.0.6 6 6 0.0.0.0.0.0.v.X X . Z b b Z b b b b b b b b b b X . X v.0.0.6 0.0.0.0.0.0.0.0.0.0.0 t y 5.5.5.<.>.",
"0.<.3.3.5.y 0 0 0.>.0.0.0.6 0.0.0.0.0.0.0.v.X X X X X X . X o . o & X & o X X X X X v.0.>.6 0.0.>.0.0.0.0.0.0.0.0 0 t 5.3.5.<.0.",
"0.<.5.5.3.t 0 0 0.>.0.0.0.6 0.>.>.0.>.0.>.9.X X X X X X o X X o o X o X X X X X o X 9.0.0.6 0.0.0.0.>.0.0.>.>.0.0 0 t 5.5.3.<.0.",
">.<.3.3.5.r 0 9 >.0.>.0.>.9 >.0.>.>.0.0.0.9.o o o o o o o o o o o o o o o o o o o o 9.0.>.w >.0.>.>.0.>.0.>.0.0.9 0 r 3.3.5.<.>.",
">.<.3.5.3.r 9 8 >.>.>.>.w 6 w.>.>.>.>.>.>.9.o o o b Z Z Z Z Z b Z Z b L L b Z o o o 9.>.0.w >.>.>.>.>.>.>.>.>.>.9 9 r 3.3.5.,.>.",
">.<.3.3.3.r 9 2 9 6 w w w 0 0.0.>.0.>.>.>.9.9.o Z Z k k l j k k k k k k k k Z Z O 9.9.;.>.w >.>.>.>.>.>.>.0.>.>.2 9 w 3.3.3.,.>.",
">.,.3.2.3.9 6 2 ;.>.>.>.0.] 0.w.;.>.>.>.>.9.O o Z j j j j j j j j j j j j j j Z o o 9.>.>.w ;.>.>.>.;.>.;.>.;.>.2 9 9 3.3.3.,.>.",
";.,.2.3.3.8 2 5 ;.>.;.;.0.w.] ] ;.>.;.;.;.8.O o Z j j j j j j j j j j j j j j Z O O 9.;.;.w >.;.;.>.>.;.>.;.>.;.5 2 5 3.3.3.,.;.",
";.,.2.3.2.5 5 5 0.>.>.0.] 0.w.0.;.;.>.;.;.9.O O Z Z l l l l l l k l l l l l Z Z @ O 8.;.;.w ;.;.;.;.0.;.;.;.;.;.1 5 5 3.2.3.,.;.",
";.,.2.2.2.5 3 1 0.] ] 0.>.0.] 0.;.;.-.;.;.8.O O @ A Z Z Z Z Z Z Z Z Z Z Z Z Z @ @ O 8.;.;.w ;.;.;.;.-.;.;.;.;.;.1 1 5 2.2.2.:.;.",
"-.:.2.2.2.5 1 3 0.>.-.>.' 0.] 0.;.#.;.-.] 7.@ @ @ @ @ @ + + + + @ + + + @ @ @ @ @ @ 7.-.-.w -.;.-.-.-.-.-.-.-.;.3 3 5 2.2.2.:.;.",
"-.,.1.2.1.3 3 1 ' >.' -.>.' 0.' #.#.#.#.;.7. .@ + + + + + + + + + + + + + + @ @ @ 7. .#.#.w #.#.;.' #.-.;.' -.-.1 3 3 2.1.2.:.-.",
"-.:.=.2.2.3 < ; ' >.' >.' >.-.' ' -.] ] ' 7.7. .7.|  . . . .| 7.| |  . .e .. . . . .7.' ] 0 #.O.' #.#.' -.' -.-.; 3 3 2.1.2.:.-.",
"-.-.2.1.1.3 < < -.' ' ' ' ' ' -.' ' -.' ' ' | | | | | | | | |  .| | | | q | | | | | ] ' #.9 ' O.#.' ' #.' ' ' ' < < 3 2.1.1.&.-.",
"-.&.=.2.@.< < ; ' ' ' ' ' ' ' ' ' ' ' ' ' ' ] ' ' ' ' ' ' ' ' ' +.+.] ` > X.X.X.' ' ' ' ' q ' ' X.' ' ' ' ' ' ' ; < : =.1.1.:.-.",
"-.&.1.1.1.< < ; ' ' ' ' ' ' ' ' ' ' ` ' ' ' ' ' ' ' ' ` ' ' ` ` ) ` o.) q ` ` ` ' ' ' ' q q q q ' ` ' ' ' ` ' ` < ; ; 1.1.1.&.-.",
"&.&.1.1.=.< ; - ` ` ` ` ` ` ` ` ` ` ` ` ` ` ` ` ` ` ` ` ` ` ` ` ' _ _ q e e ` ` ` ` ` ` e ` _ q ` ` ` ` ` ` ` ` ; < < %.=.=.:.-.",
"-.&.$.1.%.; < - ` ` ) ` ` ) ) ` _ _ _ _ _ _ _ _ _ _ _ _ ) ` ` ) _ _ _ > N.q ) ) _ _ _ _ e _ _ > ` ` ` ` ) ) ` ) ; - ; 1.=.=.&.O.",
"-.&.1.*.=.< ; - ) ) ) ) ) ) ) ) ) ) ) ) ) _ ) _ ) ) ) ) ) ) ) ) ) ) ) 9 e e ) ) ) ) ) ) e ) ) > ` ( ( ( ) ) ) ) - - < @.1.*.&.-.",
"&.*.*.*.*.- - - ( ( ( ( ) ( ( ( ) / ) ) ) / ) / ( ( ) ( ( ( ) ( ) ( ) > M.e ) ) ( ) ( ( > ) ( > ! ` ( ( ) ( ) ) < # - @.*.*.&.&.",
"] &.*.=.*.- - - ( / ( ( / ( ( ( ( / ( / ( / ( ( / ( / ) / ( / ( / / ( e > > / / / ( e > > / ( > ( / / ( ( / / / - - - *.*.*.&.&.",
"&.&.=.+.*.- - - - - / W / / / / / / > > > > > > q > > > > q > > > > > > ..8 / / / / > / ^ } / > / / / ^ / / - - - - - *.*.*.O.&.",
"] O.*.- - &.- - - - $ - ^ ^ Q ^ W / > > W ^ ^ ^ W / W / ^ ^ ^ ^ ^ ^ ^ > > > ^ ^ ^ ^ > ^ ^ ^ ^ > / ^ ^ ^ - $ - - - - @.- - +.&.o.",
"< - - ; &.O.+.1.- - - - - W W W W W > W W W W W W W W W W W W W E ^ E ^ > W W W W W > ^ ^ E E > ^ W W - - - - - *.*.&.O.; ; - - ",
"] -.] &.o.o.+.$.%.- - - - E E E E E > E E E E E E R E E E E E E E E W E > E E W E E > E E E R > E R R - - - : $.%.@.&.o.&.] &.] ",
"] ] ] ] o.o.+.$.$.- - - - R E E R > > > > , > > > , E E E E E R E E R E > E E E E > > E E E R > R [ R - - - - $.@.@.o.O.] ] ] ] ",
"] -.&.] ] &.+.+.$.- - - - R R R p > p p p R R p R > p p R R R R p E R R > R R R p > > R R R R > , p , - - - - $.$.@.o.] -.] -.] ",
"] ] ] ] ] o.+.$.%.- - : : > > > , > > , > > > , > > > > > , > > > > > > > > > > > > , > > > > , , > > : - : - $.+.@.o.o.] ] ] ] ",
"] ] ] ] ] +.+.+.$.- : : : p p p p p p p p p p p p p p p p p p p p p p p p p p p p p p p p p p p , p p : - : - $.+.+.] ] ] ] ] ] ",
"] ] &.] ] ] ] $.$.: : : - , p p p p p p p p p p p p p p p , p p p p p , p p p p p p p p p p , , , , , : - : : $.+.+.o.] ] ] ] ] ",
"] ] ] ] ] ] +.+.$.: : : : , , , , , , , , , , , , , p , , , , , , p , , , , , p , , , , , , , , , , , : : : : $.+.+.] ] ] ] ] ] ",
"] ] ] ] ] +.` $.$.: : : : , , , , , , , , , , , , , , , , , , , , , , , , , , , , , , , , , , , , , , : : : : $.$.] o.] ] ] ] ] "
};
