/* XPM */
static char *ff84f90f3ea340b9f21723c24df966e5RgGucoA1mne0CRVH[] = {
/* columns rows colors chars-per-pixel */
"64 64 157 2 ",
"   c #0F3335",
".  c #103637",
"X  c #103738",
"o  c #113C3D",
"O  c #122542",
"+  c #14264A",
"@  c #123E40",
"#  c #1D3757",
"$  c #1E365A",
"%  c #1C3565",
"&  c #1D346A",
"*  c #203466",
"=  c #134345",
"-  c #154748",
";  c #164B4D",
":  c #174F50",
">  c #1B4D54",
",  c #1E4C58",
"<  c #175153",
"1  c #185254",
"2  c #1A466F",
"3  c #19496E",
"4  c #1A4370",
"5  c #284F6D",
"6  c #28506D",
"7  c #315E6F",
"8  c #2F4676",
"9  c #2F4479",
"0  c #304676",
"q  c #304971",
"w  c #304578",
"e  c #315F70",
"r  c #23626D",
"t  c #316071",
"y  c #12C74F",
"u  c #13C553",
"i  c #0F5389",
"p  c #0F5889",
"a  c #10518A",
"s  c #115B8B",
"d  c #315E83",
"f  c #315F8A",
"g  c #17628E",
"h  c #366486",
"j  c #356788",
"k  c #33648D",
"l  c #356888",
"z  c #356988",
"x  c #356989",
"c  c #346A89",
"v  c #356A89",
"b  c #356B89",
"n  c #356A88",
"m  c #356B8A",
"M  c #356C89",
"N  c #356C8A",
"B  c #346D8A",
"V  c #346D8B",
"C  c #346E8A",
"Z  c #346E8B",
"A  c #34688F",
"S  c #23679B",
"D  c #226B9B",
"F  c #366D93",
"G  c #22709B",
"H  c #377196",
"J  c #37759A",
"K  c #37749A",
"L  c #38749A",
"P  c #38759A",
"I  c #39759A",
"U  c #3A799D",
"Y  c #3C7EA2",
"T  c #3F6CB5",
"R  c #4A5F94",
"E  c #4D6393",
"W  c #546B97",
"Q  c #57719C",
"!  c #58719C",
"~  c #5D77A1",
"^  c #406FB6",
"/  c #4172B7",
"(  c #4276B8",
")  c #447CBB",
"_  c #627DA6",
"`  c #3C81A4",
"'  c #3F96B4",
"]  c #3E97B4",
"[  c #3F97B4",
"{  c #3E96B5",
"}  c #3F96B5",
"|  c #3E97B5",
" . c #3F97B5",
".. c #3E96B4",
"X. c #3F96B6",
"o. c #3F97B6",
"O. c #3E96B6",
"+. c #4581BC",
"@. c #4096B5",
"#. c #4095B6",
"$. c #4195B7",
"%. c #4095B7",
"&. c #4096B6",
"*. c #4096B7",
"=. c #4196B7",
"-. c #4593BB",
";. c #4195B8",
":. c #4195B9",
">. c #4295B8",
",. c #4394B9",
"<. c #4295B9",
"1. c #4395B9",
"2. c #4294B9",
"3. c #4394BA",
"4. c #4394BB",
"5. c #4395BA",
"6. c #4196B8",
"7. c #4494BA",
"8. c #4494BB",
"9. c #4493BC",
"0. c #4593BC",
"q. c #4593BD",
"w. c #4692BD",
"e. c #4693BD",
"r. c #4693BC",
"t. c #4693BE",
"y. c #4692BE",
"u. c #4594BC",
"i. c #4494BC",
"p. c #4792BE",
"a. c #5B9BC6",
"s. c #5C9FC8",
"d. c #5DA0C8",
"f. c #94CDCF",
"g. c #95CECF",
"h. c #96CED0",
"j. c #97CFD1",
"k. c #97CED0",
"l. c #95CDD0",
"z. c #98CFD1",
"x. c #99CFD1",
"c. c #99CFD2",
"v. c #99D0D2",
"b. c #9AD0D2",
"n. c #9BD1D2",
"m. c #9CD1D3",
"M. c #9DD1D3",
"N. c #9DD1D4",
"B. c #9ED2D4",
"V. c #A3D4D6",
"C. c #A5D5D7",
"Z. c #A6D5D7",
"A. c #A7D6D8",
"S. c #A9D7D9",
"D. c #AAD7D9",
"F. c #ABD9D9",
"G. c #ABD8DA",
/* pixels */
"| | | | | | | | | | | | | | r | | | | | | | | | | | | | | | | | | | | | | | | | | | | | | | | | | | | | | | | | | | | | | | | | ",
"| | | | | | | | | | | | | | r | | | | | | | | | | | | | | | | | | | | | | | | | | | | | | | | | | | | | | | | | | | | | | | | | ",
"| | | | | | | | | | | | | | r | | | &.| | | | | | | | | | | | | | | | | | | | | | | | | | | | | | | | | | &.&.| | | | | &.| &.&.",
"| | | &.| | | | | | | | | | r | | | | &.| | | | | | | &.&.| | &.| | | | | | &.| | | | &.| | | | | | &.| | | | | | | | | | | | | ",
"| &.&.&.| &.= = = = = = = = = = = = = = = = = = = = = = = = = - = = = = = = = = = = = = = = = = = = | &.| &.| | | &.&.&.&.&.| &.",
"&.&.&.&.&.= 1 1 1 1 1 1 1 1 1 1 1 1 1 1 1 1 1 1 1 1 1 1 1 1 1 1 1 1 1 1 1 1 1 1 1 1 1 1 1 1 1 1 < 1 = &.&.&.| &.&.&.&.&.&.&.&.&.",
"&.&.&.&.&.: < V V V V V V < V V V < h.h.f.1 V V V V < f.f.h.: V V 1 V V V V < h.h.h.< V V : V V V < < &.&.&.&.&.&.&.&.&.&.| &.&.",
"&.&.;.&.&.: : V V V V V V < V V V : h.h.h.: V V V V : h.h.h.< V V : V V V V : h.h.h.: V V : V V V : : &.&.&.&.&.&.&.&.&.&.&.&.&.",
";.&.;.&.;.; ; z V z V z z : = = = : z.z.b.: = = = = ; z.b.b.: = @ : = = = = ; z.z.z.; z z : = = = ; : ;.;.;.;.&.&.&.;.;.;.&.;.&.",
"&.&.;.;.;.: ; z V z z z V ; ; ; ; ; = @ = ; b.b.b.; ; @ @ = ; ; ; ; ; ; ; ; ; = = = ; V z ; b.b.b.; ; ;.;.;.;.;.;.;.;.;.;.;.;.;.",
";.;.;.;.;.; ; z z z z z z ; ; ; ; ; z z z ; N.m.m.; z z z z ; z z z ; ; ; ; ; ; ; ; ; @ @ ; m.m.b.; ; ;.;.;.;.;.;.&.;.;.;.&.;.;.",
";.;.;.;.;.; - z z z z z z ; - ; ; ; z z z - N.N.m.; z z z z ; z z z - z z ; z z z z - z z ; N.N.m.; - ;.;.;.;.;.;.;.;.;.;.;.;.;.",
";.;.;.;.;.- - o o o o o o - - - - - o o o ; o o o - o o o o - z z z - z z - z z z z - z z - o o o - - ;.;.;.;.;.;.;.;.;.;.;.;.;.",
";.;.;.;.7.- - - - - - z j j - j z j - z j - - - - - - - - - - j j z - o o - o o o o - j j - j j z - - ;.;.;.;.;.;.;.;.;.;.7.;.;.",
";.;.;.;.7.- = = = - - j j j - j j j - j j - - u u u u u u - = o X X = V.V.V.- - - - = j j = j j j = - ;.;.;.;.;.;.;.;.;.7.7.7.;.",
";.;.;.;.7.= = = = = = j j j = j j j = j j = = u u u u u u = = = = = = Z.Z.Z.= = = = = X X = j j j = = ;.7.;.;.;.;.;.;.;.7.;.7.7.",
";.;.;.;.;.= = = = = = X X X = j j j = X X = = u u u u u u = = = = = = Z.Z.Z.= = = = = j j = X X X = = 7.;.;.;.;.;.;.7.7.;.7.;.;.",
"7.;.;.;.7.= = S.A.S.= j j j =   . X = j j = = u u u u u u = h j j = = X X . = j j h = h j = = = = = = 7.;.;.;.7.7.7.7.;.7.;.;.7.",
";.7.7.7.7.= = F.S.S.= h h h = h h h = h h = = u u u u u u = h h h = = h h h = j h h @ h h = = = = = = u.7.7.7.7.;.7.7.7.7.7.7.-.",
"7.7.7.7.7.@ @ F.F.F.@ h h h @ h h h o h h = @ u u u y u u @ h h h @ = h h h @ h h h @ h h = @ @ @ @ @ u.u.7.7.7.u.u.7.7.7.7.7.7.",
"u.9.u.9.7.@ @       o     . o       o     o o             o       o o . . . @ .     @     o o o o o o -.7.7.9.7.u.u.9.u.9.u.9.9.",
"9.9.9.u.9.-.o o o o o o o o o o o o o o o o o o o o o o o o o o o o o o o o o o o o o o o o o o o o 9.9.9.9.9.9.9.9.u.9.u.9.9.9.",
"9.9.9.9.9.9.u.9.9.9.9.9.9.9.t 9.9.9.9.9.9.9.9.9.u.9.9.9.9.9.9.9.9.u.9.9.9.9.9.9.9.9.9.9.9.9.9.9.u.9.u.9.9.9.9.9.9.9.u.9.9.9.9.9.",
"9.9.9.9.9.9.9.9.9.9.9.9.u.t t , , , , , 9.9.9.9.9.9.9.9.9.9.9.9.9.9.9.9.9.9.9.9.9.u.9.9.9.9.9.9.9.9.9.9.9.9.9.9.9.9.9.9.9.9.9.9.",
"9.9.9.9.9.9.9.9.9.9.9.9.e 9.9.9.9.9.9., 9.9.9.9.9.9.9.9.9.9.9.9.9.9.9.9.9.9.9.9.9.9.9.9.9.9.9.9.9.9.9.9.9.9.9.9.9.9.9.9.9.9.9.9.",
"9.9.9.9.9.9.9.9.9.9.9.7 9.9.9.9.9.9.9., 9.9.9.9.9.9.9.9.9.9.9.9.9.9.9.9.9.9.9.9.9.9.9.9.9.9.9.9.9.9.9.9.9.9.9.9.9.9.9.9.9.9.9.9.",
"L L L L L L L L J L L L L J L L L L L L L L L L L L L L L L L L L L L L L 9.9.9.9.9.9.9.9.9.9.9.9.9.L L L L L L L L J L L L L L ",
"` ` ` ` ` ` ` ` ` ` ` ` ` ` ` ` ` ` ` ` ` ` ` ` ` ` ` ` ` ` ` ` ` ` ` ` ` L p.p.p.9.p.p.p.p.9.9.9.L ` ` ` ` ` ` ` ` ` ` ` ` ` ` ",
"` ` ` ` ` ` ` ` ` ` ` ` ` ` ` ` ` ` ` ` ` ` ` ` ` ` ` ` ` ` ` ` ` ` ` ` ` ` L 9.p.p.p.p.9.9.9.9.9.L ` ` ` ` ` ` ` ` ` ` ` ` ` ` ",
"` ` ` ` ` ` ` ` ` ` ` ` ` ` ` ` ` ` ` ` ` ` ` ` ` ` ` ` ` ` ` ` ` ` ` ` ` ` ` L L L L L L L L L L L ` ` ` ` ` ` ` ` ` ` ` ` ` ` ",
"Y ` ` ` ` ` ` ` ` ` ` ` ` ` ` ` ` ` ` ` ` ` ` Y ` ` ` ` Y ` ` ` ` ` ` ` ` ` ` ` ` ` ` ` ` Y ` ` ` Y ` ` ` ` ` ` ` ` ` ` ` ` ` ` ",
"s s s p s s s s s p s s s s s p s s s s Y Y Y Y Y Y Y Y Y Y Y Y Y Y Y Y Y Y Y Y Y Y Y Y Y Y Y Y Y Y Y Y Y Y s s p p p s s s p s ",
"D G G G D G D G G D G D D G D D D D G p p p Y Y Y Y Y Y Y Y Y Y Y Y Y Y Y Y Y Y Y Y Y Y Y Y Y Y Y Y Y Y Y 3 p D G D G D D G G D ",
"p p p p p p p p p p p p p p p p p p p D D p p Y Y Y Y Y Y Y Y Y Y Y Y Y Y Y Y Y Y Y Y Y Y Y Y Y Y Y Y Y 3 p g p p p p p p p p p ",
"3 3 3 3 3 3 3 3 3 3 3 3 3 3 3 3 3 3 i p i D i p U U U U U U U U U U U U U U U U U U U U U U U U U U U U 3 g i p 3 3 3 3 3 3 3 3 ",
"U U U U U U U U U U U U U U U U U 3 3 3 i i D i i U U U U U U U U U U U U U U U U U U U U U U U U U U U 3 g i 3 3 U U U U U U U ",
"L L L U L L L L L L U L L L U L L U L 3 3 i i D i i U U U U L L U L L L L L U U L L L L L L U U L L L U 3 g i 3 L L L L L U U L ",
"d d d d d d d d d d d d d d d d d d d d 2 3 i i D i i d d d d d d d L L L L L L L L L L L L L L L L L L 3 g i 2 d d d d d d d d ",
"5 5 5 5 5 5 5 5 5 5 5 5 5 5 6 5 5 5 5 5 5 2 2 i i S i i 6 6 5 5 5 5 d L L L L L L L L L L L L L L L L L 2 g a 2 6 5 5 5 5 5 5 5 ",
"H H H H H H H H H H H H H H H H H H H H H H 2 2 i i S i i H H H H 5 5 d H H H H H H H H H H H H H H H H 2 g i 2 5 H H H H H H H ",
"F F F F F F F F F F F F F F F F F F F F F F F 2 2 i i S i i F F F F 5 5 d F F F F F F F F F F F F F F F 2 s a 4 F F F F F F F F ",
"F F F F F F F F F F F F F F F F F F F F F F F F 2 2 a i S i a i F F F 5 5 d F F F F F F F F F F F F F 4 2 s a 4 F F F F F F F F ",
"F F F F F F F F F F F F F F F F F F F F F F F F F 4 4 i i S S a i i i i a i i a i i i i a i a i i a 2 4 s i i 4 F F F F F F F F ",
"F F F F F F F F F F F F F F F F F F F F F F F F F F 4 4 a a a S S S S S S S S S S S S S S S S S S S S s a a 4 4 F F F F F F F F ",
"A A A A A A A A k A A A A A A A k A A k A A A A A A A 4 4 4 a a a i a a a a a a a i a a i a a i a a a a a 4 4 A A k k A A k A k ",
"k k k k k k k k k k k k k k k k k k k k k k k k k k k k k 4 4 4 4 4 4 4 4 4 4 4 4 4 4 4 4 4 4 4 4 4 4 4 4 4 k k k k k k k k k k ",
"s.d.s.d.s.d.d.s.d.d.d.d.d.s.k k k k k k k k k k k k k k k k k k k k k k k k k k k k k k k k k k k k k k k k k k k k k k k d.d.d.",
"+.+.+.+.+.+.+.+.+.+.+.+.+.+.s.k k k k k k k k k k k k k k k k k k k k k k k k k k k k k k k k k k k k k k k k k k k k k k s.+.+.",
"+.+.+.+.+.+.+.+.+.+.+.+.+.+.+.s.f f f f f f f f f f f f f f f f f f f k f f f f f f f f f f k f k k f f f f f f f f f f f a.+.+.",
"+.+.+.+.+.+.+.+.+.+.+.+.+.+.+.+.a.a.a.a.a.a.a.a.a.a.a.a.a.a.a.a.a.a.a.a.a.a.a.a.a.a.a.a.a.a.a.a.a.a.a.a.a.a.a.a.a.a.a.a.a.+.+.+.",
") +.+.) +.) +.+.) ) ) +.) +.) +.+.+.) +.) ) ) +.) +.) ) +.+.+.+.+.+.+.+.) # ) +.) ) +.+.+.# ) ) +.) +.+.+.) ) +.) +.+.) +.+.+.) ",
") ) ) ) ) ) ) ) ) ) ) ) ) ) ) ) ) ) ) ) ) ) ) ) ) ) ) ) ) ) ) ) ) ) ) ) ) # ) ) ) ) ) ) $ ) ) ) ) ) ) ) ) ) ) ) ) ) ) ) ) ) ) ) ",
"q q q q q q q q q q q q q q ) ) ) ) ) ) ) ) ) ) ) ) ) ) ) ) ) ) ) ) ) ) ) $ $ q q q q # ) ) ) ) ) ) ) q q q q q q q q q q q q q ",
"$ $ $ $ $ $ $ $ $ $ $ $ $ q q ) ) ) ) ) ) ) ) ) ) ) ) ) ) ) ) ) ) ) ) ) ) ) ) ) ) q ) ) ) ) ) ) ) ) q q $ $ $ $ $ $ $ $ $ $ $ $ ",
"_ _ _ _ _ _ _ _ _ _ _ _ _ q q q ) ) ) ) ) ) ) ) ) ) ) ) ) ) ) ) ) ) ) ) ) ) ) ) ) q ( ) ) ) ) ) ) q q q _ _ _ _ _ _ _ _ _ _ _ _ ",
"~ ~ O O ~ ~ ~ ~ O O ~ ~ ~ ~ q q ) ) ( ( ( ) ( ( ) ( ) ( ( ( ( ( ( ( ) ) ( ( ) ( ) q ( ( ( ( ( ( ( q q ~ ~ ~ O O ~ ~ ~ ~ O O ~ ~ ",
"! Q % % ! ! ! ! % % ! ! Q ! q q ( ( ( ( ( ( ( ( ( ( ( ( ( ( ( ( ( ( ( ( ( ( ( ( ( q ( ( ( ( ( ( ( q q ! ! ! % % Q ! ! ! % % ! Q ",
"W W % % W W W W % % W W W W w w / / ( ( ( ( ( ( ( ( / ( / ( / / / / / ( ( ( / ( / w ( ( / / / / ( 8 w W W W % % W W W W % % W W ",
"E E % % E E E E % % E E E E w w / / / / / / / / / / / / / / / / / / / / / / / / / w / / / / / / / 8 8 E E E % % E E E E % % E E ",
"E E % % + E E E % % + E E E w 8 / / / / / / / / / / / / / / / / / / / / / / / / / w / / / / / / / 8 w E E E % % + E E E % % + E ",
"E E % % % E E E % % % E E E w w / ^ / / / / ^ / ^ ^ ^ ^ ^ / / / ^ ^ / w w 8 8 w w w w w w w w w w w 8 E E E % % % E E E % % % E ",
"E E E & & E E E E & & E E E 9 9 ^ T T T T ^ T T T T T ^ T ^ T T T T T 9 T ^ ^ T ^ T T T T T T T ^ 8 9 E E E E & & E E E E & & E ",
"E E E & & E E E E & & E E E 9 9 * * * * * * * * * * * * * * * * * * * 9 T T T T T T T T T T T T T 9 9 E E E E & & E E E E & & E ",
"E E E & & R E R E & & E R E 9 9 T T T T T T T T T T T T T T T T T T T 9 T T T T T T T T T T T T T 9 9 R E R R & & R E R E & & R "
};
