/* XPM */
static char *_6ae35bfe111404bcabade179f59b50580oE7gaL3EfhcmWI[] = {
/* columns rows colors chars-per-pixel */
"64 64 151 2 ",
"   c #0F3335",
".  c #103637",
"X  c #103738",
"o  c #113C3D",
"O  c #122542",
"+  c #14264A",
"@  c #123E40",
"#  c #1D3757",
"$  c #1E365A",
"%  c #1C3565",
"&  c #1D346A",
"*  c #203466",
"=  c #134345",
"-  c #154748",
";  c #164B4D",
":  c #174F50",
">  c #1B4D54",
",  c #1E4C58",
"<  c #175153",
"1  c #185254",
"2  c #1A466F",
"3  c #19496E",
"4  c #1A4370",
"5  c #284F6D",
"6  c #28506D",
"7  c #315E6F",
"8  c #2F4676",
"9  c #2F4479",
"0  c #304676",
"q  c #304971",
"w  c #304578",
"e  c #315F70",
"r  c #23626D",
"t  c #316071",
"y  c #AC3F41",
"u  c #9C4B4D",
"i  c #964F51",
"p  c #984E50",
"a  c #945153",
"s  c #A64445",
"d  c #A94042",
"f  c #A24648",
"g  c #17BF5F",
"h  c #18BF5F",
"j  c #17BF60",
"k  c #13C652",
"l  c #16C25A",
"z  c #0F5389",
"x  c #0F5889",
"c  c #10518A",
"v  c #115B8B",
"b  c #315E83",
"n  c #315F8A",
"m  c #17628E",
"M  c #366385",
"N  c #356586",
"B  c #356587",
"V  c #356687",
"C  c #356787",
"Z  c #366687",
"A  c #366386",
"S  c #356788",
"D  c #33648D",
"F  c #356988",
"G  c #356A89",
"H  c #356B8A",
"J  c #356C89",
"K  c #346D8A",
"L  c #356C8A",
"P  c #346E8A",
"I  c #34688F",
"U  c #23679B",
"Y  c #226B9B",
"T  c #366D93",
"R  c #22709B",
"E  c #377196",
"W  c #37759A",
"Q  c #39759A",
"!  c #3A799D",
"~  c #3C7EA2",
"^  c #3F6CB5",
"/  c #4A5F94",
"(  c #4D6393",
")  c #546B97",
"_  c #57719C",
"`  c #58719C",
"'  c #5D77A1",
"]  c #406FB6",
"[  c #4172B7",
"{  c #4276B8",
"}  c #447CBB",
"|  c #627DA6",
" . c #3C81A4",
".. c #3F96B4",
"X. c #3E97B4",
"o. c #3E96B5",
"O. c #3F96B5",
"+. c #3E97B5",
"@. c #3F97B5",
"#. c #3F97B4",
"$. c #3F96B6",
"%. c #3F97B6",
"&. c #3E96B6",
"*. c #4581BC",
"=. c #4096B5",
"-. c #4195B7",
";. c #4095B6",
":. c #4096B6",
">. c #4096B7",
",. c #4196B7",
"<. c #4493BB",
"1. c #4195B8",
"2. c #4195B9",
"3. c #4295B8",
"4. c #4394B9",
"5. c #4295B9",
"6. c #4395B9",
"7. c #4294B9",
"8. c #4394BA",
"9. c #4394BB",
"0. c #4395BA",
"q. c #4196B8",
"w. c #4494BA",
"e. c #4494BB",
"r. c #4693BD",
"t. c #5B9BC6",
"y. c #5C9FC8",
"u. c #5DA0C8",
"i. c #94CDCF",
"p. c #96CED0",
"a. c #96CDD0",
"s. c #99CFD1",
"d. c #99CFD2",
"f. c #9BD1D3",
"g. c #99D0D2",
"h. c #9DD1D3",
"j. c #9DD2D4",
"k. c #9FD2D4",
"l. c #9DD1D4",
"z. c #A1D3D5",
"x. c #A2D4D5",
"c. c #A3D4D6",
"v. c #A4D5D6",
"b. c #A6D5D7",
"n. c #A7D6D8",
"m. c #A6D6D8",
"M. c #A6D5D8",
"N. c #AAD7D9",
"B. c #A9D7D8",
"V. c #AAD8D9",
"C. c #ABD8DA",
/* pixels */
"+.+.+.+.+.+.+.+.+.+.+.+.+.+.r +.+.+.+.+.+.+.+.+.+.+.+.+.+.+.+.+.+.+.+.+.+.+.+.+.+.+.+.+.+.+.+.+.+.+.+.+.+.+.+.+.+.+.+.+.+.+.+.+.",
"+.+.+.+.+.+.+.+.+.+.+.+.+.+.r +.+.+.+.+.+.+.+.+.+.+.+.+.+.+.+.+.+.+.+.+.+.+.+.+.+.+.+.+.+.+.+.+.+.+.+.+.+.+.+.+.+.+.+.+.+.+.+.+.",
"+.+.+.+.+.+.+.+.+.+.+.+.+.+.r +.+.+.:.+.+.+.+.+.+.+.+.+.+.+.+.+.+.+.+.+.+.+.+.+.+.+.+.+.+.+.+.+.+.+.+.+.+.:.:.+.+.+.+.+.:.+.:.:.",
"+.+.+.:.+.+.+.+.+.+.+.+.+.+.r +.+.+.+.:.+.+.+.+.+.+.+.:.:.+.+.:.+.+.+.+.+.+.:.+.+.+.+.:.+.+.+.+.+.+.:.+.+.+.+.+.+.+.+.+.+.+.+.+.",
"+.:.:.:.+.:.= = = = = = = = = = = = = = = = = = = = = = = = = - = = = = = = = = = = = = - = = = = = +.:.+.:.+.+.+.:.:.:.:.:.+.:.",
":.:.:.:.:.= 1 1 1 1 1 1 1 1 1 1 1 1 1 1 1 1 1 1 1 1 1 1 1 1 1 1 1 1 1 1 1 1 1 1 1 1 1 1 1 1 1 1 < 1 = :.:.:.+.:.:.:.:.:.:.:.:.:.",
":.:.:.:.:.: < K K K K K K < j h g < a.a.i.1 a a a a < a a a : a a 1 K K K K < a.a.a.< l l : a a a < < :.:.:.:.:.:.:.:.:.:.+.:.:.",
":.:.1.:.:.: : K K K K K K < l l l : a.a.a.: i p p i : i i i < i i : K K K K : a.a.a.: l h : p i i : : :.:.:.:.:.:.:.:.:.:.:.:.:.",
"1.:.1.:.1.; ; F K F K F F : = = = : s.s.f.: = = = = ; p u u : = @ : = = = = ; s.s.s.; l l : = = = ; : 1.1.1.1.:.:.:.1.1.1.:.1.:.",
":.:.1.1.1.: ; F K F F F K ; ; ; ; ; = @ = ; u u u ; ; @ @ = ; ; ; ; ; ; ; ; ; = = = ; l l ; u u u ; ; 1.1.1.1.1.1.1.1.1.1.1.1.1.",
"1.1.1.1.1.; ; F F F F F F ; ; ; ; ; h.f.h.; u u u ; f.h.f.h.; l l l ; ; ; ; ; ; ; ; ; @ @ ; u u u ; ; 1.1.1.1.1.1.:.1.1.1.:.1.1.",
"1.1.1.1.1.; - F F F F F F ; - ; ; ; k.k.h.- u u u ; k.k.k.k.; l l l - k.k.; l l l l - F F ; u u u ; - 1.1.1.1.1.1.1.1.1.1.1.1.1.",
"1.1.1.1.1.- - o o o o o o - - - - - o o o - o o o - o o o o - l l l - k.z.- l l l l - F F - o o o - - 1.1.1.1.1.1.1.1.1.1.1.1.1.",
"1.1.1.1.w.- - - - - - u f f - S F Z - z.c.- - - - - - - - - - l l l - o o - o o o o - Z Z - Z S F - - 1.1.1.1.1.1.1.1.1.1.w.1.1.",
"1.1.1.1.w.- = = = - - f f f - Z Z Z - c.c.- - c.c.v.c.c.c.- = o X X = f f f - - - - = Z Z - Z Z Z = - 1.1.1.1.1.1.1.1.1.w.w.w.1.",
"1.1.1.1.w.= = = = = = s s s = Z Z Z = v.v.= = v.v.c.v.M.v.= = = = = = s s s = = = = = X X = Z Z Z = = 1.w.1.1.1.1.1.1.1.w.1.w.w.",
"1.1.1.1.1.= = = = = = X X X = Z Z Z = X X = = M.v.M.M.v.v.= = = = = = s s s = = = = = Z Z = X X X = = w.1.1.1.1.1.1.1.w.1.w.1.1.",
"w.1.1.1.w.= = k k k = d d d =   . X = M.M.= = M.N.M.M.N.M.= d d d = = X X . = d d s = M Z = = = = = = w.1.1.1.w.w.w.w.1.w.1.1.w.",
"1.w.w.w.w.= = k k k = d d d = d d d = N.N.= = N.V.N.N.V.N.= d d d = = k k k = d d d = M M = = = = = = r.w.w.r.r.1.w.w.r.w.w.r.<.",
"w.w.w.w.w.@ @ k k k @ y y y @ y y y o V.C.= @ V.V.V.C.V.C.@ y y y @ = k k k @ d y y @ M M = @ @ @ @ @ w.w.w.r.r.w.w.w.w.w.w.r.r.",
"r.<.r.<.w.@ @       o       @       o     o o             o       @ @ . . . @ .     @     o o o o o o r.r.r.<.r.w.r.<.r.<.r.<.<.",
"<.<.<.r.<.r.o o o o o o o o @ o o o o o o o o o o o o o o o o o o o o o o o o o o o o o o o o o o o <.<.<.<.<.<.<.<.r.<.r.<.<.<.",
"<.<.<.<.<.<.r.<.<.<.<.<.<.<.t <.<.<.<.<.<.<.<.<.r.<.<.<.<.<.<.<.<.r.<.<.<.<.<.<.<.<.<.<.<.<.<.<.r.<.r.<.<.<.<.<.<.<.r.<.<.<.<.<.",
"<.<.<.<.<.<.<.<.<.<.<.<.r.t t , , , , , <.<.<.<.<.<.<.<.<.<.<.<.<.<.<.<.<.<.<.<.<.r.<.<.<.<.<.<.<.<.<.<.<.<.<.<.<.<.<.<.<.<.<.<.",
"<.<.<.<.<.<.<.<.<.<.<.<.e <.<.<.<.<.<., <.<.<.<.<.<.<.<.<.<.<.<.<.<.<.<.<.<.<.<.<.<.<.<.<.<.<.<.<.<.<.<.<.<.<.<.<.<.<.<.<.<.<.<.",
"<.<.<.<.<.<.<.<.<.<.<.7 <.<.<.<.<.<.<., <.<.<.<.<.<.<.<.<.<.<.<.<.<.<.<.<.<.<.<.<.<.<.<.<.<.<.<.<.<.<.<.<.<.<.<.<.<.<.<.<.<.<.<.",
"Q Q Q Q Q Q Q Q W Q Q Q Q W Q Q Q Q Q Q Q Q Q Q Q Q Q Q Q Q Q Q Q Q Q Q Q <.<.<.<.<.<.<.<.<.<.<.<.<.Q Q Q Q Q Q Q Q W Q Q Q Q Q ",
" . . . . . . . . . . . . . . . . . . . . . . . . . . . . . . . . . . . . .E r.r.r.<.r.r.r.r.<.<.<.Q  . . . . . . . . . . . . . .",
" . . . . . . . . . . . . . . . . . . . . . . . . . . . . . . . . . . . . . .Q r.r.r.r.r.<.<.t.<.<.E  . . . . . . . . . . . . . .",
" . . . . . . . . . . . . . . . . . . . . . . . . . . . . . . . . . . . . . . .E E E E E E E E E E E  . . . . . . . . . . . . . .",
"~  . . . . . . . . . . . . . . . . . . . . . .~  . . . .~  . . . . . . . . . . . . . . . .~  . . .~  . . . . . . . . . . . . . .",
"v v v x v v v v v x v v v v v x v v v v ~ ~ ~ ~ ~ ~ ~ ~ ~ ~ ~ ~ ~ ~ ~ ~ ~ ~ ~ ~ ~ ~ ~ ~ ~ ~ ~ ~ ~ ~ ~ ~ ~ ~ v v x x x v v v x v ",
"Y R R R Y R Y R R Y R Y Y R Y Y Y Y R x x x ~ ~ ~ ~ ~ ~ ~ ~ ~ ~ ~ ~ ~ ~ ~ ~ ~ ~ ~ ~ ~ ~ ~ ~ ~ ~ ~ ~ ~ ~ ~ 3 x Y R Y R Y Y R R Y ",
"x x x x x x x x x x x x x x x x x x x Y Y x x ~ ~ ~ ~ ~ ~ ~ ~ ~ ~ ~ ~ ~ ~ ~ ~ ~ ~ ~ ~ ~ ~ ~ ~ ~ ~ ~ ~ ~ 3 x m x x x x x x x x x ",
"3 3 3 3 3 3 3 3 3 3 3 3 3 3 3 3 3 3 z x z Y z x ! ! ! ! ! ! ! ! ! ! ! ! ! ! ! ! ! ! ! ! ! ! ! ! ! ! ! ! 3 m z x 3 3 3 3 3 3 3 3 ",
"! ! ! ! ! ! ! ! ! ! ! ! ! ! ! ! ! 3 3 3 z z Y z z ! ! ! ! ! ! ! ! ! ! ! ! ! ! ! ! ! ! ! ! ! ! ! ! ! ! ! 3 m z 3 3 ! ! ! ! ! ! ! ",
"Q Q Q ! Q Q Q Q Q Q ! Q Q Q ! Q Q ! Q 3 3 z z Y z z ! ! ! ! Q Q ! Q Q Q Q Q ! ! Q Q Q Q Q Q ! ! Q Q Q ! 3 m z 3 Q Q Q Q Q ! Q Q ",
"b b b b b b b b b b b b b b b b b b b b 2 3 z z Y z z b b b b b b b Q Q Q Q Q Q Q Q Q Q Q Q Q Q Q Q Q Q 3 m z 2 b b b b b b b b ",
"5 5 5 5 5 5 5 5 5 5 5 5 5 5 6 5 5 5 5 5 5 2 2 z z U z z 6 6 5 5 5 5 b E E E E E E E E E E E E E Q E E E 2 m c 2 6 5 5 5 5 5 5 5 ",
"E E E E E E E E E E E E E E E E E E E E E E 2 2 z z U z z E E E E 5 5 b E E E E E E E E E E E E E E E E 2 m z 2 5 E E E E E E E ",
"T T T T T T T T T T T T T T T T T T T T T T T 2 2 z z U z z T T T T 5 5 b T T T T T T T T T T T T T T T 2 v c 4 T T T T T T T T ",
"T T T T T T T T T T T T T T T T T T T T T T T T 2 2 c z U z c z T T T 5 5 b T T T T T T T T T T T T T 4 2 v c 4 T T T T T T T T ",
"T T T T T T T T T T T T T T T T T T T T T T T T T 4 4 z z U U c z z z z c z z c z z z z c z c z z c 2 4 v z z 4 T T T T T T T T ",
"T T T T T T T T T T T T T T T T T T T T T T T T T T 4 4 c c c U U U U U U U U U U U U U U U U U U U U v c c 4 4 T T T T T T T T ",
"I I I I I I I I D I I I I I I I D I I D I I I I I I I 4 4 4 c c c z c c c c c c c z c c z c c z c c c c c 4 4 I I D D I I D I D ",
"D D D D D D D D D D D D D D D D D D D D D D D D D D D D D 4 4 4 4 4 4 4 4 4 4 4 4 4 4 4 4 4 4 4 4 4 4 4 4 4 D D D D D D D D D D ",
"y.u.y.u.y.u.u.y.u.u.u.u.u.y.D D D D D D D D D D D D D D D D D D D D D D D D D D D D D D D D D D D D D D D D D D D D D D D u.u.u.",
"*.*.*.*.*.*.*.*.*.*.*.*.*.*.y.D D D D D D D D D D D D D D D D D D D D D D D D D D D D D D D D D D D D D D D D D D D D D D y.*.*.",
"*.*.*.*.*.*.*.*.*.*.*.*.*.*.*.y.n n n n n n n n n n n n n n n n n n n D n n n n n n n n n n D n D D n n n n n n n n n n n t.*.*.",
"*.*.*.*.*.*.*.*.*.*.*.*.*.*.*.*.t.t.t.t.t.t.t.t.t.t.t.t.t.t.t.t.t.t.t.t.t.t.t.t.t.t.t.t.t.t.t.t.t.t.t.t.t.t.t.t.t.t.t.t.t.*.*.*.",
"} *.*.} *.} *.*.} } } *.} *.} *.*.*.} *.} } } *.} *.} } *.*.*.*.*.*.*.*.} # } *.} } *.*.*.# } } *.} *.*.*.} } *.} *.*.} *.*.*.} ",
"} } } } } } } } } } } } } } } } } } } } } } } } } } } } } } } } } } } } } # } } } } } } $ } } } } } } } } } } } } } } } } } } } ",
"q q q q q q q q q q q q q q } } } } } } } } } } } } } } } } } } } } } } } $ $ q q q q # } } } } } } } q q q q q q q q q q q q q ",
"$ $ $ $ $ $ $ $ $ $ $ $ $ q q } } } } } } } } } } } } } } } } } } } } } } } } } } q } } } } } } } } q q $ $ $ $ $ $ $ $ $ $ $ $ ",
"| | | | | | | | | | | | | q q q } } } } } } } } } } } } } } } } } } } } } } } } } q { } } } } } } q q q | | | | | | | | | | | | ",
"' ' O O ' ' ' ' O O ' ' ' ' q q } } { { { } { { } { } { { { { { { { } } { { } { } q { { { { { { { q q ' ' ' O O ' ' ' ' O O ' ' ",
"` _ % % ` ` ` ` % % ` ` _ ` q q { { { { { { { { { { { { { { { { { { { { { { { { { q { { { { { { { q q ` ` ` % % _ ` ` ` % % ` _ ",
") ) % % ) ) ) ) % % ) ) ) ) w w [ [ { { { { { { { { [ { [ { [ [ [ [ [ { { { [ { [ w { { [ [ [ [ { 8 w ) ) ) % % ) ) ) ) % % ) ) ",
"( ( % % ( ( ( ( % % ( ( ( ( w w [ [ [ [ [ [ [ [ [ [ [ [ [ [ [ [ [ [ [ [ [ [ [ [ [ w [ [ [ [ [ [ [ 8 8 ( ( ( % % ( ( ( ( % % ( ( ",
"( ( % % + ( ( ( % % + ( ( ( w 8 [ [ [ [ [ [ [ [ [ [ [ [ [ [ [ [ [ [ [ [ [ [ [ [ [ w [ [ [ [ [ [ [ 8 w ( ( ( % % + ( ( ( % % + ( ",
"( ( % % % ( ( ( % % % ( ( ( w w [ ] [ [ [ [ ] [ ] ] ] ] ] [ [ [ ] ] [ w w 8 8 w w w w w w w w w w w 8 ( ( ( % % % ( ( ( % % % ( ",
"( ( ( & & ( ( ( ( & & ( ( ( 9 9 ] ^ ^ ^ ^ ] ^ ^ ^ ^ ^ ] ^ ] ^ ^ ^ ^ ^ 9 ^ ] ] ^ ] ^ ^ ^ ^ ^ ^ ^ ] 8 9 ( ( ( ( & & ( ( ( ( & & ( ",
"( ( ( & & ( ( ( ( & & ( ( ( 9 9 * * * * * * * * * * * * * * * * * * * 9 ^ ^ ^ ^ ^ ^ ^ ^ ^ ^ ^ ^ ^ 9 9 ( ( ( ( & & ( ( ( ( & & ( ",
"( ( ( & & / ( / ( & & ( / ( 9 9 ^ ^ ^ ^ ^ ^ ^ ^ ^ ^ ^ ^ ^ ^ ^ ^ ^ ^ ^ 9 ^ ^ ^ ^ ^ ^ ^ ^ ^ ^ ^ ^ ^ 9 9 / ( / / & & / ( / ( & & / "
};
