/* XPM */
static char *_1c06a769ab149cd8dc974d2d2793ef9t35gkUX4EGk0gZON[] = {
/* columns rows colors chars-per-pixel */
"64 64 151 2 ",
"   c #0F3335",
".  c #103637",
"X  c #103738",
"o  c #113C3D",
"O  c #122542",
"+  c #14264A",
"@  c #123E40",
"#  c #1D3757",
"$  c #1E365A",
"%  c #1C3565",
"&  c #1D346A",
"*  c #203466",
"=  c #134345",
"-  c #154748",
";  c #164B4D",
":  c #174F50",
">  c #1B4D54",
",  c #1E4C58",
"<  c #175153",
"1  c #185254",
"2  c #1A466F",
"3  c #19496E",
"4  c #1A4370",
"5  c #284F6D",
"6  c #28506D",
"7  c #315E6F",
"8  c #2F4676",
"9  c #2F4479",
"0  c #304676",
"q  c #304971",
"w  c #304578",
"e  c #315F70",
"r  c #23626D",
"t  c #316071",
"y  c #AB3F41",
"u  c #9C4B4D",
"i  c #974F51",
"p  c #984E50",
"a  c #955052",
"s  c #A54445",
"d  c #AA4042",
"f  c #A24648",
"g  c #A0484A",
"h  c #17BF5F",
"j  c #18BF5F",
"k  c #18BF60",
"l  c #13C553",
"z  c #15C259",
"x  c #15C358",
"c  c #15C25A",
"v  c #17C15D",
"b  c #17C05E",
"n  c #17C05F",
"m  c #0F5389",
"M  c #0F5889",
"N  c #10518A",
"B  c #115B8B",
"V  c #315E83",
"C  c #315F8A",
"Z  c #17628E",
"A  c #366385",
"S  c #356586",
"D  c #356486",
"F  c #356687",
"G  c #356787",
"H  c #366687",
"J  c #366385",
"K  c #356788",
"L  c #33648D",
"P  c #356988",
"I  c #356A89",
"U  c #356B89",
"Y  c #356D8A",
"T  c #346D8A",
"R  c #34688F",
"E  c #23679B",
"W  c #226B9B",
"Q  c #366D93",
"!  c #22709B",
"~  c #377196",
"^  c #37759A",
"/  c #39759A",
"(  c #3A799D",
")  c #3C7EA2",
"_  c #3F6CB5",
"`  c #4A5F94",
"'  c #4D6393",
"]  c #546B97",
"[  c #57719C",
"{  c #58719C",
"}  c #5D77A1",
"|  c #406FB6",
" . c #4172B7",
".. c #4276B8",
"X. c #447CBB",
"o. c #627DA6",
"O. c #3C81A4",
"+. c #3F96B4",
"@. c #3E97B4",
"#. c #3E96B5",
"$. c #3F96B5",
"%. c #3E97B5",
"&. c #3F97B5",
"*. c #3F97B4",
"=. c #3F96B6",
"-. c #3F97B6",
";. c #3E96B6",
":. c #4581BC",
">. c #4096B5",
",. c #4195B7",
"<. c #4095B6",
"1. c #4096B6",
"2. c #4096B7",
"3. c #4196B7",
"4. c #4195B8",
"5. c #4195B9",
"6. c #4295B8",
"7. c #4394B9",
"8. c #4295B9",
"9. c #4395B9",
"0. c #4294B9",
"q. c #4394BA",
"w. c #4394BA",
"e. c #4196B8",
"r. c #4494BA",
"t. c #4494BB",
"y. c #4593BD",
"u. c #5B9BC6",
"i. c #5C9FC8",
"p. c #5DA0C8",
"a. c #93CECF",
"s. c #94CDCF",
"d. c #94CED0",
"f. c #96CED0",
"g. c #99CFD1",
"h. c #99CFD2",
"j. c #9BD1D2",
"k. c #98D0D1",
"l. c #9DD1D3",
"z. c #9DD2D4",
"x. c #9ED2D4",
"c. c #A0D3D5",
"v. c #A2D3D6",
"b. c #A3D4D6",
"n. c #A2D4D5",
"m. c #A5D5D7",
"M. c #A6D5D7",
"N. c #A7D6D8",
"B. c #A9D7D9",
"V. c #AAD7D9",
"C. c #ABD9DA",
/* pixels */
"%.%.%.%.%.%.%.%.%.%.%.%.%.%.r %.%.%.%.%.%.%.%.%.%.%.%.%.%.%.%.%.%.%.%.%.%.%.%.%.%.%.%.%.%.%.%.%.%.%.%.%.%.%.%.%.%.%.%.%.%.%.%.%.",
"%.%.%.%.%.%.%.%.%.%.%.%.%.%.r %.%.%.%.%.%.%.%.%.%.%.%.%.%.%.%.%.%.%.%.%.%.%.%.%.%.%.%.%.%.%.%.%.%.%.%.%.%.%.%.%.%.%.%.%.%.%.%.%.",
"%.%.%.%.%.%.%.%.%.%.%.%.%.%.r %.%.%.1.%.%.%.%.%.%.%.%.%.%.%.%.%.%.%.%.%.%.%.%.%.%.%.%.%.%.%.%.%.%.%.%.%.%.1.1.%.%.%.%.%.1.%.1.1.",
"%.%.%.1.%.%.%.%.%.%.%.%.%.%.r %.%.%.%.1.%.%.%.%.%.%.%.1.1.%.%.1.%.%.%.%.%.%.1.%.%.%.%.1.%.%.%.%.%.%.1.%.%.%.%.%.%.%.%.%.%.%.%.%.",
"%.1.1.1.%.1.= = = = = = = = = = = = = = = = = = = = = = = = = - = = = = = = = = = = = = = = = = = = %.1.%.1.%.%.%.1.1.1.1.1.%.1.",
"1.1.1.1.1.= 1 1 1 1 1 1 1 1 1 1 1 1 1 1 1 1 1 1 1 1 1 1 1 1 1 1 1 1 1 1 1 1 1 1 1 1 1 1 1 1 1 1 < 1 = 1.1.1.%.1.1.1.1.1.1.1.1.1.",
"1.1.1.1.1.: < a a a i a i < Y Y Y < i a a 1 s.f.f.a.< b k h : f.f.1 a a a i < f.f.f.< a a : j b b < < 1.1.1.1.1.1.1.1.1.1.%.1.1.",
"1.1.4.1.1.: : i i i p i a < Y Y Y : i i i : f.h.k.f.: b b b < f.f.: i i a p : f.f.f.: i i : b b b : : 1.1.1.1.1.1.1.1.1.1.1.1.1.",
"4.1.4.1.4.; ; p p u i u u : = = = : p u u : = = = = ; b b b : = @ : = = = = ; h.h.h.; u u : = = = ; : 4.4.4.4.1.1.1.4.4.4.1.4.1.",
"1.1.4.4.4.: ; u u u u u u ; ; ; ; ; = @ = ; Y U U ; ; @ @ = ; ; ; ; ; ; ; ; ; = = = ; u u ; U U U ; ; 4.4.4.4.4.4.4.4.4.4.4.4.4.",
"4.4.4.4.4.; ; u u u u u u ; ; ; ; ; l.k.l.; U U U ; u u u u ; k.k.l.; ; ; ; ; ; ; ; ; @ @ ; U U U ; ; 4.4.4.4.4.4.1.4.4.4.1.4.4.",
"4.4.4.4.4.; - u u u u u u ; ; ; ; ; z.z.l.- U U U ; u u u u ; z.z.z.- x x ; u u u u - x x ; U U U ; - 4.4.4.4.4.4.4.4.4.4.4.4.4.",
"4.4.4.4.4.- - o o o o o o - - - - - o o o - o o o - o o o o - z.v.z.- x x - g u u g - x x - o o o - - 4.4.4.4.4.4.4.4.4.4.4.4.4.",
"4.4.4.4.r.- - - - - - x l l - f f f - f f - - - - - - - - - - v.b.v.- o o - o o o o - x l - G K U - - 4.4.4.4.4.4.4.4.4.4.r.4.4.",
"4.4.4.4.r.- = = = - - l l l - f f f - f f - - G G G G G G - = o X X = b.b.b.- - - - = l x - G G G = - 4.4.4.4.4.4.4.4.4.r.r.r.4.",
"4.4.4.4.r.= = = = = = l l l = f s s = s s = = G G G G G G = = = = = = M.M.M.= = = = = X X = G G G = = 4.r.4.4.4.4.4.4.4.r.4.r.r.",
"4.4.4.4.4.= = = = = = X X X = s s s = X X = = G G G G G G = = = = = = M.M.N.= = = = = s s = X X X = = r.4.4.4.4.4.4.4.r.4.r.4.4.",
"r.4.4.4.r.= = B.M.B.= l l l =   . X = l l = = G A G G A A = l l l = = X . . = d d s = d s = = = = = = r.4.4.4.r.r.r.r.4.r.4.4.r.",
"4.r.r.r.r.= = C.B.B.= l l l = d d d = l l = = A G A G A A = l l l = = d d d = d d d = d d = = = = = = y.r.r.y.y.4.r.r.y.r.r.y.t.",
"r.r.r.r.r.@ @ C.C.C.@ l l l @ y y y o l l = @ A A A A A A @ l l l @ = d d y @ d y y @ y y = @ @ @ @ @ r.r.r.y.y.r.r.r.r.r.r.y.y.",
"y.t.y.t.r.@ @       o       @       o     o o             o       @ @ . . . @ .     @     o o o o o o y.y.y.t.y.r.y.t.y.t.y.t.t.",
"t.t.t.y.t.y.o o o o o o o o @ o o o o o o o o o o o o o o o o o o o o o o o o o o o o o o o o o o o t.t.t.t.t.t.t.t.y.t.y.t.t.t.",
"t.t.t.t.t.t.y.t.t.t.t.t.t.t.t t.t.t.t.t.t.t.t.t.y.t.t.t.t.t.t.t.t.t.t.t.t.t.t.t.t.t.t.t.t.t.t.t.y.t.y.t.t.t.t.t.t.t.y.t.t.t.t.t.",
"t.t.t.t.t.t.t.t.t.t.t.t.y.t t , , , , , t.t.t.t.t.t.t.t.t.t.t.t.t.t.t.t.t.t.t.t.t.y.t.t.t.t.t.t.t.t.t.t.t.t.t.t.t.t.t.t.t.t.t.t.",
"t.t.t.t.t.t.t.t.t.t.t.t.e t.t.t.t.t.t., t.t.t.t.t.t.t.t.t.t.t.t.t.t.t.t.t.t.t.t.t.t.t.t.t.t.t.t.t.t.t.t.t.t.t.t.t.t.t.t.t.t.t.t.",
"t.t.t.t.t.t.t.t.t.t.t.7 t.t.t.t.t.t.t., t.t.t.t.t.t.t.t.t.t.t.t.t.t.t.t.t.t.t.t.t.t.t.t.t.t.t.t.t.t.t.t.t.t.t.t.t.t.t.t.t.t.t.t.",
"/ / / / / / / / ^ / / / / ^ / / / / / / / / / / / / / / / / / / / / / / / t.t.t.t.t.t.t.t.t.t.t.t.t./ / / / / / / / ^ / / / / / ",
"O.O.O.O.O.O.O.O.O.O.O.O.O.O.O.O.O.O.O.O.O.O.O.O.O.O.O.O.O.O.O.O.O.O.O.O.O.~ y.y.y.t.y.y.y.y.t.t.t./ O.O.O.O.O.O.O.O.O.O.O.O.O.O.",
"O.O.O.O.O.O.O.O.O.O.O.O.O.O.O.O.O.O.O.O.O.O.O.O.O.O.O.O.O.O.O.O.O.O.O.O.O.O./ y.y.y.y.y.t.t.u.t.t.~ O.O.O.O.O.O.O.O.O.O.O.O.O.O.",
"O.O.O.O.O.O.O.O.O.O.O.O.O.O.O.O.O.O.O.O.O.O.O.O.O.O.O.O.O.O.O.O.O.O.O.O.O.O.O.~ ~ ~ ~ ~ ~ ~ ~ ~ ~ ~ O.O.O.O.O.O.O.O.O.O.O.O.O.O.",
") O.O.O.O.O.O.O.O.O.O.O.O.O.O.O.O.O.O.O.O.O.O.) O.O.O.O.) O.O.O.O.O.O.O.O.O.O.O.O.O.O.O.O.) O.O.O.) O.O.O.O.O.O.O.O.O.O.O.O.O.O.",
"B B B M B B B B B M B B B B B M B B B B ) ) ) ) ) ) ) ) ) ) ) ) ) ) ) ) ) ) ) ) ) ) ) ) ) ) ) ) ) ) ) ) ) ) B B M M M B B B M B ",
"W ! ! ! W ! W ! ! W ! W W ! W W W W ! M M M ) ) ) ) ) ) ) ) ) ) ) ) ) ) ) ) ) ) ) ) ) ) ) ) ) ) ) ) ) ) ) 3 M W ! W ! W W ! ! W ",
"M M M M M M M M M M M M M M M M M M M W W M M ) ) ) ) ) ) ) ) ) ) ) ) ) ) ) ) ) ) ) ) ) ) ) ) ) ) ) ) ) 3 M Z M M M M M M M M M ",
"3 3 3 3 3 3 3 3 3 3 3 3 3 3 3 3 3 3 m M m W m M ( ( ( ( ( ( ( ( ( ( ( ( ( ( ( ( ( ( ( ( ( ( ( ( ( ( ( ( 3 Z m M 3 3 3 3 3 3 3 3 ",
"( ( ( ( ( ( ( ( ( ( ( ( ( ( ( ( ( 3 3 3 m m W m m ( ( ( ( ( ( ( ( ( ( ( ( ( ( ( ( ( ( ( ( ( ( ( ( ( ( ( 3 Z m 3 3 ( ( ( ( ( ( ( ",
"/ / / ( / / / / / / ( / / / ( / / ( / 3 3 m m W m m ( ( ( ( / / ( / / / / / ( ( / / / / / / ( ( / / / ( 3 Z m 3 / / / / / ( / / ",
"V V V V V V V V V V V V V V V V V V V V 2 3 m m W m m V V V V V V V / / / / / / / / / / / / / / / / / / 3 Z m 2 V V V V V V V V ",
"5 5 5 5 5 5 5 5 5 5 5 5 5 5 6 5 5 5 5 5 5 2 2 m m E m m 6 6 5 5 5 5 V ~ ~ ~ ~ ~ ~ ~ ~ ~ ~ ~ ~ ~ / ~ ~ ~ 2 Z N 2 6 5 5 5 5 5 5 5 ",
"~ ~ ~ ~ ~ ~ ~ ~ ~ ~ ~ ~ ~ ~ ~ ~ ~ ~ ~ ~ ~ ~ 2 2 m m E m m ~ ~ ~ ~ 5 5 V ~ ~ ~ ~ ~ ~ ~ ~ ~ ~ ~ ~ ~ ~ ~ ~ 2 Z m 2 5 ~ ~ ~ ~ ~ ~ ~ ",
"Q Q Q Q Q Q Q Q Q Q Q Q Q Q Q Q Q Q Q Q Q Q Q 2 2 m m E m m Q Q Q Q 5 5 V Q Q Q Q Q Q Q Q Q Q Q Q Q Q Q 2 B N 4 Q Q Q Q Q Q Q Q ",
"Q Q Q Q Q Q Q Q Q Q Q Q Q Q Q Q Q Q Q Q Q Q Q Q 2 2 N m E m N m Q Q Q 5 5 V Q Q Q Q Q Q Q Q Q Q Q Q Q 4 2 B N 4 Q Q Q Q Q Q Q Q ",
"Q Q Q Q Q Q Q Q Q Q Q Q Q Q Q Q Q Q Q Q Q Q Q Q Q 4 4 m m E E N m m m m N m m N m m m m N m N m m N 2 4 B m m 4 Q Q Q Q Q Q Q Q ",
"Q Q Q Q Q Q Q Q Q Q Q Q Q Q Q Q Q Q Q Q Q Q Q Q Q Q 4 4 N N N E E E E E E E E E E E E E E E E E E E E B N N 4 4 Q Q Q Q Q Q Q Q ",
"R R R R R R R R L R R R R R R R L R R L R R R R R R R 4 4 4 N N N m N N N N N N N m N N m N N m N N N N N 4 4 R R L L R R L R L ",
"L L L L L L L L L L L L L L L L L L L L L L L L L L L L L 4 4 4 4 4 4 4 4 4 4 4 4 4 4 4 4 4 4 4 4 4 4 4 4 4 L L L L L L L L L L ",
"i.p.i.p.i.p.p.i.p.p.p.p.p.i.L L L L L L L L L L L L L L L L L L L L L L L L L L L L L L L L L L L L L L L L L L L L L L L p.p.p.",
":.:.:.:.:.:.:.:.:.:.:.:.:.:.i.L L L L L L L L L L L L L L L L L L L L L L L L L L L L L L L L L L L L L L L L L L L L L L i.:.:.",
":.:.:.:.:.:.:.:.:.:.:.:.:.:.:.i.C C C C C C C C C C C C C C C C C C C L C C C C C C C C C C L C L L C C C C C C C C C C C u.:.:.",
":.:.:.:.:.:.:.:.:.:.:.:.:.:.:.:.u.u.u.u.u.u.u.u.u.u.u.u.u.u.u.u.u.u.u.u.u.u.u.u.u.u.u.u.u.u.u.u.u.u.u.u.u.u.u.u.u.u.u.u.u.:.:.:.",
"X.:.:.X.:.X.:.:.X.X.X.:.X.:.X.:.:.:.X.:.X.X.X.:.X.:.X.X.:.:.:.:.:.:.:.:.X.# X.:.X.X.:.:.:.# X.X.:.X.:.:.:.X.X.:.X.:.:.X.:.:.:.X.",
"X.X.X.X.X.X.X.X.X.X.X.X.X.X.X.X.X.X.X.X.X.X.X.X.X.X.X.X.X.X.X.X.X.X.X.X.X.# X.X.X.X.X.X.$ X.X.X.X.X.X.X.X.X.X.X.X.X.X.X.X.X.X.X.",
"q q q q q q q q q q q q q q X.X.X.X.X.X.X.X.X.X.X.X.X.X.X.X.X.X.X.X.X.X.X.$ $ q q q q # X.X.X.X.X.X.X.q q q q q q q q q q q q q ",
"$ $ $ $ $ $ $ $ $ $ $ $ $ q q X.X.X.X.X.X.X.X.X.X.X.X.X.X.X.X.X.X.X.X.X.X.X.X.X.X.q X.X.X.X.X.X.X.X.q q $ $ $ $ $ $ $ $ $ $ $ $ ",
"o.o.o.o.o.o.o.o.o.o.o.o.o.q q q X.X.X.X.X.X.X.X.X.X.X.X.X.X.X.X.X.X.X.X.X.X.X.X.X.q ..X.X.X.X.X.X.q q q o.o.o.o.o.o.o.o.o.o.o.o.",
"} } O O } } } } O O } } } } q q X.X.......X.....X...X...............X.X.....X...X.q ..............q q } } } O O } } } } O O } } ",
"{ [ % % { { { { % % { { [ { q q ..................................................q ..............q q { { { % % [ { { { % % { [ ",
"] ] % % ] ] ] ] % % ] ] ] ] w w  . ................. ... ... . . . . ....... ... .w .... . . . ...8 w ] ] ] % % ] ] ] ] % % ] ] ",
"' ' % % ' ' ' ' % % ' ' ' ' w w  . . . . . . . . . . . . . . . . . . . . . . . . .w  . . . . . . .8 8 ' ' ' % % ' ' ' ' % % ' ' ",
"' ' % % + ' ' ' % % + ' ' ' w 8  . . . . . . . . . . . . . . . . . . . . . . . . .w  . . . . . . .8 w ' ' ' % % + ' ' ' % % + ' ",
"' ' % % % ' ' ' % % % ' ' ' w w  .|  . . . .|  .| | | | |  . . .| |  .w w 8 8 w w w w w w w w w w w 8 ' ' ' % % % ' ' ' % % % ' ",
"' ' ' & & ' ' ' ' & & ' ' ' 9 9 | _ _ _ _ | _ _ _ _ _ | _ | _ _ _ _ _ 9 _ | | _ | _ _ _ _ _ _ _ | 8 9 ' ' ' ' & & ' ' ' ' & & ' ",
"' ' ' & & ' ' ' ' & & ' ' ' 9 9 * * * * * * * * * * * * * * * * * * * 9 _ _ _ _ _ _ _ _ _ _ _ _ _ 9 9 ' ' ' ' & & ' ' ' ' & & ' ",
"' ' ' & & ` ' ` ' & & ' ` ' 9 9 _ _ _ _ _ _ _ _ _ _ _ _ _ _ _ _ _ _ _ 9 _ _ _ _ _ _ _ _ _ _ _ _ _ 9 9 ` ' ` ` & & ` ' ` ' & & ` "
};
