/* XPM */
static char *_d12a3c4251943f98b209d26524cb2537B1LYN9ZpyCiU9aX[] = {
/* columns rows colors chars-per-pixel */
"64 64 151 2 ",
"   c #0F3335",
".  c #103637",
"X  c #103738",
"o  c #113C3D",
"O  c #122542",
"+  c #14264A",
"@  c #123E40",
"#  c #1D3757",
"$  c #1E365A",
"%  c #1C3565",
"&  c #1D346A",
"*  c #203466",
"=  c #134345",
"-  c #154748",
";  c #164B4D",
":  c #174F50",
">  c #1B4D54",
",  c #1E4C58",
"<  c #175153",
"1  c #185254",
"2  c #1A466F",
"3  c #19496E",
"4  c #1A4370",
"5  c #284F6D",
"6  c #28506D",
"7  c #315E6F",
"8  c #2F4676",
"9  c #2F4479",
"0  c #304676",
"q  c #304971",
"w  c #304578",
"e  c #315F70",
"r  c #23626D",
"t  c #316071",
"y  c #AC3F41",
"u  c #9C4B4D",
"i  c #964F51",
"p  c #984E50",
"a  c #955152",
"s  c #A54445",
"d  c #A94143",
"f  c #AA4042",
"g  c #AA4142",
"h  c #AA4041",
"j  c #A84244",
"k  c #A14749",
"l  c #A24648",
"z  c #A24748",
"x  c #A34648",
"c  c #A24649",
"v  c #A44548",
"b  c #A0484A",
"n  c #0F5389",
"m  c #0F5889",
"M  c #10518A",
"N  c #115B8B",
"B  c #315E83",
"V  c #315F8A",
"C  c #17628E",
"Z  c #33648D",
"A  c #356B89",
"S  c #356D8A",
"D  c #346E8B",
"F  c #34688F",
"G  c #23679B",
"H  c #226B9B",
"J  c #366D93",
"K  c #22709B",
"L  c #377196",
"P  c #37759A",
"I  c #39759A",
"U  c #3A799D",
"Y  c #3C7EA2",
"T  c #3F6CB5",
"R  c #4A5F94",
"E  c #4D6393",
"W  c #546B97",
"Q  c #57719C",
"!  c #58719C",
"~  c #5D77A1",
"^  c #406FB6",
"/  c #4172B7",
"(  c #4276B8",
")  c #447CBB",
"_  c #627DA6",
"`  c #3C81A4",
"'  c #3F96B4",
"]  c #3E97B4",
"[  c #3F97B4",
"{  c #3E96B5",
"}  c #3F96B5",
"|  c #3E97B5",
" . c #3F97B5",
".. c #3E96B4",
"X. c #3F96B6",
"o. c #3F97B6",
"O. c #3E96B6",
"+. c #4581BC",
"@. c #4096B5",
"#. c #4095B6",
"$. c #4095B7",
"%. c #4195B7",
"&. c #4096B6",
"*. c #4096B7",
"=. c #4196B7",
"-. c #4493BB",
";. c #4195B8",
":. c #4195B9",
">. c #4295B8",
",. c #4394B9",
"<. c #4295B9",
"1. c #4395B9",
"2. c #4294B9",
"3. c #4394BA",
"4. c #4395BA",
"5. c #4394BB",
"6. c #4294BA",
"7. c #4196B8",
"8. c #4494BA",
"9. c #4494BB",
"0. c #4693BD",
"q. c #5B9BC6",
"w. c #5C9FC8",
"e. c #5DA0C8",
"r. c #95CECF",
"t. c #94CED0",
"y. c #97CFD1",
"u. c #96CFD1",
"i. c #96CDD0",
"p. c #98CFD1",
"a. c #99CFD2",
"s. c #9ACFD2",
"d. c #99D0D2",
"f. c #9BD1D3",
"g. c #9BD0D2",
"h. c #99D0D1",
"j. c #9DD1D3",
"k. c #9DD2D3",
"l. c #9DD1D4",
"z. c #9ED2D4",
"x. c #A1D3D5",
"c. c #A2D3D5",
"v. c #A3D5D6",
"b. c #A4D5D6",
"n. c #A6D5D7",
"m. c #A7D6D8",
"M. c #A9D7D9",
"N. c #AAD7D9",
"B. c #AAD8D9",
"V. c #ABD8DA",
"C. c #ACD8DA",
/* pixels */
"| | | | | | | | | | | | | | r | | | | | | | | | | | | | | | | | | | | | | | | | | | | | | | | | | | | | | | | | | | | | | | | | ",
"| | | | | | | | | | | | | | r | | | | | | | | | | | | | | | | | | | | | | | | | | | | | | | | | | | | | | | | | | | | | | | | | ",
"| | | | | | | | | | | | | | r | | | &.| | | | | | | | | | | | | | | | | | | | | | | | | | | | | | | | | | &.&.| | | | | &.| &.&.",
"| | | &.| | | | | | | | | | r | | | | &.| | | | | | | &.&.| | &.| | | | | | &.| | | | &.| | | | | | &.| | | | | | | | | | | | | ",
"| &.&.&.| &.= = = = = = = = = = = = = = = = = = = = = = = = = - = = = = = = = = = = = = = = = = = = | &.| &.| | | &.&.&.&.&.| &.",
"&.&.&.&.&.= 1 1 1 1 1 1 1 1 1 1 1 1 1 1 1 1 1 1 1 1 1 1 1 1 1 1 1 1 1 1 1 1 1 1 1 1 1 1 1 1 1 1 < 1 = &.&.&.| &.&.&.&.&.&.&.&.&.",
"&.&.&.&.&.: < t.r.t.t.r.t.< a a a < S S S 1 a a a a < a a a : t.t.1 a a a i < i i i < a a : a a a < < &.&.&.&.&.&.&.&.&.&.| &.&.",
"&.&.;.&.&.: : t.t.t.a.t.t.< i i p : S S S : i p p i : i i i < t.t.: i i a p : i a i : i i : p i i : : &.&.&.&.&.&.&.&.&.&.&.&.&.",
";.&.;.&.;.; ; a.a.f.t.a.a.: = = = : S S A : = = = = ; p u u : = @ : = = = = ; p u p ; u u : = = = ; : ;.;.;.;.&.&.&.;.;.;.&.;.&.",
"&.&.;.;.;.: ; f.f.a.f.f.f.; ; ; ; ; = @ = ; u u u ; ; @ @ = ; ; ; ; ; ; ; ; ; = = = ; u u ; u u u ; ; ;.;.;.;.;.;.;.;.;.;.;.;.;.",
";.;.;.;.;.; ; j.j.f.f.f.f.; ; ; ; ; u u u ; u u u ; u u u u ; u u u ; ; ; ; ; ; ; ; ; @ @ ; u u u ; ; ;.;.;.;.;.;.&.;.;.;.&.;.;.",
";.;.;.;.;.; - l.j.j.l.l.l.; - ; ; ; u u u - u u u ; u u u u ; u u u - u u ; u u u u - u u ; u u u ; - ;.;.;.;.;.;.;.;.;.;.;.;.;.",
";.;.;.;.;.- - o o o o o o - - - - - o o o - o o o - o o o o - u b u - u b - b u u b - u x - o o o - - ;.;.;.;.;.;.;.;.;.;.;.;.;.",
";.;.;.;.8.- - - - - - u x x - x x x - x x - - - - - - - - - - x x b - o o - o o o o - x x - c.c.c.- - ;.;.;.;.;.;.;.;.;.;.8.;.;.",
";.;.;.;.8.- = = = - - x x x - v v x - x v - - v x s x v v - = o X X = x x v - - - - = v v - v.c.n.= - ;.;.;.;.;.;.;.;.;.8.8.8.;.",
";.;.;.;.8.= = = = = = s s s = v s s = s s = = s s x s s s = = = = = = s s s = = = = = X X = n.n.n.= = ;.8.;.;.;.;.;.;.;.8.;.8.8.",
";.;.;.;.;.= = = = = = X X X = s s s = X X = = s s s s s s = = = = = = s s s = = = = = s s = X X X = = 8.;.;.;.;.;.;.;.8.;.8.;.;.",
"8.;.;.;.8.= = f s f = j f f =   . X = s s = = s f s s f s = N.N.N.= = X X . = N.N.m.= f j = = = = = = 8.;.;.;.8.8.8.8.;.8.;.;.8.",
";.8.8.8.8.= = f f f = f f f = N.N.B.= f f = = f f f f f f = B.N.N.= = f f f = N.B.N.= f f = = = = = = 8.8.8.0.0.;.8.8.0.8.8.0.-.",
"0.8.8.8.8.@ @ y f f @ y y y @ B.B.C.o f y = @ f f y y f y @ B.B.C.@ = f f y @ B.C.B.@ y y = @ @ @ @ @ 8.8.8.0.0.8.8.8.8.8.8.0.0.",
"0.-.0.-.8.@ @       o       @       o     o o             o       @ @ . . . @ .     @     o o o o o o 0.0.0.-.0.8.0.-.0.-.0.-.-.",
"-.-.-.0.-.0.o o o o o o o o @ o o o o o o o o o o o o o o o o o o o o o o o o o o o o o o o o o o o -.-.-.-.-.-.-.-.0.-.0.-.-.-.",
"-.-.-.-.-.-.0.-.-.-.-.-.-.-.t -.-.-.-.-.-.-.-.-.0.-.-.-.-.-.-.-.-.0.-.-.-.-.-.-.-.-.-.-.-.-.-.-.0.-.0.-.-.-.-.-.-.-.0.-.-.-.-.-.",
"-.-.-.-.-.-.-.-.-.-.-.-.0.t t , , , , , -.-.-.-.-.-.-.-.-.-.-.-.-.-.-.-.-.-.-.-.-.0.-.-.-.-.-.-.-.-.-.-.-.-.-.-.-.-.-.-.-.-.-.-.",
"-.-.-.-.-.-.-.-.-.-.-.-.e -.-.-.-.-.-., -.-.-.-.-.-.-.-.-.-.-.-.-.-.-.-.-.-.-.-.-.-.-.-.-.-.-.-.-.-.-.-.-.-.-.-.-.-.-.-.-.-.-.-.",
"-.-.-.-.-.-.-.-.-.-.-.7 -.-.-.-.-.-.-., -.-.-.-.-.-.-.-.-.-.-.-.-.-.-.-.-.-.-.-.-.-.-.-.-.-.-.-.-.-.-.-.-.-.-.-.-.-.-.-.-.-.-.-.",
"I I I I I I I I P I I I I P I I I I I I I I I I I I I I I I I I I I I I I -.-.-.-.-.-.-.-.-.-.-.-.-.I I I I I I I I P I I I I I ",
"` ` ` ` ` ` ` ` ` ` ` ` ` ` ` ` ` ` ` ` ` ` ` ` ` ` ` ` ` ` ` ` ` ` ` ` ` L 0.0.0.-.0.0.0.0.-.-.-.I ` ` ` ` ` ` ` ` ` ` ` ` ` ` ",
"` ` ` ` ` ` ` ` ` ` ` ` ` ` ` ` ` ` ` ` ` ` ` ` ` ` ` ` ` ` ` ` ` ` ` ` ` ` I 0.0.0.0.0.-.-.q.-.-.L ` ` ` ` ` ` ` ` ` ` ` ` ` ` ",
"` ` ` ` ` ` ` ` ` ` ` ` ` ` ` ` ` ` ` ` ` ` ` ` ` ` ` ` ` ` ` ` ` ` ` ` ` ` ` L L L L L L L L L L L ` ` ` ` ` ` ` ` ` ` ` ` ` ` ",
"Y ` ` ` ` ` ` ` ` ` ` ` ` ` ` ` ` ` ` ` ` ` ` Y ` ` ` ` Y ` ` ` ` ` ` ` ` ` ` ` ` ` ` ` ` Y ` ` ` Y ` ` ` ` ` ` ` ` ` ` ` ` ` ` ",
"N N N m N N N N N m N N N N N m N N N N Y Y Y Y Y Y Y Y Y Y Y Y Y Y Y Y Y Y Y Y Y Y Y Y Y Y Y Y Y Y Y Y Y Y N N m m m N N N m N ",
"H K K K H K H K K H K H H K H H H H K m m m Y Y Y Y Y Y Y Y Y Y Y Y Y Y Y Y Y Y Y Y Y Y Y Y Y Y Y Y Y Y Y 3 m H K H K H H K K H ",
"m m m m m m m m m m m m m m m m m m m H H m m Y Y Y Y Y Y Y Y Y Y Y Y Y Y Y Y Y Y Y Y Y Y Y Y Y Y Y Y Y 3 m C m m m m m m m m m ",
"3 3 3 3 3 3 3 3 3 3 3 3 3 3 3 3 3 3 n m n H n m U U U U U U U U U U U U U U U U U U U U U U U U U U U U 3 C n m 3 3 3 3 3 3 3 3 ",
"U U U U U U U U U U U U U U U U U 3 3 3 n n H n n U U U U U U U U U U U U U U U U U U U U U U U U U U U 3 C n 3 3 U U U U U U U ",
"I I I U I I I I I I U I I I U I I U I 3 3 n n H n n U U U U I I U I I I I I U U I I I I I I U U I I I U 3 C n 3 I I I I I U I I ",
"B B B B B B B B B B B B B B B B B B B B 2 3 n n H n n B B B B B B B I I I I I I I I I I I I I I I I I I 3 C n 2 B B B B B B B B ",
"5 5 5 5 5 5 5 5 5 5 5 5 5 5 6 5 5 5 5 5 5 2 2 n n G n n 6 6 5 5 5 5 B L L L L L L L L L L L L L I L L L 2 C M 2 6 5 5 5 5 5 5 5 ",
"L L L L L L L L L L L L L L L L L L L L L L 2 2 n n G n n L L L L 5 5 B L L L L L L L L L L L L L L L L 2 C n 2 5 L L L L L L L ",
"J J J J J J J J J J J J J J J J J J J J J J J 2 2 n n G n n J J J J 5 5 B J J J J J J J J J J J J J J J 2 N M 4 J J J J J J J J ",
"J J J J J J J J J J J J J J J J J J J J J J J J 2 2 M n G n M n J J J 5 5 B J J J J J J J J J J J J J 4 2 N M 4 J J J J J J J J ",
"J J J J J J J J J J J J J J J J J J J J J J J J J 4 4 n n G G M n n n n M n n M n n n n M n M n n M 2 4 N n n 4 J J J J J J J J ",
"J J J J J J J J J J J J J J J J J J J J J J J J J J 4 4 M M M G G G G G G G G G G G G G G G G G G G G N M M 4 4 J J J J J J J J ",
"F F F F F F F F Z F F F F F F F Z F F Z F F F F F F F 4 4 4 M M M n M M M M M M M n M M n M M n M M M M M 4 4 F F Z Z F F Z F Z ",
"Z Z Z Z Z Z Z Z Z Z Z Z Z Z Z Z Z Z Z Z Z Z Z Z Z Z Z Z Z 4 4 4 4 4 4 4 4 4 4 4 4 4 4 4 4 4 4 4 4 4 4 4 4 4 Z Z Z Z Z Z Z Z Z Z ",
"w.e.w.e.w.e.e.w.e.e.e.e.e.w.Z Z Z Z Z Z Z Z Z Z Z Z Z Z Z Z Z Z Z Z Z Z Z Z Z Z Z Z Z Z Z Z Z Z Z Z Z Z Z Z Z Z Z Z Z Z Z e.e.e.",
"+.+.+.+.+.+.+.+.+.+.+.+.+.+.w.Z Z Z Z Z Z Z Z Z Z Z Z Z Z Z Z Z Z Z Z Z Z Z Z Z Z Z Z Z Z Z Z Z Z Z Z Z Z Z Z Z Z Z Z Z Z w.+.+.",
"+.+.+.+.+.+.+.+.+.+.+.+.+.+.+.w.V V V V V V V V V V V V V V V V V V V Z V V V V V V V V V V Z V Z Z V V V V V V V V V V V q.+.+.",
"+.+.+.+.+.+.+.+.+.+.+.+.+.+.+.+.q.q.q.q.q.q.q.q.q.q.q.q.q.q.q.q.q.q.q.q.q.q.q.q.q.q.q.q.q.q.q.q.q.q.q.q.q.q.q.q.q.q.q.q.q.+.+.+.",
") +.+.) +.) +.+.) ) ) +.) +.) +.+.+.) +.) ) ) +.) +.) ) +.+.+.+.+.+.+.+.) # ) +.) ) +.+.+.# ) ) +.) +.+.+.) ) +.) +.+.) +.+.+.) ",
") ) ) ) ) ) ) ) ) ) ) ) ) ) ) ) ) ) ) ) ) ) ) ) ) ) ) ) ) ) ) ) ) ) ) ) ) # ) ) ) ) ) ) $ ) ) ) ) ) ) ) ) ) ) ) ) ) ) ) ) ) ) ) ",
"q q q q q q q q q q q q q q ) ) ) ) ) ) ) ) ) ) ) ) ) ) ) ) ) ) ) ) ) ) ) $ $ q q q q # ) ) ) ) ) ) ) q q q q q q q q q q q q q ",
"$ $ $ $ $ $ $ $ $ $ $ $ $ q q ) ) ) ) ) ) ) ) ) ) ) ) ) ) ) ) ) ) ) ) ) ) ) ) ) ) q ) ) ) ) ) ) ) ) q q $ $ $ $ $ $ $ $ $ $ $ $ ",
"_ _ _ _ _ _ _ _ _ _ _ _ _ q q q ) ) ) ) ) ) ) ) ) ) ) ) ) ) ) ) ) ) ) ) ) ) ) ) ) q ( ) ) ) ) ) ) q q q _ _ _ _ _ _ _ _ _ _ _ _ ",
"~ ~ O O ~ ~ ~ ~ O O ~ ~ ~ ~ q q ) ) ( ( ( ) ( ( ) ( ) ( ( ( ( ( ( ( ) ) ( ( ) ( ) q ( ( ( ( ( ( ( q q ~ ~ ~ O O ~ ~ ~ ~ O O ~ ~ ",
"! Q % % ! ! ! ! % % ! ! Q ! q q ( ( ( ( ( ( ( ( ( ( ( ( ( ( ( ( ( ( ( ( ( ( ( ( ( q ( ( ( ( ( ( ( q q ! ! ! % % Q ! ! ! % % ! Q ",
"W W % % W W W W % % W W W W w w / / ( ( ( ( ( ( ( ( / ( / ( / / / / / ( ( ( / ( / w ( ( / / / / ( 8 w W W W % % W W W W % % W W ",
"E E % % E E E E % % E E E E w w / / / / / / / / / / / / / / / / / / / / / / / / / w / / / / / / / 8 8 E E E % % E E E E % % E E ",
"E E % % + E E E % % + E E E w 8 / / / / / / / / / / / / / / / / / / / / / / / / / w / / / / / / / 8 w E E E % % + E E E % % + E ",
"E E % % % E E E % % % E E E w w / ^ / / / / ^ / ^ ^ ^ ^ ^ / / / ^ ^ / w w 8 8 w w w w w w w w w w w 8 E E E % % % E E E % % % E ",
"E E E & & E E E E & & E E E 9 9 ^ T T T T ^ T T T T T ^ T ^ T T T T T 9 T ^ ^ T ^ T T T T T T T ^ 8 9 E E E E & & E E E E & & E ",
"E E E & & E E E E & & E E E 9 9 * * * * * * * * * * * * * * * * * * * 9 T T T T T T T T T T T T T 9 9 E E E E & & E E E E & & E ",
"E E E & & R E R E & & E R E 9 9 T T T T T T T T T T T T T T T T T T T 9 T T T T T T T T T T T T T 9 9 R E R R & & R E R E & & R "
};
