/* XPM */
static char *result[] = {
/* columns rows colors chars-per-pixel */
"64 64 119 2 ",
"   c #7B4E22",
".  c #7E5324",
"X  c #835324",
"o  c #8C5525",
"O  c #865E2D",
"+  c #895F2F",
"@  c #905725",
"#  c #945926",
"$  c #9A5B27",
"%  c #9E5D28",
"&  c #A25F29",
"*  c #AD5D28",
"=  c #BB572E",
"-  c #B25D2A",
";  c #BF5231",
":  c #86602D",
">  c #89642E",
",  c #8A6331",
"<  c #8D6B32",
"1  c #906E35",
"2  c #936E3A",
"3  c #937336",
"4  c #967739",
"5  c #9A753F",
"6  c #97793A",
"7  c #9A7D3C",
"8  c #A4612A",
"9  c #A9622A",
"0  c #B4612A",
"q  c #BB652C",
"w  c #AC6C33",
"e  c #B27136",
"r  c #B1753A",
"t  c #B8783C",
"y  c #C05532",
"u  c #C15A34",
"i  c #C0672D",
"p  c #C4692E",
"a  c #C76C3C",
"s  c #C9733F",
"d  c #D57333",
"f  c #D87534",
"g  c #D97A37",
"h  c #D97D39",
"j  c #9B7942",
"k  c #A37F48",
"l  c #B77D41",
"z  c #BE7F42",
"x  c #CA7A41",
"c  c #9D823E",
"v  c #DA833B",
"b  c #DB8A3F",
"n  c #A18346",
"m  c #A4834A",
"M  c #BD8546",
"N  c #AC8A50",
"B  c #B69456",
"V  c #B99254",
"C  c #B49558",
"Z  c #B79E5B",
"A  c #CE8646",
"S  c #CF8A47",
"D  c #C48748",
"F  c #C38C4C",
"G  c #C98E4D",
"H  c #DD9343",
"J  c #DE9B46",
"K  c #D4954C",
"L  c #CC9553",
"P  c #C19B5B",
"I  c #CF9B58",
"U  c #D59D59",
"Y  c #DFA24A",
"T  c #D6A35E",
"R  c #DBA45E",
"E  c #E0A64C",
"W  c #E0A94E",
"Q  c #E2AE51",
"!  c #F1A758",
"~  c #F3AB5C",
"^  c #E3B454",
"/  c #E3BA56",
"(  c #F4B05F",
")  c #C8A563",
"_  c #DCAA64",
"`  c #D0AE6A",
"'  c #CDB96F",
"]  c #D8B872",
"[  c #E2AC64",
"{  c #E5B36A",
"}  c #EDB96E",
"|  c #F6B463",
" . c #F8BA67",
".. c #F9BD6A",
"X. c #EFBD71",
"o. c #FBC16E",
"O. c #EFC276",
"+. c #E0C179",
"@. c #F0C276",
"#. c #FCC571",
"$. c #FECD76",
"%. c #F0C579",
"&. c #F2CA7D",
"*. c #FED077",
"=. c #FDD478",
"-. c #FBD97A",
";. c #E7CB81",
":. c #F3CE81",
">. c #E3D584",
",. c #EFD588",
"<. c #F3D285",
"1. c #F4D688",
"2. c #F5DB8D",
"3. c #F6DF90",
"4. c #F7E494",
"5. c #F7EF99",
"6. c #F8ED9B",
"7. c #F7F196",
"8. c #F7F098",
/* pixels */
"-.-.-.-.-.-.-.7./ / / / / / / / / c -.-.-.-.-.-.-.-.-.-.-.-.-.-.-.-.-.-.-.-.7./ / / / c -.-.-.-.-.-.-.-.-.-.-.-.-.-.-.-.-.-.-.-.",
"-.-.-.-.-.-.-.7./ / / / / / / / / 7 -.-.-.-.-.-.-.-.-.-.-.-.-.-.-.-.-.-.-.-.7./ / ^ / c -.-.-.-.-.-.-.-.-.-.-.-.-.-.-.-.-.-.-.-.",
"-.-.-.-.-.-.-.7./ / ^ / ^ / ^ ^ / 6 -.-.-.-.-.-.-.-.-.-.-.-.-.-.-.-.-.-.-.-.7./ ^ ^ ^ 7 -.-.-.-.-.-.-.-.-.-.-.-.-.-.-.-.-.-.-.-.",
"-.-.-.-.=.-.-.7./ / Q ^ ^ ^ Q ^ ^ 6 -.-.-.-.-.-.-.-.-.-.-.-.-.=.-.-.-.-.-.-.7./ ^ ^ ^ 7 -.-.-.-.-.-.-.-.-.-.-.-.-.-.-.-.-.-.-.-.",
"-.-.-.-.-.-.-.7.Q Q Q Q W ^ Q Q Q 6 -.-.-.-.-.-.-.-.-.-.-.-.-.-.-.-.-.-.-.-.7./ ^ ^ ^ 4 6 6 6 6 c c 4 4 -.-.-.-.-.-.-.-.-.-.-.-.",
"-.-.-.=.-.-.-.7.Q Q Q Q Q W W Q Q 6 -.-.-.-.-.-.-.-.-.-.-.-.-.-.-.-.-.-.-.-.7.Y Y ^ W 4 -.-.-.-.-.-.-.4 -.-.-.=.-.-.-.-.-.-.-.-.",
"-.-.-.-.=.-.-.7.K K K K K K K K K 3 -.=.=.=.-.-.-.-.-.-.-.-.=.-.=.=.-.-.-.-.7.Y ^ R Y 3 -.-.-.=.-.-.-.3 -.-.-.-.-.=.-.-.-.-.-.-.",
"-.-.=.-.=.-.=.7.K K K K K K K K K 3 =.-.=.-.=.-.-.-.-.-.-.-.-.=.=.-.=.-.=.-.7.^ Y Y Y 3 -.*.*.-.-.-.-.< -.-.=.-.=.-.-.-.-.-.-.-.",
"-.=.=.-.-.=.=.8.Y Y E Y Y Y Y Y Y Y 3 -.-.-.-.=.-.-.-.*.=.=.-.=.-.-.=.-.-.=.8.Y Y Y Y 3 -.-.*.-.=.-.=.3 -.=.=.-.-.=.-.=.-.-.-.=.",
"=.-.=.-.=.-.=.8.Y Y J E Y Y Y Y Y Y J 1 =.=.=.=.-.*.-.-.-.-.=.=.=.=.=.=.-.=.8.S S S S 3 =.-.-.=.=.=.-.1 =.-.=.=.=.-.=.-.=.=.-.=.",
"=.=.=.=.=.=.=.8.J J J J J J J J J J J J < =.-.-.*.*.*.-.=.=.=.-.-.*.-.=.=.=.8.A A A A < -.*.*.-.-.=.=.< =.-.=.=.=.-.=.=.=.-.=.=.",
"-.=.=.=.-.=.=.5.J J J J J J J J J J J J J < =.=.-.-.-.*.=.-.-.=.-.=.-.=.=.=.5.J J J J < *.-.-.*.=.-.=.< -.=.=.=.=.=.=.=.=.=.=.=.",
"=.=.=.=.=.*.=.5.H H H H H H H H H x x x x x < =.*.*.-.*.=.*.=.=.=.*.=.=.=.=.5.x x x h < -.*.*.-.=.=.=.> =.=.=.=.=.=.=.=.=.=.=.=.",
"=.=.=.=.=.=.=.5.H H H H H H H H x x x x x x x : *.-.-.*.=.*.=.=.=.=.*.=.=.=.5.x x x s < *.-.*.-.=.=.=.> =.=.=.=.=.=.=.=.=.=.=.=.",
"> < n Z ' >.5.8.s s s s s s s s s s s s s s a x > *.*.*.-.=.=.*.*.*.=.=.*.=.8.s x s s : *.*.*.*.=.*.=.> > > > > > > > > > > > > ",
"$.=.*.=.=.=.=.8.a a s a s a a s s a a b b b b b H : -.*.*.$.=.=.=.=.=.*.*.=.5.b A b b : *.-.*.-.*.=.=.=.*.=.*.=.*.*.=.*.=.*.=.*.",
"=.=.*.*.*.*.=.6.x a u x u x x a u x b v b b v b v b + *.*.*.*.=.*.*.=.*.*.*.5.b v b b O =.=.=.=.=.=.*.=.=.$.=.*.-.*.&.=.=.=.=.=.",
"=.*.*.=.=.=.*.6.v v v v h h v v h h v b h v v v v A v O *.=.=.=.*.*.*.=.&.*.5.b v v v O $.=.$.$.*.*.*.*.=.$.$.*.*.*.=.*.=.$.=.$.",
"*.*.*.*.*.*.*.6.v h h h h h h v h h h v v v h v v h h O *.*.=.*.*.*.=.*.*.=.6.h h v h O =.$.$.=.*.*.*.=.=.=.$.=.*.*.=.=.=.*.*.*.",
"*.*.*.*.*.*.*.6.h h h h h h h h h h h h h x h h v h h O *.*.*.*.*.*.*.*.*.*.6.h h h h O $.=.*.*.*.*.*.*.*.*.*.=.*.*.*.*.*.*.*.*.",
"$.*.$.*.*.*.*.6.h h h h h h h x h g h h h h h h g g h . *.$.*.$.*.*.*.*.*.*.6.g h h h . $.:.*.*.*.*.*.$.=.$.$.$.$.=.=.$.*.*.*.$.",
"*.*.*.*.*.*.*.6.u u u u u u u u u u u u u u h g g g h . *.*.*.*.*.*.*.*.*.*.6.g g g h h . $.*.*.*.*.$.=.*.$.$.=.$.$.$.$.*.$.*.*.",
"$.$.*.$.*.$.*.6.y y u y u u ; u y u y u u y y g g f g . $.$.:.*.*., 2 j m 6.6.g g g g g g . $.$.$.$.*.$.$.=.$.$.$.=.$.$.*.*.$.$.",
"$.$.$.$.$.*.&.6.y y y y y y ; ; y y y y y y y y g f g . $.$.$.$.$., $.$.$.*.6.f f g f f g g   $.$.$.$.$.$.$.$.$.$.$.$.$.$.$.$.$.",
"*.$.$.$.$.$.$.6.y ; ; ; ; ; ; ; y y y y ; ; y ; d f f   $.$.$.$.&.+ $.$.$.$.6.f f f f f f f f   $.$.$.*.$.$.$.$.$.$.$.$.$.$.$.$.",
"$.$.$.$.$.$.$.6.f f f g f f f f f f f y ; ; ; ; d d f   $.$.$.$.*.+ $.$.$.$.6.f f f f f f f f f   $.$.*.$.$.$.$.$.$.$.*.$.$.$.$.",
"$.$.$.$.$.$.:.6.f f f f f f f f f f f f ; ; ; ; y d f   $.$.$.$.$.+ $.$.$.$.6.g f f f f f f f f f   $.:.$.$.$.$.$.$.$.*.:.$.$.$.",
"$.$.$.$.$.$.$.6.f f f f f f f f f f f f ; ; ; ; ; y y   $.$.$.:.$.+ $.*.$.$.6.; ; ; ; ; ; ; ; ; ; ;   $.$.$.$.:.$.$.$.:.*.$.$.$.",
":.*.$.$.$.$.$.6.f f f f f f f f f f f f y y ; ; ; ; ;   ..$.$.$.$.+ $.$.$.$.$.6.y ; ; ; ; ; ; ; ; ; ;   $.$.$.$.$.$.$.$.*.$.$.$.",
"$.$.$.$.$.$.$.6.f f f f f f f f f f f f d y y y ; ; ;   $.$.$.$.$.+ $.$.:.$.$.$.6.y ; ; ; ; ; ; ; ; ; ;   $.$.$.$.$.$.*.$.$.$.$.",
"*.$.$.$.:.$.*.6.f f f f f f f f f f f f d f y y ; y ;   $.:.#.$.$.+ *.$.$.$.$.$.$.6.; ; ; ; ; ; ; ; ; ; ;   $.$.$.$.:.*.$.$.$.$.",
"$.$.$.$.*.$.$.6.f f f f f f f f f f f f d f d f d d d   $.$.$.$.$.+ :.$.$.$.$.$.$.$.6.f f f f f f f f f f g   $.$.$.$.$.$.$.$.$.",
"$.$.$.$.*.$.*.6.f f f f f f f f f f d d f f d d f f d   $.$.$.$.$.+ $.$.$.$.$.$.$.$.$.6.f f d f f f f y y y ;   ..:.$.$.$.:.$.$.",
"$.$.$.$.$.$.$.5.f f f f f f f f f f f d f f f d f f d   $.$.$.$.$.+ $.$.$.$.$.$.$.$.$.$.6.f d d f f y y y y ;   $.$.$.$.$.$.$.$.",
"$.$.$.$.$.$.$.5.f f f f f f f f f f ; ; y y y y y y =   $.$.$.$.$.+ &.$.$.$.$.$.$.$.$.$.$.6.; ; ; ; y y y d d   $.$.$.$.$.$.$.$.",
"$.$.$.$.$.$.$.$.4.f f f f f f d d y ; ; y y y y y y y   .   . . . , 2 j k N C $.$.$.$.$.$.$.6.; ; ; y y f f d   ..:.$.#.$.$.$.$.",
"#.$.$.#.#.$.#.#.#.4.y y y y y y y ; y ; f f f f d f f X $.#.$.#.$.$.$.#.$.$.B #.#.$.#.#.$.#.$.4.d d f f f f d X #.$.#.$.#.#.$.#.",
"#.#.$.#.$.#.#.$.#.$.4.y y y y y y y y d f f f f d f d X #.$.#.$.#.#.#.$.#.#.B $.$.#.#.$.#.$.#.$.3.d f f f f d X #.#.$.#.#.$.$.#.",
"#.#.#.#.#.$.#.$.#.#.#.4.f f f f f f f f f f f f f d d X #.#.#.#.#.#.#.#.#.#.B #.#.$.$.#.#.#.$.#.X.4.x f f f f X #.$.$.#.#.#.#.#.",
"#.#.#.#.o.#.#.#.#.#.#.#.3.f f f f f f f d f f f f d d X #.#.#.#.#.#.#.#.#.#.B #.#.#.X.#.#.#.#.#...$.3.f f f f o #.#.#.#.#.#.#.#.",
"#.#.#.#...#.#...o.o.#.#.#.3.f f f f f f f f f f d f f X o.o.o.#.#.#.#.#.#.#.V ..#.#...#.#.#.#.#.#.o.4.f f f f X X.#.#.#.#.#.#.#.",
"#...#.#.#.#.#.#.o.o.o.o.o.#.3.d f d d d d f f f d d f X o.o.o.o.#.....#.#.#.V #.#.#.#.#.#.....#.o.o.3.f f f f o ..#...#.#.....#.",
"....#...#.....#.o.o.o.o.o.o.o.2.d d d p d d d d d d d X o.o.o.o...#.#...#...V P ) ] ] +.,.,.3.3.3.3.2.y ; = ; X #.#...#...#...#.",
"#.....#...#.....o.o.o.o.o.o.o.2.y y y y ; y y y = = = o o.o.o.o.....#.X.....#...X...............o.o.2.y = = ; X ....#.......#...",
"............#...o.o.o. .o.o.o.2.= = = = = = = = = = = o o.........#.............................o. .2.= = = = o ................",
"................ .o. .o. . .o.1.= - = = = = = = = = = o  .o..................................... .o.1.= = ; = X ..........#.....",
"...... .........o. .o. . . . .1.= - = = - = = * - = = o ........................................ .o.1.p p p p @ ................",
"X............... . . . . .o.( $.q q i i i i i = i i i @ .. ... ..... ........................... . .1.q i i i # ................",
".... . . . . . . . . . . . . .<.q q q q q q q q q q q #  . . . . ... ... . . . . . . . . . . ... . .<.q q q q # .... . . . . . .",
" . . . . . . . . . . . . . . .<.q q q q q q q q q q q #  . . . . . .| .. . . ... . . ... . . . . . .-.q q q q #  . . . . . . . .",
"|  .|  . .|  .|  . . . . . . .:.0 q 0 0 0 q 0 0 0 q 0 # |  . . .| |  .| |  . .| |  . .| |  . .| |  .:.0 0 0 0 # | ..|  .|  .|  .",
"|  .| |  .| |  .| | | | | | | :.0 0 0 0 0 0 0 0 0 0 0 #  .| | | |  .|  .| | | | | |  .| | | | | | | :.0 0 0 0 # | | |  .|  .| | ",
"| | | | | | | | | | | | | | | :.- * - 0 0 - - * 0 * 0 $ ( | | | | | | | | | | | | | | | | | | | | | &.* 0 - 0 $ | | | | | | | | ",
"| | | | | | | | | | | | | | ( :.* * * - * * * * 0 * * # | | | | | | | | | | | | | | | | | | | | | | &.* * * * $ | | | | | | | | ",
"| | ( | | | ( ( | ( | ( ( | ( %.* * * * * * * * * * * $ ( ( | | | | | | | | | | | | | | | | ~ | | | %.* * * * $ | ( | ( ( | | | ",
"( ( ( ( ( ( ( | | ( ( | ( ( | %.& * * * * * * * * * * $ ( | ( ( ~ | ~ | ~ | ~ | ~ | ~ | ~ | | | | | %.* * * * $ ( ( ( | ( ( ( ( ",
"% 9 w l l x A L U R [ { } %.%.%.* * * * * * * * * * * % | ~ ~ | | ~ | ~ | | ( ( | ~ | | ( ( ( ( ( | %.* * * * % % % % & % % % % ",
"( ~ ( ~ ( ( ( ( ~ ~ ( ( ~ ~ ~ %.* * & * * * * * * * * % ~ | ~ ( | ~ ( ~ ~ ~ ( ~ ~ | ~ ~ ( ~ | ~ ~ ~ O.* * * * % ( ( ( ~ ( ( ( ~ ",
"( ~ ~ ~ ( ~ ~ ~ ~ ~ ( ~ ( ~ ~ %.0 * * 0 * * * * * * * 8 ~ ~ ~ ~ ~ ~ ~ | ~ | ~ ~ ~ ~ | ~ ~ ( ~ ( ~ ( @.* * * * & ~ ( ~ ( ( ~ ( ~ ",
"~ ~ [ ( ~ ~ ~ ~ ~ ~ ~ ~ ~ ~ ~ X.* * * * * * * * * * - 8 ( ~ ~ ~ ~ ~ ~ ~ ~ ~ ~ ~ ~ ~ ~ ~ ~ ~ ~ ~ ~ ~ O.* * * * 8 ~ ~ ~ ~ ~ ( ~ ~ ",
"~ ~ ~ ~ ~ ~ ~ ~ ~ ~ ~ ~ ~ ! ~ X.* 0 * * * * 0 * 9 0 * 8 8 & 8 & 8 8 8 8 8 w e r x D G L U R [ { X.X.X.* 0 - 9 8 ~ ~ ~ ~ ~ ~ ~ ~ ",
"~ ! ~ ! ~ ~ ! ! ! ~ ! ~ ~ [ ! X.0 0 0 0 0 0 0 0 - 0 0 8 ! ~ ~ ~ ! ~ ! ~ ~ ~ ! ! ~ ! ! ~ ! ~ ! ~ ~ ! X.0 9 0 0 * ! ~ ! ~ ! ! ! ! ",
"! ~ ! ~ ! ! ! ~ ! ! ! ! ! ! ! X.0 - 0 0 0 0 - 0 0 0 0 8 ~ ! ! ~ ! ! ~ ! ! ! ! ~ ! ~ ! ! ! ~ ~ ! ! ! } 0 0 0 - * ! ! ~ ! ! ! ~ ! ",
"! ! ! ! ! ! ! ! ! ! ! ! ! ! ! } 0 0 0 0 0 0 0 0 0 0 0 9 ! ! ! ! ! ! ! ! ! ! ! ! ! ! ! ! ! ! ! ! ! ! } 0 0 - - - ! ! ! ! ! ! ! ! "
};
