/* XPM */
static char *d346da01a82c465baa17c2e421ca59abJyDUzosYJdeBv0I2[] = {
/* columns rows colors chars-per-pixel */
"64 64 122 2 ",
"   c black",
".  c #0E6841",
"X  c #156E45",
"o  c #0F7348",
"O  c #1F7549",
"+  c #10794C",
"@  c #117F50",
"#  c #22774B",
"$  c #4C4C4C",
"%  c #767676",
"&  c #7C7C7C",
"*  c #DB0000",
"=  c red",
"-  c #128453",
";  c #138A57",
":  c #138C58",
">  c #14945E",
",  c #2D8051",
"<  c #388956",
"1  c #159B63",
"2  c #16A167",
"3  c #16A268",
"4  c #17A96C",
"5  c #18AF6E",
"6  c #13B772",
"7  c #18B171",
"8  c #34AE74",
"9  c #3AAF73",
"0  c #37B175",
"q  c #3DB375",
"w  c #46955E",
"e  c #519D63",
"r  c #5CA669",
"t  c #5FA96B",
"y  c #43B676",
"u  c #49B776",
"i  c #46B877",
"p  c #4BB977",
"a  c #43B778",
"s  c #45BA79",
"d  c #4CBC79",
"f  c #50BB77",
"g  c #52BE79",
"h  c #68B06F",
"j  c #6BB271",
"k  c #74B975",
"l  c #7ABD78",
"z  c #1FC47F",
"x  c #4EC07C",
"c  c #54C27B",
"v  c #5CC47C",
"b  c #64C67B",
"n  c #6BC67A",
"m  c #7AC777",
"M  c #7DC877",
"N  c #74C778",
"B  c #7CD27F",
"V  c #82C876",
"C  c #87C87F",
"Z  c #83D27D",
"A  c #92F07F",
"S  c #21C681",
"D  c #26C985",
"F  c #2BCE8A",
"G  c #2FD08D",
"H  c #3CD28D",
"J  c #43D28B",
"K  c #4BD28A",
"L  c #57D287",
"P  c #5CD286",
"I  c #51D288",
"U  c #43CB93",
"Y  c #4DCE99",
"T  c #64D285",
"R  c #6CD282",
"E  c #74D281",
"W  c #78D280",
"Q  c #7CF080",
"!  c #838383",
"~  c #8C8C8C",
"^  c #959595",
"/  c #9D9D9D",
"(  c #9F9F9F",
")  c #999999",
"_  c #A1A1A1",
"`  c #A3A3A3",
"'  c #A4A4A4",
"]  c #A5A5A5",
"[  c #A6A6A6",
"{  c gray66",
"}  c #A9A9A9",
"|  c #AAAAAA",
" . c gray67",
".. c #ACACAC",
"X. c gray68",
"o. c #AFAFAF",
"O. c #AEAEAE",
"+. c gray69",
"@. c #B1B1B1",
"#. c #B2B2B2",
"$. c #FF8484",
"%. c #FF8484",
"&. c #FFB5B5",
"*. c #FFB5B5",
"=. c #88C980",
"-. c #90CF84",
";. c #95D386",
":. c #97D588",
">. c #9BD88A",
",. c #A4DF8E",
"<. c #93F381",
"1. c #A6E08F",
"2. c #A6E08F",
"3. c #A8E390",
"4. c #ACE692",
"5. c #B2EA95",
"6. c #B5ED97",
"7. c #CCFFA3",
"8. c #FFE5E5",
"9. c #FFE5E5",
"0. c white",
"q. c white",
/* pixels */
"Z Z Z Z Z Z Z Z Z Z Z Z Z Z Z Z Z Z Z Z Z , V V V V 1.Z Z Z Z Z Z Z Z Z Z Z Z Z Z Z Z Z Z Z Z Z Z Z Z Z Z Z Z Z Z Z Z Z Z Z Z Z ",
"Z Z Z Z Z Z Z Z Z Z Z Z Z Z Z Z Z Z Z Z Z , V V V V 1.Z Z Z Z Z Z Z Z Z Z Z Z Z Z Z Z Z Z Z Z Z Z Z Z Z Z Z Z Z Z Z Z Z Z Z Z Z ",
"Z Z Z Z Z Z Z Z Z Z Z Z Z Z Z Z Z Z Z Z Z , M M M M 1.Z Z Z Z Z Z Z Z Z Z Z Z Z Z Z Z Z Z Z Z Z Z Z Z Z Z Z Z Z Z Z Z Z Z Z Z Z ",
"B B B B B B B B B B B B B B B B B B B B B , M M M M 1.B B B B B B B B B B B B B B B B B B B B B B B B B B B B B B B B B B B B B ",
"B B B B B B B B B B B B B B B B B B B B B , m m m m 1.B B B B B B B B B B B B B B B B B B B B . . . . . B B B B B B B B B B B B ",
"B B B B B B B B B B B B B B B B B B B B B , N N N N 1.B B B B B B B B B B B B B B B B B B . . +.+.+...... . B B B B B B B B B B ",
"W W W W W W W W W W W W W W W W W W W W W , N N N N 1.W W W W W W W W W W W W W W W W . . +.+.........{ { { . . W W W W W W W W ",
"W W W W W W W W W W W W W W W W W W W W . N N N N N 1.W W W W W W W W W W W W W W W . +.+.........{ { { ] ] ] ] . W W W W W W W ",
"E W E W W W W W W W E E W W W W W W W . N N N N N N 1.W W W W W W W W W W W E E W . +.......{ $       $ ] ] ` ` ` . W W W W W W ",
"E E E E E E E E E E E E E E E E E E . n n n n n n n 1.E E E E E E E E E E E E E . ......{ $     * * *     { ` ( ( ( X E E E E E ",
"R R R R E E R R R R R R R R R R R . n n n n n n n n 1.R R R R R R R R E R R R R . ..{ { $   * = = = = = *   { ( ( ) O R E E R R ",
"R R R R R R R R R R R R R R R R . n n n n n n n n n 1.R R R R R R R R R R R R . { { { $   = = = = = = = = = $ { ) ) ^ , R R R R ",
"R R R R R R R R R R R R R R R . n n n n n n n n n n 1.R R R R R R R R R R R R . { ] ]   * = = = $.$.$.= = = * $ ^ ^ ^ < R R R R ",
"T T R R R R R R R T R R R R . b b b b b b b b b b b 1.R T T R R R R R R R R . ] ] ] $   = = = $.&.&.&.$.= = = $ { ^ ^ ^ w R R R ",
"T T T T T T T T T T T T T , b b b b b b b b b b b b 1.T T T T T T T T T T T X ] ` `   * = = $.&.0.0.0.&.$.= = * $ ^ ^ ^ e T T T ",
"T T T T T T T T T T T T T , b b b b b b b b b b b b 1.T T T T T T T T T T T # ` ` (   * = = $.&.0.8.0.&.$.= = * $ ^ ^ ^ r T T T ",
"T T T T T T T T T T T T T , v v v v v v v v v v v v 1.T T T T T T T T T T T , ( ( (   * = = $.&.0.0.0.&.$.= = * $ ^ ^ ^ h T T T ",
"T T P P T T T T T T T T T , v v v v v v v v v v v v 1.T T T T T T T T T T T < / ) ) {   = = = $.&.&.&.$.= = = $ { ^ ~ ~ k T T T ",
"P P P P P P P P P P P P P , v v v v v v v c v v v v 1.P P P P P P P P P P P P w ) ) ^   * = = = $.$.$.= = = * $ ~ ~ ~ l P P P P ",
"P P P P P P P P P P P P P , v v v v v c v v v c c g 1.P P P P P P P P P P P P e ^ ^ ^ {   = = = = = = = = = $ { ~ ! ! =.P P P P ",
"P P P P P P P P P P P P P , c c c c c c c c c g g g 1.P P P P P P P P P P P P P t ^ ^ ^ { $ * = = = = = * $ { ! ! ! =.P P P P P ",
"L L L L L L L L L L L L L , c c c c c c c g g g g g 1.L L L L L L L L L L L L L j ^ ^ ^ ^ { $ $ * * * $ $ { ! ! & & >.L L L L L ",
"L L L L L L L L L L L L L , c c c c g g g g g g f f 1.L L L L L L L L L L L L e e l ^ ^ ^ ~ ~ { $ $ $ { ! & & & & ,.L L L L L L ",
"I I I I I I I I I I I I I , x x d d d d d d d p p p 1.I I I I I I I . . . I e e I I C ~ ~ ~ ~ ! ! ! ! & & & & % 4.I I I I I I I ",
"I I I I I I I I I I I I I , d d d d d d p p p p p 7.I I I I I I I . = = = . e I I I I ;.:.! ! ! & & & & % % 5.6.I I I I I I I I ",
"I I I I I I I I I I I I I , d d d p p p p p p u 7.I I I I I I I . = = $.= = e I I I I I I 1.3.& & & % % 7.7.I I I I I I I I I I ",
"K K K K K K K K K K K K K , s s s s i i i i i 7.K K K K K K K K e = $.&.$.= l K K K K K K K K 7.7.7.7.7.K K K K K K K K K K K K ",
"K K K K K K K K K K K K K , s s s a i i i i 7.K K K K K K K K K e = = $.= = l K K K K K K K K K K K K K K K K K K K K K K K K K ",
"K K K K K K K K K K K K K , a a y y y y y 7.K K K K K K K K K K K l = = = 7.K K K K K K K K K K K K K K K K K K K K K K K K K K ",
"J J J J J J , , , , , , , , q q q q q q 7.J J J J J J J J J J J J J 7.7.7.J J J J J J J J J J J J J J J J J J J J J J J J J J J ",
"J J J J J J , J J J J J J , q q q q q q 1.J J J J J J J J J J J J J J J J J J J J J J J J J J J J J J J J J J J J J J J J J J J ",
"J J J J J J , J J J J J J , 0 0 0 0 0 9 1.J J J J J J J J J J J J J J J J J J J J J J J J J J J J J J J J J J J J J J J J J J J ",
", , , , , , , , , J J J J , 0 0 8 8 8 8 1.J J J J J J J J J J J J J J J J J J J J J J H J J J J J J J J J J J H J J J J , , , , ",
"H H H H H H H H , H H H H , 8 8 8 8 8 8 1.H H H H H H H H H H H H H H H H H H H H H H H H H H H H H H H H H H H H H H H , H H H ",
"H H H H H H H H , H H H H , 8 8 8 8 8 8 1.H H H H H H H H H H H H H H H H H H H H H H H H H H H H H H H H H H H H H H H , H H H ",
"H H H H H H H H , H H H H , 8 8 8 8 8 8 C H H H H H H H H H H H H H H H H H H H H H H H H H H H H H H H H H H H H H H H , H H H ",
"<.<.<.<.<.<.<.<.<.<.<.<.<.<.<.<.<.<.<.<.<.<.A A <.<.<.<.<.<.<.<.<.<.<.<.<.<.<.<.<.<.<.<.<.<.<.<.<.<.<.<.<.<.<.<.<.<.<.<.<.<.<.<.",
"6 6 6 6 6 6 6 6 6 6 6 6 6 6 6 6 6 6 6 6 6 6 6 6 6 6 6 6 6 6 6 6 6 6 6 6 6 6 6 6 6 6 6 6 6 6 6 6 6 6 6 6 6 6 6 6 6 6 6 6 6 6 6 6 ",
"6 6 6 6 6 6 6 6 6 6 6 6 6 6 6 6 6 6 6 6 6 6 6 6 6 6 6 6 6 6 6 6 6 6 6 6 6 6 6 6 6 6 6 6 6 6 6 6 6 6 6 6 6 6 6 6 6 6 6 6 6 6 6 6 ",
"5 5 5 5 5 5 5 5 5 5 5 5 5 5 5 5 5 5 5 5 5 5 5 5 5 5 5 5 5 5 5 5 5 5 5 5 5 5 5 5 5 5 5 5 5 5 5 5 5 5 5 5 5 5 5 5 5 5 5 5 5 5 5 5 ",
"* * * * * * * * * * * * * * * * * * * * * * * * * * * * * * * * * * * * * * = = $.&.8.0.0.0.0.&.&.$.$.= * * * * * * * * * * * * ",
"= = = = = = = = = = = = = = = = = = = = = = = = = = = = = = = * * * * = = = = $.$.&.0.0.0.0.8.&.$.$.= = = = = * * * = = = = = = ",
"= = = = = = = = = = = = = = = = = = = = = = = = = = = = = = * * * = = = = = $.$.&.8.0.0.0.0.&.$.$.= = = = * * * * = = = = = = = ",
"* * * * * * * * * * * * * * * * * * * * * * * * * * * * * * * * * * * * = $.$.&.&.0.0.0.0.8.&.$.= = * * * * * * * * * * * * * * ",
"Q Q Q Q Q Q Q Q Q Q Q Q Q Q Q Q Q Q Q Q Q Q Q Q Q Q Q Q Q Q Q Q Q Q Q Q Q Q Q Q Q Q Q Q Q Q Q Q Q Q Q Q Q Q Q Q Q Q Q Q Q Q Q Q ",
"6 6 6 6 6 6 6 6 6 6 6 6 6 6 6 6 6 6 6 6 6 6 6 6 6 6 6 6 6 6 6 6 6 6 6 6 6 6 6 6 6 6 6 6 6 6 6 6 6 6 6 6 6 6 6 6 6 6 6 6 6 6 6 6 ",
"6 6 6 6 6 6 6 6 6 6 6 6 6 6 6 6 6 6 6 6 6 6 6 6 6 6 6 6 6 6 6 6 6 6 6 6 6 6 6 6 6 6 6 6 6 6 6 6 6 6 6 6 6 6 6 6 6 6 6 6 6 6 6 6 ",
": : : : : : : : : : : : : : : : : : : : : : : : : : : : : : : : : : : : : : : : : : : : : : : : : : : : : : : : : : : : : : : : ",
"G G G G G G G G G G G G G G o G G G G G G G G G G G G G G G G G G G G G G G o G G G G G G G G o G G G G G G G G G G G G G G G G ",
"F F F F F F F F F F F F F F + F F F F F F F F F F F F F F F F F F F F F F F + F F F F F F F F + F F F F F F F F F F F F F F F F ",
"F F F F F F F F F F F F F F @ F F F F F F F F F F F F F F F F F F F F F F F @ F F F F F F F F @ F F F F F F F F F F F F F F F F ",
"F F F F F F F F F F F F F F - F F F F F F F F F F F F F F F F F F F F F F F - - - - - - - - - - F F F F F F F F F F F F F F F F ",
"F F F F F F F F F F F F F F ; F F F F F F F F F F F F F F F F F F F F F F F F F F F F F F F F ; F F F F F F F F F F F F F F F F ",
"D D D D D D D D D D D D D D > D D D D D D D D D D D D D D D D D D D D D D D D D D D D D D D D > D D D D D D D D D D D D D D D D ",
"D D D D D D D D D D D D D D > > > > D D D D D D D D D D D D D D D D D D D D D D D D D D D D D > D D D D D D D D D D D D D D D D ",
"D D D D D D D D D D D D D D D D D 1 D D D D D D D D D D D D D D D D D D D D D D D D D D D D D 1 D D D D D D D D D D D D D D D D ",
"S S S S S S S S S S S S S S S S S 2 S S S S S S S S S S S S S S S S S S S S S S S S S S 2 2 2 2 S S S S S S S S S S S S S S S S ",
"S S S S S S S S S S S S S S S S S 4 S S S S S S S S S S S S S S S S S S S S S S S S S S 4 S S S S S S S S S S S S S S S S S S S ",
"S S S S S S S S S S S S S S S Y Y 5 Y Y Y Y S S S S S S S S S S S S S S S S S S S S Y Y 5 Y Y Y Y S S S S S S S S S S S S S S S ",
"z z z z z z z z z z z z z z U 7 7 7 7 7 7 7 U z z z z z z z z z z z z z z z z z z U 7 7 7 7 7 7 7 U z z z z z z z z z z z z z z ",
"4 4 4 4 4 4 4 4 4 4 4 4 4 4 7 7 7 7 7 7 7 7 7 4 4 4 4 4 4 4 4 4 4 4 4 4 4 4 4 4 4 7 7 7 7 7 7 7 7 7 4 4 4 4 4 4 4 4 4 4 4 4 4 4 ",
"7 7 7 7 7 7 7 7 7 7 7 7 7 7 7 7 4 4 4 4 4 7 7 7 7 7 7 7 7 7 7 7 7 7 7 7 7 7 7 7 7 7 7 4 4 4 4 4 7 7 7 7 7 7 7 7 7 7 7 7 7 7 7 7 ",
"7 7 7 7 7 7 7 7 7 7 7 7 7 7 7 4 4 4 4 4 4 4 7 7 7 7 7 7 7 7 7 7 7 7 7 7 7 7 7 7 7 7 4 4 4 4 4 4 4 7 7 7 7 7 7 7 7 7 7 7 7 7 7 7 ",
"3 3 3 3 3 3 3 3 3 3 3 3 3 3 3 4 4 4 4 4 4 4 3 3 3 3 3 3 3 3 3 3 3 3 3 3 3 3 3 3 3 3 4 4 4 4 4 4 4 3 3 3 3 3 3 3 3 3 3 3 3 3 3 3 "
};
