/* XPM */
static char *result[] = {
/* columns rows colors chars-per-pixel */
"64 64 100 2 ",
"   c black",
".  c #0E6841",
"X  c #156E45",
"o  c #0F7348",
"O  c #1F7549",
"+  c #10794C",
"@  c #117F50",
"#  c #22774B",
"$  c #4C4C4C",
"%  c #767676",
"&  c #7C7C7C",
"*  c #DB0000",
"=  c red",
"-  c #128453",
";  c #138A57",
":  c #138C58",
">  c #14945E",
",  c #2D8051",
"<  c #388956",
"1  c #159B63",
"2  c #16A167",
"3  c #16A268",
"4  c #17A96C",
"5  c #18AF6E",
"6  c #13B772",
"7  c #18B171",
"8  c #34AE74",
"9  c #3AAF73",
"0  c #37B175",
"q  c #3DB375",
"w  c #46955E",
"e  c #519D63",
"r  c #5CA669",
"t  c #5FA96B",
"y  c #43B676",
"u  c #49B776",
"i  c #46B877",
"p  c #4BB977",
"a  c #43B778",
"s  c #45BA79",
"d  c #4CBC79",
"f  c #50BB77",
"g  c #52BE79",
"h  c #68B06F",
"j  c #6BB271",
"k  c #74B975",
"l  c #7ABD78",
"z  c #1FC47F",
"x  c #4EC07C",
"c  c #54C27B",
"v  c #5CC47C",
"b  c #64C67B",
"n  c #6BC67A",
"m  c #7AC777",
"M  c #7DC877",
"N  c #74C778",
"B  c #7CD27F",
"V  c #82C876",
"C  c #87C87F",
"Z  c #83D27D",
"A  c #92F07F",
"S  c #21C681",
"D  c #26C985",
"F  c #2BCE8A",
"G  c #2FD08D",
"H  c #3CD28D",
"J  c #43D28B",
"K  c #4BD28A",
"L  c #57D287",
"P  c #5CD286",
"I  c #51D288",
"U  c #43CB93",
"Y  c #4DCE99",
"T  c #64D285",
"R  c #6CD282",
"E  c #74D281",
"W  c #78D280",
"Q  c #7CF080",
"!  c #838383",
"~  c #8C8C8C",
"^  c #959595",
"/  c #9C9C9C",
"(  c #A4A4A4",
")  c #ABABAB",
"_  c #B1B1B1",
"`  c #FF8484",
"'  c #FFB5B5",
"]  c #88C980",
"[  c #90CF84",
"{  c #95D386",
"}  c #97D588",
"|  c #9BD88A",
" . c #A4DF8E",
".. c #93F381",
"X. c #A6E08F",
"o. c #AAE591",
"O. c #B4EC96",
"+. c #CCFFA3",
"@. c #FFE5E5",
"#. c white",
/* pixels */
"Z Z Z Z Z Z Z Z Z Z Z Z Z Z Z Z Z Z Z Z Z , V V V V X.Z Z Z Z Z Z Z Z Z Z Z Z Z Z Z Z Z Z Z Z Z Z Z Z Z Z Z Z Z Z Z Z Z Z Z Z Z ",
"Z Z Z Z Z Z Z Z Z Z Z Z Z Z Z Z Z Z Z Z Z , V V V V X.Z Z Z Z Z Z Z Z Z Z Z Z Z Z Z Z Z Z Z Z Z Z Z Z Z Z Z Z Z Z Z Z Z Z Z Z Z ",
"Z Z Z Z Z Z Z B Z Z Z Z Z Z Z Z Z Z Z Z Z , M M M V X.Z Z Z Z Z Z Z Z Z Z Z Z Z Z Z Z B Z Z B Z Z Z Z Z Z Z B Z Z Z Z Z Z Z Z Z ",
"B B B Z B B B B Z B B B B B Z Z B B B Z Z , M M M M X.B B B B B Z B B B B B Z Z B B B B Z Z B Z B B B Z B Z B B Z B B B B B Z Z ",
"B B W B B B B W B B B B B B B B W ] W W W < m m m m X.B B B B B B B B B B B B B B B B B B W W X . . . . B B B B B W B B B B B B ",
"B B B B B W B B W B B B B B B B W W W B W # m N m m X.B W B B B W B B B B B B B B B W B B . . _ _ _ _ ) . . B B B B B B B B B B ",
"W W W B W W W B E W B E E B B E W W W W W # N N N N X.E E E W E E W E E B E E E W W W . . _ _ ) ) _ ) ) ) ) X . E W B W W E E B ",
"W E W E E E W E B E R B E B R B W W W W . W N N N N X.E E B E B B E B E E E E B W W . _ _ _ _ _ ) ) ) ) ( ( ( ( . E R B E B E E ",
"E W E W E W E W R E E E E W E E E E E . N N N N n N X.E E E E E E E E E E E E E E . _ _ ) ) ) $       $ ( ( ( ( / . E E E W E E ",
"E R E E E R E E R E E E E R R E E E . n n n n N N n X.E E E E E E R E E R E E E . _ ) ) ) $     * * *     ) / / / / X E E R R E ",
"R R E R R R E R E R E R R E R E R . n n n n n n n n X.E R R E R R E R R R E R R . ) ) ) $   * = = = = = *   ) / / / O R E R R E ",
"R R R R R R R R R R R R R R R R . n n n n n n n n n X.R R R R R R R R R E R R . ) ) ) $   = = = = = = = = = $ ) / / ^ , R R R R ",
"R R R R R R R R R R R R R R R . n b n n b n n n n n X.T R R R R R R R R R R R . ( ) )   * = = = ` ` ` = = = * $ ^ ^ / < R R R R ",
"R T R T R T T T T R T R R T . b n b b b b b b b b b X.T R T T R T R R T R T . ( ( ( $   = = = ` ' ' ' ` = = = $ ) ^ ^ ^ w T T R ",
"T R T R T R T R T R R T T , b b b b b b b b b b b b X.R T R T T R R T R T R X ( ( (   * = = ` ' #.#.#.' ` = = * $ ^ ^ ^ e R R T ",
"T T T T R T T T T T T T T , b b v b b b b b b b b b X.T T T T T T T T T T T # ( / /   * = = ` ' #.@.#.' ` = = * $ ^ ^ ^ r T T T ",
"T T T T T T T P T T P T T , v b v v v b P b v v b b X.T T T T T T T T T P T , / / /   * = = ` ' #.#.#.' ` = = * $ ^ ^ ^ h T T P ",
"P T P T P T P T T T T P P , v v v v v v v v v v g v X.T T P T T P P T P T T < / / / )   = = = ` ' ' ' ` = = = $ ( ^ ~ ~ k P P T ",
"P P T P P T P P P P P P P , v v v v v v v v v g v v X.T P P P P P T P T P P P w / ^ ^   * = = = ` ` ` = = = * $ ~ ~ ~ l P P P T ",
"P P P P P P P P P P P P P , P v v v c v g v g v g g X.P P P P P P P P P P P P e ^ ^ ^ )   = = = = = = = = = $ ( ~ ! ! ] P P P P ",
"L P P P P P P P P L P P P , c L c c c c v c g g g g  .P P P P P P P L P P P P P t ^ ^ ^ ) $ * = = = = = * $ ) ! ! ! ] P P P P P ",
"L L L L L L L L L P L L P # c c c c c c g g c g g f X.P L L L L L L L L L L L L j ^ / ^ ^ ) $ $ * * * $ $ ) ! ! & & | L L L L L ",
"L L L L L L L I L L L L L , x c c c c d g g g f f f X.L I L L L L L L L L L L e e l ^ ^ ~ ~ ~ ) $ $ $ ) & & & & &  .L L L L L L ",
"I I L I I I L I I I I L I , x x d d g d d f d f p d X.L I I I L I I . . . I e e I I C ~ ~ ~ ~ ! ! ! ! & & & & % o.L I L I I I I ",
"I I I I I I I I I I I I I , x x d d d d i d d u p +.I I I I I I I . = = = . e I I I I { } ! ! ! ! & & & % % O.O.I I I I I I I I ",
"I K I I I I I K I I K I K , x d d d d s u u u u +.I I I I L K I . = = ` = = e K I I I I I  .o.& & % % % +.+.I I I I I I I I I K ",
"K I K K K I K K I K K I K , s x i s s i u i y +.K I K K I K K K e = ` ' ` = l K K K I K K I K +.+.+.+.+.K K K K K K I K K I K K ",
"K K K K K K K K K K K K K , s s i a i a y y +.K K K K K K K K K e = = ` = = l K K K K K K K K K K K K K K K K K K K K K K K K K ",
"K K K J K K K K K K K J K , s q a a a y y +.K K K K K K K K K J K l = = = +.K K K K K K K K J K K J K K K K K K K K K K K K K K ",
"J K K J J J , , , , , , , , q a q q q q +.J J K K J J J J J K J K J +.+.+.K J J J J J J J J K K J K K J K J J J J J J J K K J J ",
"J J J J J J , J J J J J J , q q q q q 9  .J J J J J J J J J J J J J J J J J J K J J J J J J J J J J J J J J J J J K J K J J J J ",
"J J J J J J , J J J J J J , 0 0 q q 9 9  .J J J J J J J J J J J J H J J J J J H J J J J J J H J J J J J J J J J J H H J J J J J ",
", , , , , , , , , H H J H , q 8 0 8 8 8 X.J J H J J J H H J J U J H H H J J J H H J J J H J H J J J H J J J H H J H H J , , , , ",
"H H H H J H H J , J H H H , 8 8 8 8 8 0 X.H H J H H H H H H H H J H H H H H J H H H H H H H H H H H H H H H H J H J H H , H H H ",
"H H H H H H H H , H H H H , 8 8 8 8 8 8 X.H H H H H H H H H H H H H H H H H H H H H H H H H H H H H H H H H H H H H H H , H H H ",
"H H H H H H H H , H H H H , 8 8 8 8 8 8 ] H H J H H H H H H H H H H H H H H H H H H H J H H H H H H H H H H H H H H H H , H H H ",
"A A A A A A A A A ................A ....A ..A A ..................A ..A ..............A ............A A A ..A A A A A A A A A A ",
"6 6 6 z 7 6 z 6 6 6 6 6 6 6 7 6 6 6 6 6 6 6 6 6 6 6 6 6 6 7 6 6 6 6 6 6 6 6 6 6 6 6 6 7 6 7 6 6 6 6 6 6 6 z 6 6 6 6 z 6 6 6 6 z ",
"6 6 6 6 6 6 6 6 6 6 6 6 6 6 6 6 6 6 6 6 6 6 6 6 6 6 6 6 6 6 6 6 6 6 6 6 6 6 6 6 6 6 6 6 6 6 6 6 6 6 6 6 6 6 6 6 6 6 6 6 6 6 6 6 ",
"5 5 5 5 5 5 5 5 5 5 5 5 5 7 7 7 5 5 5 5 5 5 5 5 5 5 5 7 7 7 7 7 5 5 5 5 5 5 5 5 5 5 5 5 5 5 7 7 7 5 5 5 5 5 5 5 5 5 5 5 5 5 5 5 ",
"* * * * * * * * * * * * * * * * * * * * * * * * * * * * * * * * * * * * * * * * * * * * * * = = ` ' @.#.#.#.#.' ' ` ` = * * * * ",
"* * = = = = = = = = = = = = = = = = = = = = = = = = = = = = = = = = = = = = = * * * * = = = = ` ` ' #.#.#.#.@.' ` ` = = = = = * ",
"* = = = = = = = = = = * = = = = = = = = = = = = = = = * = = = = = = = = = = * * * = = = = = ` ` ' @.#.#.#.#.' ` ` = = = = * * * ",
"* * * * * * * * * * * * * * * * * * * * * * * * * * * * * * * * * * * * * * * * * * * * * ` ` ' ' #.#.#.#.@.' ` = = * * * * * * ",
"Q Q Q Q Q Q Q Q Q Q Q Q Q Q Q Q Q Q Q Q Q Q Q Q Q Q Q Q Q Q Q Q Q Q Q Q Q Q Q Q Q Q Q Q Q Q Q Q Q Q Q Q Q Q Q Q Q Q Q Q Q Q Q Q ",
"6 6 6 6 6 6 6 6 6 6 6 6 6 6 6 6 6 6 6 6 6 6 6 6 6 6 6 6 6 6 6 6 6 6 6 6 6 6 6 6 6 6 6 6 6 6 6 6 6 6 6 6 6 6 6 6 6 6 6 6 6 6 6 6 ",
"6 6 6 6 6 6 6 6 6 6 6 6 6 6 6 6 6 6 6 6 6 6 6 6 6 6 6 6 6 6 6 6 6 6 6 6 6 6 6 6 6 6 6 6 6 6 6 6 6 6 6 6 6 6 6 6 6 6 6 6 6 6 6 6 ",
": : : : : : : : : : : : : > : : : : : : : : : : : : : : : : : : : : : : : : : : : : : : > : : : : : : : : : : : : > : : : : : : ",
"F G G G G G G G G G G G G G + G G G G G G G G G G G G G G G G G G G G G G G o G G G G G G G G o D G G G G G G G G G G G G G G G ",
"F F G G G G F G G F G F G F - F G F G F G G G G G F G G F F G G F G G F G F + G G F G F G F G + F F G G G F F G F G F G G F F G ",
"F F F F F F F F F F F F F F - D F F F F F F F F F G D G F F F F F F F F F F @ F F F F G F F F @ F F F F F F F F F F F F F F F F ",
"F F F F D F F F F F F F F D ; D F F F F D F F F F F D F F F F F F F F F F F - @ - - - - - - - @ F F F F F F F F F F F F F F F F ",
"D F D F F D F F D F F F F F : F F F F F D F F F D F F D F F F F F F D F F F F F F F F F F F F ; D F F F D F F F F F D F F F F D ",
"D D D D D D D D D D D D D D > D D D D D D D D D D D D D D D D D D F D D D D D D D D D D D D D : D D D D D D D D D D D F D D D D ",
"D D D D D D D D D D D D D D > > > > D D D D D D D D D D D D D D D D D D D D D D D D D D D D D > D D D D D D D D D D D D D D D D ",
"D D D D D D D D D D D S D D S D S 1 D D D D S D D D D D D D S D D D S D S D D S D D S D D D D 1 D S D D D D S D D S S D D S D D ",
"S S S S S S S S S D S S S S S S S 3 S S D S S D S S S S S S S S S S S S S S S S D S S D 2 2 2 2 S S S S S S S S S D S S S S S S ",
"S S S S S S S S S S S S S S S S S 4 S S S S S S S S S S S S S S S S S S S S S S S S S S 4 z z D S S S S S S S S S S S S S S S S ",
"S S S z S S S S S S S z z S S Y Y 4 Y Y Y Y S z S S S z S S z z S S z S z S S S z z Y Y 4 Y Y Y Y S S z S S S z S S S S S S S S ",
"z S z z z z S S S S z z z z H 7 7 7 7 7 7 7 H z z z z z z S z z S S z z z z z S z U 7 7 7 7 7 7 7 H z z z S z S S S S S z z S S ",
"4 4 4 4 4 4 4 4 4 4 4 4 4 4 7 7 7 7 7 7 7 7 7 4 4 4 4 4 4 4 4 4 4 4 4 4 4 4 4 4 4 7 7 7 7 7 7 7 7 7 4 4 4 4 4 4 4 4 4 4 3 3 4 4 ",
"7 7 7 7 7 7 7 7 7 7 7 7 7 7 7 7 4 4 4 4 4 7 7 7 7 7 7 7 7 7 7 7 7 7 7 7 7 7 7 7 7 7 7 4 4 4 4 4 7 7 7 7 7 7 7 7 7 7 7 7 6 6 6 6 ",
"7 7 7 7 7 7 7 7 7 7 7 7 7 7 7 4 4 4 4 4 4 4 7 7 7 7 7 7 7 7 7 7 7 7 7 7 7 7 7 7 7 7 4 4 4 4 4 4 4 7 7 7 7 7 7 7 7 7 7 7 7 6 4 6 ",
"3 3 3 1 3 3 3 3 3 3 3 3 3 3 1 4 4 4 4 4 4 4 3 3 3 3 3 3 3 3 3 3 3 3 3 3 3 3 3 3 3 3 4 4 4 4 4 4 4 3 3 3 3 3 3 3 3 3 3 3 1 2 2 2 "
};
