/* XPM */
static char *_e373f2c3082435d9c4c670ffd03c709AE38Nt5dT07N0lWU[] = {
/* columns rows colors chars-per-pixel */
"64 64 144 2 ",
"   c gray2",
".  c #070707",
"X  c gray14",
"o  c #393939",
"O  c gray25",
"+  c #404141",
"@  c #414141",
"#  c gray26",
"$  c #434343",
"%  c #434444",
"&  c #444444",
"*  c gray27",
"=  c #454646",
"-  c #464646",
";  c gray28",
":  c #474949",
">  c #484848",
",  c #494949",
"<  c gray29",
"1  c #4B4B4B",
"2  c #494C4C",
"3  c #4C4C4C",
"4  c gray30",
"5  c #4C4F4F",
"6  c #4E4E4E",
"7  c gray31",
"8  c #4E5151",
"9  c #505050",
"0  c #515151",
"q  c gray32",
"w  c #535353",
"e  c #505454",
"r  c #525757",
"t  c gray33",
"y  c gray34",
"u  c #545959",
"i  c #575C5C",
"p  c #585858",
"a  c gray35",
"s  c #5A5A5A",
"d  c #5B5B5B",
"f  c #595F5F",
"g  c gray37",
"h  c #5F5F5F",
"j  c #5B6262",
"k  c #5D6464",
"l  c #5F6767",
"z  c #606060",
"x  c gray38",
"c  c #626262",
"v  c gray39",
"b  c #646464",
"n  c gray40",
"m  c #676767",
"M  c #626A6A",
"N  c #646D6D",
"B  c #666F6F",
"V  c #686868",
"C  c DimGray",
"Z  c #6A6A6A",
"A  c gray42",
"S  c #6C6C6C",
"D  c #6D6D6D",
"F  c gray43",
"G  c #6F6F6F",
"H  c #687272",
"J  c #6B7575",
"K  c #6D7878",
"L  c #6F7A7A",
"P  c gray44",
"I  c #717171",
"U  c #717272",
"Y  c #727272",
"T  c gray45",
"R  c gray46",
"E  c #777777",
"W  c #757878",
"Q  c #767979",
"!  c #777A7A",
"~  c #717D7D",
"^  c gray47",
"/  c #797979",
"(  c #7B7B7B",
")  c #787C7C",
"_  c #7C7C7C",
"`  c gray49",
"'  c #7E7E7E",
"]  c gray50",
"[  c #748080",
"{  c #768383",
"}  c #7B8282",
"|  c #7C8383",
" . c #7D8585",
".. c #7E8686",
"X. c #808080",
"o. c #808181",
"O. c #818181",
"+. c #818282",
"@. c #818383",
"#. c gray51",
"$. c #848484",
"%. c #848686",
"&. c #868686",
"*. c #868989",
"=. c #828C8C",
"-. c #838E8E",
";. c #848F8F",
":. c #888888",
">. c gray54",
",. c gray55",
"<. c #8E8E8E",
"1. c #859191",
"2. c #8D9191",
"3. c #8E9393",
"4. c #909090",
"5. c #939393",
"6. c #919696",
"7. c #959595",
"8. c #979797",
"9. c #929898",
"0. c #949B9B",
"q. c gray60",
"w. c #9B9B9B",
"e. c #9D9D9D",
"r. c #9F9F9F",
"t. c #98A0A0",
"y. c #99A2A2",
"u. c #9BA2A2",
"i. c #9AA3A3",
"p. c #9BA3A3",
"a. c #9DA1A1",
"s. c #9EA0A0",
"d. c #9FA0A0",
"f. c #9EA1A1",
"g. c #9CA2A2",
"h. c #98A4A4",
"j. c #99A4A4",
"k. c #98A5A5",
"l. c #9BA5A5",
"z. c #9CA6A6",
"x. c #9DA9A9",
"c. c #9DAAAA",
"v. c #9EABAB",
"b. c #A0A0A0",
/* pixels */
"k.k.k.k.k.k.k.k.[ [ [ c.c.c.c.c.c.c.c.c.c.c.c.c.c.c.c.c.c.c.c.c.c.c.c.c.c.c.c.c.c.c.c.c.c.c.c.c.c.c.c.c.c.[ [ [ k.k.k.k.k.k.k.k.",
"k.k.k.k.k.k.k.k.[ [ [ c.c.c.c.c.c.c.c.c.c.c.c.c.c.c.c.c.c.c.c.c.c.c.c.c.c.c.c.c.c.c.c.c.c.c.c.c.c.c.c.c.c.[ [ [ k.k.k.k.k.k.k.k.",
"k.k.k.k.k.k.k.k.~ ~ ~ 1.1.c.c.c.c.c.c.c.c.c.c.c.c.c.c.c.c.c.c.c.c.c.c.c.c.c.c.c.c.c.c.c.c.c.c.c.c.c.c.1.1.~ ~ ~ k.k.k.k.k.k.k.k.",
"k.k.k.k.k.k.k.L L L L ;.;.;.;.1.;.;.;.;.;.;.;.;.;.;.;.;.;.;.;.;.;.;.;.;.;.;.;.;.;.;.;.;.;.;.;.;.;.;.;.;.;.L L L L k.k.k.k.k.k.k.",
"k.k.k.k.k.k.k.L L L -.-.-.-.-.-.-.-.-.-.-.-.-.-.-.-.-.-.-.-.-.-.-.-.-.-.-.-.-.-.-.-.-.-.-.-.-.-.-.-.-.-.-.-.L L L k.k.k.k.k.k.k.",
"k.k.k.k.k.k.k.J J J z.z.z.z.z.z.z.z.z.z.-.-.-.-.-.-.-.-.-.-.-.-.-.-.-.-.-.-.-.-.-.-.-.-.z.z.z.z.z.z.z.z.z.z.J J J k.k.k.k.k.k.k.",
"i.i.i.i.i.i.i.H H H k.k.k.k.k.k.k.k.k.k.k.k.k.k.k.k.k.k.k.k.k.k.k.k.k.k.k.k.k.k.k.k.k.k.k.k.k.k.k.z.k.k.k.k.H H H i.i.i.i.i.i.i.",
"i.i.i.i.i.i.i.B B i.i.i.i.i.i.i.i.i.i.i.i.i.i.i.i.i.i.i.i.i.i.i.i.i.i.i.i.i.i.i.i.i.i.i.i.i.i.i.i.i.i.i.i.i.i.B B i.i.i.i.i.i.i.",
"i.i.i.i.i.i.i.B B i.i.i.i.i.i.i.i.i.i.i.i.i.i.i.i.i.i.i.i.i.i.i.i.i.i.i.i.i.i.i.i.i.i.i.i.i.i.i.i.i.i.i.i.i.i.B B i.i.i.i.i.i.i.",
"i.i.i.i.i.i.i.M M ........i.i.i.i.e.e.e.i.i.i.i.i.i.i.i.e.e.i.i.i.i.i.i.i.i.e.e.t.e.e.e.i.i.i.i.i.i.i.........M M i.i.i.i.i.i.i.",
"i.i.i.i.i.i.i.k k ............................................................................................k k i.i.i.i.i.i.i.",
"i.i.i.i.i.i.i.k k | | | | | | | } | | | | | | | | | | | } } } } | | | | | } } | } | | | | | | | | | | | | | | k k i.i.i.i.i.i.i.",
"g.g.g.g.g.g.g.j j 0.0.0.0.0.0.0.9.9.9.9.} } } } } } } } } } } } } } } } } } } } } } } } 0.0.0.0.0.0.0.0.0.0.0.j j g.g.g.g.g.g.g.",
"g.g.g.g.g.g.g.f f 9.9.9.9.9.9.9.9.9.9.9.9.9.9.9.9.9.9.9.9.9.9.6.9.9.9.9.9.9.9.9.9.9.9.9.9.9.9.9.9.9.9.9.9.9.9.f f g.g.g.g.g.g.g.",
"g.g.g.g.g.g.g.i i 6.6.6.6.6.6.6.6.6.6.6.6.6.6.6.6.6.6.6.6.6.6.6.6.6.6.6.6.6.6.6.6.6.6.6.6.6.6.6.6.6.6.6.6.6.6.i i g.g.g.g.g.g.g.",
"g.g.g.g.g.g.g.u u 3.3.3.3.3.3.3.3.3.3.3.3.3.3.3.3.3.3.3.3.3.3.3.3.3.3.3.3.3.3.3.3.3.3.3.3.3.3.3.3.3.3.3.3.3.3.u u g.g.g.g.g.g.g.",
"g.g.g.g.g.g.g.r r ) ) ) ) 3.3.3.3.3.3.3.3.3.3.3.3.3.3.3.3.3.3.3.3.3.3.3.3.3.3.3.3.3.3.3.3.3.3.3.3.3.3.) ) ) ) r r g.g.g.g.g.g.g.",
"g.g.g.g.g.g.g.e r ! ! ! ! ! ! ! ! ! ! ! ! ! ! ! ! ! ! ! ! ! ! ! ! ! ! ! ! ! ! ! ! ! ! ! ! ! ! ! ! ! ! ! ! ! ! r e g.g.g.g.g.g.g.",
"g.g.g.g.g.g.g.8 8 ! ! ! ! ! ! ! ! ! ! ! ! ! ! ! ! ! ! ! ! ! ! ! ! ! ! ! ! ! ! ! ! ! ! ! ! ! ! ! ! ! ! ! ! ! ! 8 8 g.g.g.g.g.g.g.",
"g.g.g.g.g.g.g.5 5 *.*.*.*.*.*.*.*.*.*.*.E E E ! ! ! E E E ! ! ! ! ! E E E ! ! E E ! E ! *.*.*.*.*.*.*.*.*.*.*.5 5 g.g.g.g.g.g.g.",
"r.g.g.g.g.g.g.2 2 %.%.%.%.%.%.%.%.%.%.%.%.%.%.%.%.%.%.%.%.%.%.%.%.%.%.%.%.%.%.%.%.%.%.%.%.%.%.%.%.%.%.%.%.%.%.2 > g.g.g.g.g.g.r.",
"r.r.g.g.g.g.g.: : @.@.@.@.@.@.@.@.@.@.@.@.@.@.@.@.@.@.@.@.@.@.@.@.@.@.@.@.@.@.@.@.@.@.@.@.@.@.@.@.@.@.@.@.@.@.: > g.g.g.g.g.r.r.",
"g.b.b.b.g.g.g.= = @.@.@.@.@.@.@.@.@.@.@.@.@.@.@.@.@.@.@.@.@.@.@.@.@.@.@.@.@.@.@.@.@.@.@.@.@.@.@.@.@.@.@.@.@.@.= = b.g.g.g.g.g.g.",
"g.b.b.b.g.g.g.% % P P P P @.@.@.@.@.@.@.@.@.@.@.@.@.@.@.@.@.@.| @.@.@.@.@.@.@.@.@.@.| | @.@.@.@.@.@.@.P P P P = = b.b.g.g.g.g.g.",
"g.g.b.b.g.g.g.O O P P P P P P P P P P P P P P P P P P P P P P P P P P P P P P P P P P P P P P P P P P P P P P O O g.g.g.g.g.g.b.",
"b.b.b.b.b.b.b.O O P P P P P P P P P P P P P P P P P P P P P P P P P P P P P P P P P P P P P P P P P P P P P P O O b.b.b.b.b.b.b.",
"b.b.b.b.b.b.b.O O X.@.@.@.@.@.@.@.X.@.@.P P P P P P P P P P P P P P P P P P P P P P P P X.@.X.X.@.@.@.X.@.@.X.O O b.b.b.b.b.b.b.",
"b.b.b.b.b.b.b.O O X.X.@.@.@.@.@.X.X.@.@.X.X.X.@.@.@.@.@.@.@.@.@.@.@.@.@.@.@.@.@.X.X.@.@.@.@.X.X.@.@.@.@.@.@.@.O O b.b.b.b.b.b.b.",
"b.b.b.b.b.b.b.O O @.@.@.@.@.X.X.X.@.@.@.@.@.@.@.@.@.@.@.@.@.@.@.@.@.@.@.@.@.X.X.@.@.@.@.@.@.@.X.X.X.@.@.@.@.@.O O b.b.b.b.b.b.b.",
"b.b.b.b.b.b.b.O O X.@.@.@.@.@.X.X.@.@.@.@.X.@.@.@.@.@.@.@.@.X.X.@.X.@.@.@.@.@.X.@.@.@.@.@.@.@.X.X.@.@.@.@.@.X.O O b.b.r.b.r.b.r.",
"r.r.r.r.r.r.r.O O ] ] ] ] ] ] ] ] ] ] ] ] ] ] ] g g g g g g g g g g g g g g g g ] ] ] ] ] ] ] ] ] ] ] ] ] ] ] O O r.r.r.r.r.r.r.",
"r.r.r.r.r.r.r.O O ] ] ] ] ] ] ] ] ] ] ] ] ] ] g F F F F F F F F F F F F F F F F g ] ] ] ] ] ] ] ] ] ] ] ] ] ] O O r.r.r.r.r.r.r.",
"w.w.w.w.w.w.w.O O ] ] ] ] ] ] ] ] ] ] ] ] ] ] F   X X X X X X X X X o X o o X   F ] ] ] ] ] ] ] ] ] ] ] ] ] ] O O w.w.w.w.w.w.w.",
"w.w.w.w.w.w.w.O O ] ] ] ] ] ] ] ] ] ] ] ] ] / F                                 F ] ] ] ] ] ] ] ] ] ] ] ] ] / O O w.w.w.w.w.w.w.",
"8.8.8.8.8.8.8.O O / / / / / / / / / / / / / / @.F F F F F F F F F F F F F F F F @./ / / / / / / / / / / / / / O O 8.8.8.8.8.8.8.",
"8.8.8.8.8.8.8.O O / / / / / / / / / / / / / / / ] ] ] ] ] ] ] ] ] ] ] ] ] ] ] ] / / / / / / / / / / / / / / / O O 8.8.8.8.8.8.8.",
"5.5.5.5.5.5.5.O O / / / E / / / / / / / / / / / / / / / / / / / / / / / / / / / / / / / E / / / / / / / / / / O O 5.5.5.5.5.5.5.",
"5.5.5.5.5.<.5.O = C C C C E E E E E E E E E E E E E E E E E E E E E E E E E E E E E E E E E E E E E E C C C C = = 5.5.5.5.4.5.4.",
"<.<.<.<.<.<.<.= = C C C C C C C C C C C C C C C C C C C C C C C C C C C C C C C C C C C C C C C C C C C C C C = = <.<.<.<.<.<.<.",
"<.>.,.>.<.<.<.= = C C C C C C C C C C C C C C C C C C C C C C C C C C C C C C C C C C C C C C C C C C C C C C = = <.<.<.<.<.>.<.",
">.>.>.>.>.>.>.= = P P P T P P P P P P P C C C C C C C C C C C C C C C C C C C V C C C C P P P P P P P P P P E = = >.>.>.>.>.>.>.",
">.>.>.>.>.>.:.= = P P P P P P P P P P P P P P P P P P P P P P P P P P P P P P P P P P P P P P P P P P P P P P = = >.>.>.:.:.:.>.",
"%.%.%.%.%.%.%.= = P P P P P P P P P P P P P P P P P P P P P P P P P P P P P P P P P P P P P P P P P P P P P P > = %.%.%.%.%.%.%.",
"$.$.%.%.%.%.%.> > P P P P P P P P P P P P P P P P P P P P P P P P P P P P P P P P P P P P P P P P P P P P P P > > %.%.%.%.$.%.%.",
"@.@.@.@.@.@.@.> > d d d d P P P F F F F F F F F F F F F F F F F F F F F F F F F F F F F P P P P F F F d d d d > > @.@.@.@.@.@.@.",
"@.@.X.@.@.@.@.> > y y y d d y y y y y y y y y y y y y y y y y y y y y y y y y y y y y y d d y y y y y y y y y > > @.@.@.@.@.@.@.",
"] ] ] ] ] ] ] > > y y y y y y y y y y w w w y y y y y y y y y y y y y y y y y w y w y y y y y y y y y y y y w > > ] ] ] ] ] ] ] ",
"/ / / / / / / > > C C C C C C C C C C C e e e e e e e e e e e e e e e e e e e e e e e e C C C C C C C C C C C > > / / / / / / / ",
"/ / / / / / / > > C C C C C C C C C C C C C C C C C C C C C C C C C C C C C C C C C C C C C C C C C C C C C C > > / / / / / / / ",
"E E E E E E E 5 5 C C C C C C C C C C C C C C C C C C C C C C C C C C V C C C C C C C C C C C C C C C C C C C 5 5 E E E E E E E ",
"E E E E E E E 5 5 n n n n n n n n n n n n n n n n n n n n n n n n n n n n n n n n n n n n n n n n n n n n n n 5 5 E E E E E E E ",
"P P P P P P P 5 5 > > > > n n n n n n n n n n n n n n n n n n n n n n n n n n n n n n n n n n n n n n > > > > 5 5 P P P P P P P ",
"P P P P P P P 5 5 > > > > > > > > > > > > > > > > > > > > > > > > > > > > > > > > > > > > > > > > > > > > > > 5 5 P P P P P P P ",
"F F F F F F F 5 5 > > > > > > > > > > > > > > > > > > > > > > > > > > > > > > > > > > > > > > > > > > > > > > 5 5 F F F F F F F ",
"F F F F F F F 5 5 c c c c c c c c c c c > > > > > > > > > > > > > > > > > > > > > > > > c c c c c c c c v c c 5 5 F F F F F F F ",
"C C C C C C C 5 5 c c c c c c c c c c c c c c c c c c c c c c c c c c c c c c c c c c c c c c c c c c c c c c 9 5 C C C C C C C ",
"C C C C C C C 9 9 c c z c c c c c c c c c c c c c c c c c c c c c c c c c c c c c c c c c c c c c c c c z z z 9 9 C C C C C C V ",
"n n n n n n n e e e g g g g g z g g g g g g z z g g g g g g g g g g g g g g g g g g g g g g g c g g g g g g e e e n n n n n n n ",
"n n n n n n n e e e > > > g g g g g g g g g g g g g g g g g g g g g g g g g g g g g g g g g g g g g g > > > e e e v n n n n n n ",
"c c c c c c c e e e > > > > > > > > > > > > > > > > > > > > > > > > > > > > > > > > > > > > > > > > > > > > e e e c c c c c c c ",
"c c c c z c g e e e e > > > > > > > > > > > > > > > > > > > 1 > > > > > > > 1 > > > > > > > > > > > > > > e e e e c z z z c c c ",
"g g g g g g g g e e e d d d d d d d d d 5 5 5 5 5 5 5 5 5 5 5 5 5 5 5 5 5 5 5 5 5 5 5 5 d d d d d d d d d e e e g g g g g g g g ",
"d d d d d d d d y y y d d d d d d d d d d d d d d d d d d d d d d d d d d d d d d d d d d d d d d d d d d y y y d d d d d d d d ",
"d d d d d d d d y y y d y y y y d d d d y d d d d d d d y y d d d d d d y y d d d d d d y y d d d d d d y w y y d d d d d d d d "
};
