/* XPM */
static char *_b0e64eaf9ae48958bba147ae39822aecFtY2r61fjT1XMWB[] = {
/* columns rows colors chars-per-pixel */
"64 64 145 2 ",
"   c #424343",
".  c #474949",
"X  c #4A4A4A",
"o  c #4E5151",
"O  c #545454",
"+  c #565B5B",
"@  c #5B5B5B",
"#  c #4C7D4D",
"$  c #537453",
"%  c #547D54",
"&  c #5E755E",
"*  c #577E58",
"=  c #5B7B5B",
"-  c #5D6464",
";  c #636363",
":  c #646D65",
">  c #646D6D",
",  c #6A6A6A",
"<  c #617361",
"1  c #657D65",
"2  c #677768",
"3  c #6C736C",
"4  c #697969",
"5  c #6A7474",
"6  c #6E7979",
"7  c #727272",
"8  c #747D74",
"9  c #767979",
"0  c #7B7C7C",
"q  c #3E973F",
"w  c #3A9C3C",
"e  c #34A636",
"r  c #33A835",
"t  c #36A238",
"y  c #3EA73F",
"u  c #3AAD3C",
"i  c #34B436",
"p  c #37B338",
"a  c #3BB13D",
"s  c #5CEF07",
"d  c #5CF505",
"f  c #3FA541",
"g  c #3EAB40",
"h  c #468A47",
"j  c #4A824B",
"k  c #4D8D4E",
"l  c #419143",
"z  c #459F46",
"x  c #4C934D",
"c  c #4A9C4B",
"v  c #4F8950",
"b  c #538354",
"n  c #528B53",
"m  c #578158",
"M  c #5E855E",
"N  c #578A58",
"B  c #5B8B5B",
"V  c #4F9E50",
"C  c #539354",
"Z  c #539B54",
"A  c #5A935B",
"S  c #569958",
"D  c #5D9D5E",
"F  c #44A345",
"G  c #43AA44",
"H  c #4CA34D",
"J  c #47A849",
"K  c #4BAD4D",
"L  c #44B445",
"P  c #47B049",
"I  c #4CB34D",
"U  c #53A754",
"Y  c #53AB54",
"T  c #56A258",
"R  c #5AA45B",
"E  c #56A858",
"W  c #4EB050",
"Q  c #5F8460",
"!  c #5F9060",
"~  c #5F9F60",
"^  c #618362",
"/  c #638C64",
"(  c #678568",
")  c #6C846C",
"_  c #6A8C6B",
"`  c #649765",
"'  c #639C64",
"]  c #679768",
"[  c #6B936C",
"{  c #679868",
"}  c #6F8E70",
"|  c #738473",
" . c #748B74",
".. c #778778",
"X. c #7B847C",
"o. c #778978",
"O. c #798879",
"+. c #5FA060",
"@. c #ADEF07",
"#. c #B0F505",
"$. c #758282",
"%. c #7C8484",
"&. c #818383",
"*. c #818282",
"=. c #808080",
"-. c #848686",
";. c #838383",
":. c #868989",
">. c #828C8C",
",. c #838E8E",
"<. c #848F8F",
"1. c #8B8B8B",
"2. c #859191",
"3. c #8D9191",
"4. c #8E9393",
"5. c #919696",
"6. c #979797",
"7. c #939393",
"8. c #929898",
"9. c #949B9B",
"0. c gray60",
"q. c #9B9B9B",
"w. c #9D9D9D",
"e. c #9F9F9F",
"r. c #98A0A0",
"t. c #99A2A2",
"y. c #9BA2A2",
"u. c #9AA3A3",
"i. c #9BA3A3",
"p. c #9DA1A1",
"a. c #9EA0A0",
"s. c #9FA0A0",
"d. c #9EA1A1",
"f. c #9CA2A2",
"g. c #98A4A4",
"h. c #99A4A4",
"j. c #98A5A5",
"k. c #9BA5A5",
"l. c #9CA6A6",
"z. c #9DA9A9",
"x. c #9DAAAA",
"c. c #9EABAB",
"v. c #A0A0A0",
"b. c #EFEFEF",
"n. c gray96",
/* pixels */
"j.j.j.j.j.j.j.j.$.$.$.x.x.x.x.x.x.x.x.x.x.x.x.x.x.x.x.x.x.x.x.x.x.x.x.x.x.x.x.x.x.x.x.x.x.x.x.x.x.x.x.x.x.$.$.$.j.j.j.j.j.j.j.j.",
"j.j.j.j.j.j.j.j.$.$.$.x.x.x.x.x.x.x.x.x.x.x.x.x.x.x.x.x.x.x.x.x.x.x.x.x.x.x.x.x.x.x.x.x.x.x.x.x.x.x.x.x.x.$.$.$.j.j.j.j.j.j.j.j.",
"j.j.j.j.j.j.j.j.9 9 9 2.2.x.x.x.x.x.x.x.x.x.x.x.x.x.x.x.x.x.x.x.x.x.x.x.x.x.x.x.x.x.x.x.x.x.x.x.x.x.x.2.2.9 9 9 j.j.j.j.j.j.j.j.",
"j.j.j.j.j.j.j.6 6 6 6 <.<.,.<.<.<.<.<.<.<.<.<.<.<.<.<.<.<.<.<.<.<.<.<.<.<.<.<.<.<.<.<.<.<.<.<.<.<.<.<.<.<.6 6 6 6 j.j.j.j.j.j.j.",
"j.j.j.j.j.j.j.6 6 6 <.,.,.,.,.,.,.,.,.,.,.,.,.,.,.,.,.,.,.,.,.,.,.,.,.,.,.,.,.,.,.,.,.,.,.,.,.,.,.,.,.,.,.,.6 6 6 j.j.j.j.j.j.j.",
"j.j.j.j.j.j.j.5 5 5 l.l.l.l.l.l.l.l.l.l.,.,.,.,.,.,.,.,.,.,.,.,.,.,.,.,.,.,.,.,.,.,.,.,.l.l.l.l.l.l.l.l.l.l.5 5 5 j.j.j.j.j.j.j.",
"u.u.u.u.u.u.u.5 5 5 j.j.j.j.j.j.j.j.j.j.j.j.j.j.j.j.j.j.j.j.j.j.j.j.j.j.j.j.j.j.j.j.j.j.j.j.j.j.j.j.j.j.j.j.5 5 5 u.u.u.u.u.u.u.",
"u.u.u.u.u.u.u.> > u.u.u.u.u.u.u.u.u.u.u.u.u.u.u.u.u.u.u.u.u.u.u.u.u.u.u.u.u.u.u.u.u.u.u.u.u.u.u.u.u.u.u.u.u.u.> > u.u.u.u.u.u.u.",
"u.u.u.u.u.u.u.> > u.u.u.u.u.u.u.u.u.u.u.u.u.u.u.u.u.u.u.u.u.u.u.u.u.u.u.u.u.u.u.u.u.u.u.u.u.u.u.u.u.u.u.u.u.u.> > u.u.u.u.u.u.u.",
"u.u.u.u.u.u.u.> > %.%.%.%.u.u.u.u.u.w.w.u.u.u.u.u.u.u.u.u.u.u.u.u.u.u.u.u.u.w.w.u.u.w.w.u.u.u.u.u.u.u.%.%.%.%.> > u.u.u.u.u.u.u.",
"u.u.u.u.u.u.u.- - %.%.%.%.%.%.%.%.%.%.%.%.%.%.%.%.%.%.%.%.%.%.%.%.%.%.%.%.%.%.%.%.%.%.%.%.%.%.%.%.%.%.%.%.%.%.- - u.u.u.u.u.u.u.",
"u.u.u.u.u.u.u.- - %.%.%.%.%.%.%.%.%.%.%.%.%.%.%.%.%.%.%.%.%.%.%.%.%.%.%.%.%.%.%.%.%.%.%.%.%.%.%.%.%.%.%.%.%.%.- - u.u.u.u.u.u.u.",
"f.f.f.f.f.f.f.- - 9.9.9.9.9.9.9.9.8.8.8.%.%.%.%.%.%.%.%.%.%.%.%.%.%.%.%.%.%.%.%.%.%.%.%.9.9.9.9.9.9.9.9.9.9.9.- - f.f.f.f.f.f.f.",
"f.f.f.f.f.f.f.@ @ 8.8.8.8.8.8.8.8.8.8.8.8.8.8.8.8.8.8.8.5.5.8.8.8.8.8.8.8.8.8.8.8.8.8.8.8.8.8.8.8.8.8.8.8.8.8.@ @ f.f.f.f.f.f.f.",
"f.f.f.f.f.f.f.+ + 5.5.5.5.5.5.5.5.5.5.5.5.5.5.5.5.5.5.5.5.5.5.5.5.5.5.5.5.5.5.5.5.5.5.5.5.5.5.5.5.5.5.5.5.5.5.+ + f.f.f.f.f.f.f.",
"f.f.f.f.f.f.f.+ + 4.4.4.4.4.4.4.4.4.4.4.4.4.4.4.4.4.4.4.4.4.4.4.4.4.4.4.4.4.4.4.4.4.4.4.4.4.4.4.4.4.4.4.4.4.4.+ + f.f.f.f.f.f.f.",
"f.f.f.f.f.f.f.O O 0 0 0 0 4.4.4.4.4.4.4.4.4.4.4.4.4.4.4.4.4.4.4.4.4.4.4.4.4.4.4.4.4.4.4.4.4.4.4.4.4.4.0 0 0 0 O O f.f.f.f.f.f.f.",
"f.f.f.f.f.f.f.O O 9 9 9 9 9 9 9 9 9 9 9 9 9 9 9 9 9 9 9 9 9 9 9 9 9 9 9 9 9 9 9 9 9 9 9 9 9 9 9 9 9 9 9 9 9 9 O O f.f.f.f.f.f.f.",
"f.f.f.f.f.f.f.o o 9 9 9 9 9 9 9 9 9 9 9 9 9 9 9 9 9 9 9 9 9 9 9 9 9 9 9 9 9 9 9 9 9 9 9 9 9 9 9 9 9 9 9 9 9 9 o o f.f.f.f.f.f.f.",
"f.f.f.f.f.f.f.X X :.:.:.:.:.:.:.:.:.:.:.9 9 9 9 9 9 9 9 9 9 9 9 9 9 9 9 9 9 9 9 9 9 9 9 :.:.:.:.:.:.:.:.:.:.:.X X f.f.f.f.f.f.f.",
"f.f.e.e.f.f.f.X X -.-.-.-.-.-.-.-.-.-.-.-.-.-.-.-.-.-.-.-.-.-.-.-.-.-.-.-.-.-.-.-.-.-.-.-.-.-.-.-.-.-.-.-.-.-.. X f.f.f.f.e.e.e.",
"f.f.e.e.f.f.f.. . &.&.&.&.&.&.&.&.&.&.&.&.&.&.&.&.&.&.&.&.&.&.&.&.&.&.&.&.&.&.&.&.&.&.&.&.&.&.&.&.&.&.&.&.&.&.. . f.f.f.f.f.e.e.",
"v.v.v.v.f.f.f.. . &.&.&.&.&.&.&.&.&.&.&.&.&.&.&.&.&.&.&.&.X.X.X.X.X.X.X.%.&.&.&.&.&.&.&.&.&.&.&.&.&.&.&.&.&.&.. . v.f.f.f.f.f.f.",
"v.v.v.v.f.f.f.    7 7 7 7 &.&.&.&.&.&.&.&.&.&.&.&.&.%.X.O.o. . . . . . .O.X.X.&.&.&.&.&.&.&.&.&.&.&.&.7 7 7 7 . . v.f.f.f.f.f.f.",
"f.f.f.f.f.f.f.    7 7 7 7 7 7 7 7 7 , , 7 7 7 7 7 3 3 1 1 ^ ^ Q M Q ^ ^ 1 1 4 3 7 7 7 7 7 7 7 7 7 7 7 , , 7 7     f.f.f.f.f.f.f.",
"v.v.v.v.v.v.v.    7 7 7 , , 7 7 7 7 7 , 7 7 7 7 3 4 1 ^ M M B B B B B M M ^ 1 4 3 7 7 , 7 7 7 7 7 7 7 7 7 7 7     v.v.v.v.v.v.v.",
"v.v.v.v.v.v.v.    =.&.&.0 =.0 &.&.&.=.=.7 7 7 3 4 1 ^ M B N C C C C C N B M Q 1 4 3 7 7 =.=.&.&.&.&.=.=.&.&.&.    v.v.v.v.v.v.v.",
"v.v.v.v.v.v.v.    =.&.&.0 0 0 =.&.&.=.=.=.=.X.O. .[ ] ` ' R R R R R R R ' ` ] [  ...X.=.=.=.&.&.&.&.=.=.&.&.&.    e.e.v.v.v.v.v.",
"v.e.e.e.v.v.v.    &.&.&.&.&.&.&.&.&.&.&.&.&.X. . .] ` ' R R E Y Y Y Y E R +.' ] _  .O.0 &.&.&.&.&.&.&.&.&.0 0     v.v.e.v.v.v.v.",
"v.v.v.e.v.v.v.    &.&.&.&.&.&.&.&.&.0 &.&.&.O. .[ { ' R E Y W I I I I Y E R ~ ` [  . .X.&.&.&.&.&.&.&.&.0 0 =.    v.e.e.v.v.v.v.",
"e.e.e.e.e.e.e.    0 0 =.=.=.0 0 0 0 0 0 0 X...} % j h l q w t e r r e w q l h j ] _  .X.0 0 0 0 =.=.=.0 0 0 0     e.e.e.e.e.e.e.",
"e.e.e.e.e.e.e.    0 0 0 0 0 0 0 0 0 0 0 0 X. .$ B N C c F G a p p p a g F c x C # [  .X.0 0 0 0 0 0 0 0 0 0 0     e.e.e.e.e.e.e.",
"q.q.q.q.q.q.q.    0 0 0 0 0 0 0 0 0 0 0 0 X.| Q n.#.d d d d d d d d d d d d #.n.N _  .| 0 0 0 0 0 0 0 0 0 0 0     q.q.q.q.q.q.q.",
"q.q.q.q.q.q.q.    0 0 0 0 0 0 0 0 0 0 0 0 8 | = b.@.s s s s s s s s s s s s @.b.N _ ) | 0 0 0 0 0 0 0 0 0 0 0     q.q.q.q.q.q.q.",
"6.6.6.6.6.6.6.    9 9 9 0 9 0 0 9 9 9 9 0 8 |  .m n x c z f u p i i u y F c x n ] ( ) | 9 9 9 9 9 9 9 9 0 0 0     6.6.6.6.6.6.6.",
"6.6.6.6.6.6.6.    9 9 9 9 9 9 9 9 9 9 9 9 8 | ) [ ` D R U K K L L L P K U T D ' / ( ) 8 9 9 9 9 9 9 9 9 9 9 9     6.6.6.6.6.6.6.",
"7.7.7.7.7.7.7.    9 9 9 9 9 9 9 9 9 9 9 9 8 8 ) / / A S Z H H J J J J H Z S A ! / ) ) 8 9 9 9 9 9 9 9 9 9 9 9     7.7.7.7.7.7.7.",
"7.7.7.7.7.7.7..   , , , , 9 9 9 9 9 9 9 9 9 8 4 ( / B A S Z V H H H c Z S A A / ( ) 8 8 9 9 9 9 9 9 9 , , , ,   . 7.7.7.3.3.7.7.",
"1.1.1.1.1.1.1.. . , , , , , , , , , , , , , : < & * m b n k k x x x k k n b b * = < : , , , , , , , , , , , , . . 1.1.1.1.1.1.1.",
"1.1.1.1.1.1.1.. . , , , , , , , , , , , , , , : < & = * b b n v v v n b b b * = < : , , , , , , , , , , , , , . . 1.1.1.1.1.1.1.",
"1.1.1.1.1.1.1.. . 7 7 7 7 7 7 7 9 9 9 7 , , , : : & & = * * b b b b b * * = & & : : , , 7 7 7 7 7 7 7 7 7 7 7 . . 1.1.1.1.1.1.1.",
"1.:.:.:.1.:.1.. . 7 7 7 7 7 7 7 7 7 7 7 7 7 7 7 3 3 4 1 1 ^ ^ ^ ^ ^ ^ ^ ( 1 4 4 3 7 7 7 7 7 7 7 7 7 7 7 7 7 7 . . 1.1.:.:.:.:.1.",
"-.-.-.-.-.-.-.. . 7 7 7 7 7 7 7 7 7 7 7 7 7 7 7 7 3 3 4 4 1 1 1 1 1 1 1 4 4 3 3 7 7 7 7 7 7 7 7 7 7 7 7 7 7 7 . . -.-.-.-.-.-.-.",
"-.-.;.;.-.-.-.. . 7 7 7 7 7 7 7 7 7 7 7 7 7 7 7 7 7 3 3 3 3 3 3 2 2 3 3 3 3 3 7 7 7 7 7 7 7 7 7 7 7 7 7 7 7 7 . . -.-.;.-.;.-.-.",
"&.&.&.&.&.&.&.. . @ @ @ @ , , , , , , , , , , 7 , , , , , 3 3 3 3 3 3 3 , , , , , , , 7 , , , , , 7 , @ @ @ @ . . &.&.&.&.&.&.&.",
"&.&.=.=.&.&.&.. . O O @ O O O O + @ O O O O O @ O O O O O O O O O O O O + @ O O O O O @ O O O O O O O + + + + . . =.=.=.&.=.&.&.",
"0 0 0 0 0 0 0 . . O O O O O O O O O O O O O O O O O O O O O O O O O O O O O O O O O O O O O O O O O O O O O O . . 0 0 0 0 0 0 0 ",
"9 9 9 9 9 9 9 . . , , , , , , , , , , , O O O O O O O O O O O O O O O O O O O O O O O O , , , , , , , , , , , . . 9 9 9 0 9 9 0 ",
"9 9 9 9 9 9 9 X X , , , , , , , , , , , , , , , , , , , , , , , , , , , , , , , , , , , , , , , , , , , , , , X . 9 9 9 9 9 9 9 ",
"9 9 9 9 9 9 9 X X , , , , , , , , , , , , , , , , , , , , , , , , , , , , , , , , , , , , , , , , , , , , , , X X 9 9 9 9 9 9 9 ",
"9 9 9 9 9 9 9 X X , ; ; , ; ; ; ; , , ; ; ; ; ; , , ; ; ; ; ; ; ; ; ; ; ; ; ; ; , , ; ; ; ; ; ; , , ; ; ; ; , X X 9 9 9 9 9 9 9 ",
"7 7 7 7 7 7 7 X X . . . . ; ; ; ; ; ; ; ; ; ; ; ; ; ; ; ; ; ; ; ; ; ; ; ; ; ; ; ; ; ; ; ; ; ; ; ; ; ; . . . . X X 9 9 9 7 7 7 7 ",
"7 7 7 7 7 7 7 X X . . . . . . . . . . . . . . . . . . . . . . . . . . . . . . . . . . . . . . . . . . . . . . X X 7 7 7 7 7 7 7 ",
", , , , , , , X X . . . . . . . . . . . . . . . . . . . . . . . . . . . . . . . . . . . . . . . . . . . . . . X X , , , , , , , ",
", , , , , , , o X ; ; ; ; ; ; ; ; ; ; ; . . . . . . . . . . . . . . . . . . . . . . . . ; ; ; ; ; ; ; ; ; ; ; O X , , , , , , , ",
", , , , , , , o X ; ; ; ; ; ; ; ; ; ; ; ; ; ; ; ; ; ; ; ; ; ; ; ; ; ; ; ; ; ; ; ; ; ; ; ; ; ; ; ; ; ; ; ; ; ; O X , , , , , , , ",
", , , , , , , O O ; ; ; ; ; ; ; ; ; ; ; ; ; ; ; ; ; ; ; ; ; ; ; ; ; ; ; ; ; ; ; ; ; ; ; ; ; ; ; ; ; ; ; ; ; ; o o , , , , , , , ",
"; ; ; ; ; ; ; O O O @ @ @ @ ; ; @ @ @ @ @ @ ; ; ; ; @ @ @ @ ; ; @ ; @ @ @ @ ; ; ; ; @ @ @ @ ; ; @ @ @ @ @ @ O O O ; ; ; ; ; ; ; ",
"; ; ; ; ; ; ; O O O . . . @ @ @ @ @ @ @ @ @ @ @ @ @ @ @ @ @ @ @ @ @ @ @ @ @ @ @ @ @ @ @ @ @ @ @ @ @ @ . . . O O O ; ; ; ; ; ; ; ",
"; ; ; ; ; ; ; O O O . . . . . . . . . . . . . . . . . . . . . . . . . . . . . . . . . . . . . . . . . . . . O O O ; ; ; ; ; ; ; ",
"; ; ; ; ; ; @ O O O O . . . . . . X . . . . X X . . X . . . X X . . X X . . X X . . X . . . . . . X . . . O O O O ; ; ; ; ; @ @ ",
"@ @ @ @ @ @ @ @ O O O @ @ @ @ @ @ @ @ @ X X X X X X X X X X X X X X X X X X X X X X X X @ @ @ @ @ @ @ @ @ O O O @ @ @ @ @ @ @ @ ",
"@ @ @ @ @ @ @ @ O O O @ @ @ @ @ @ @ @ @ @ @ @ @ @ @ @ @ @ @ @ @ @ @ @ @ @ @ @ @ @ @ @ @ @ @ @ @ @ @ @ @ @ O O O @ @ @ @ @ @ @ @ ",
"@ @ @ @ @ @ @ @ O O O + @ @ + + @ @ @ @ + + @ @ @ @ @ @ + @ @ @ @ @ @ @ + @ @ @ @ @ @ @ + @ @ @ @ @ @ @ + O O O @ @ @ @ @ @ @ @ "
};
