/* XPM */
static char *b2c8c7ded9494556891329c4a03d6352JwmDZ1WBzGx77SdM[] = {
/* columns rows colors chars-per-pixel */
"64 64 63 1 ",
"  c #210040",
". c #24014C",
"X c #260256",
"o c #27055B",
"O c #280463",
"+ c #2B0867",
"@ c #2B066A",
"# c #2D0973",
"$ c #310B7F",
"% c #320C82",
"& c #340E89",
"* c #390F9C",
"= c #3B139E",
"- c #3B13A2",
"; c #3F14AE",
": c #4016AD",
"> c #4119AC",
", c #4116B2",
"< c #4316BC",
"1 c #461CBD",
"2 c #491DC7",
"3 c #491ACE",
"4 c #4500DF",
"5 c #4B1DD2",
"6 c #4F1DDE",
"7 c #501FDF",
"8 c #4B21CB",
"9 c #4F23D6",
"0 c #4F20D9",
"q c #4604E1",
"w c #4807E3",
"e c #4A0CE5",
"r c #4D0FE8",
"t c #4D11E6",
"y c #4F18E7",
"u c #4E13E9",
"i c #501AE5",
"p c #5016EB",
"a c #521BED",
"s c #541FF0",
"d c #5221E3",
"f c #5428E5",
"g c #5523ED",
"h c #5622F1",
"j c #5724F2",
"k c #5726F4",
"l c #5824F2",
"z c #5826F4",
"x c #5828F4",
"c c #5928F4",
"v c #5A2CF6",
"b c #5C2EF7",
"n c #5C2FF7",
"m c #5B2EF8",
"M c #5C2EF8",
"N c #5D30F9",
"B c #5F34FB",
"V c #5F36FC",
"C c #6034FB",
"Z c #6035FC",
"A c #6038FD",
"S c #633AFE",
"D c #633CFF",
/* pixels */
"hhhhhjjjzlzzccccccvvvbMbMNNNNNNNBBBVVAZAAAAAADDDDDDDDDDADDDDDDDD",
"hhhhhhjjjlzzcccccccvvvbMMMNNNNNNBBBBBZZZZAAAAADDDDDDDDDDDADDDDDD",
"hhhhhhjjjlzllcccccccvvMmMMMMNNNNNBNBBCZZZZAAAAADDDDADDDDDDADDDDD",
"shhhhhhjjjjllccccccccvmmmmMMNNNNNNNNBBZZZAAAAAAAAADDDADDDDDDDDDD",
"sshhhhhhjjjlllzcccccccvmbbbbMNNNNNNNBBCZZZAAAAAAAAADADDDDDDDDDDD",
"ashhhhhhhjjjjkzzccccccvvvvbmbNNNNNNBBBBBCCZZZAAAAAAADADDDDADDDDD",
"aasshhhhhhjjjjlzzccccccvvvvvmMMNNNNNNBNBZBZZZZAAAAAAADDDDDDDDDDD",
"aaasshhhhhhhjjjlzccccccccvvvvbMMNNNNNNNNBBZVZZZAAAAAADDDDDDDDDAD",
"aaashhhhhhhhhjljlzzcccccccmmmvbNMNNNNNNNNBBBZZZZAAAAAADDDDDDDDAD",
"aaaaahhhhhhhhjjjlllzzcccccvcmvMMbMNNNNNNNBBBVZZZAAAAAADDDDDDDDDD",
"aaaaaashhhhhhhhjjlzlzzccccccvvmvMMMNNNNNNNBBBCCZZAAAAAADADDDDDDD",
"aaaaaaaahhhhhhhhjjjllzzcccccccvvbbMMNNNNNNBBBBCZZAAAAAAAAADDDDDD",
"aaaaaaasshhhhhhhjjjljzlzcccccccvbbMMMMNNNNNNBBCBZZZZAAAAAADDDDDD",
"aaaaaaaaaashhhhhjjjjjlzzcccccccvvbvMMMNNNNNNBBBBZZZZAAAAAADDDDDD",
"aaaaaaaaasaahhhhhhjjjjjzcccccccvvvvbbMNNNNNNNBBBCZCZZZAAAAADADDD",
"aaaaaaaaaaaahhhhhhhhjjjjzzccccccccvvvbbMNNNNNNNBCZCZCZAAAAAAAADD",
"paaaaaaaaaasshhhhhhhjjjlzlzzcccccvvvMmMMMMNNNNNNBBBBZZAAAAAAAAAD",
"pppaaaaaaaaasshhhhhhhhjjlllzzccccccmvmbMMMMNNNNNNBBBCZZAAAAAAAAA",
"ppaaaaaaaaaaasshhhhhhhhjjjjzlcccccccvvvmvMMMNNNNNBNBBCZZAAAAAAAA",
"ppapaaaaaaaaaai             &zcccccccccvbbMMMNNNNNNNBBCVZZAAAAAA",
"puppppaaaaaaaai             &lzzccccccvvvvbMMMNNNNNNBBBCZZZAAAAA",
"uupppapaaaaaaai             &zlzccccccccvvvMMMMNNNNNNNBBCZZZAAAA",
"uuuuppaaaaaaaai  OaahhhhhhhjjjjlccccccccvvvvMMMMNNNNNNNBBVZZZAAA",
"uuupuppaaaaaaap  OaahhhhhhhhjjjkzccccccccvcbvMMMNNNNNNNNBBVZZZZA",
"uuuupupapaaaaai  OassshhhhhhjjjjkkzcccccccvvbvmMNNNNNNNNBBZBZZZZ",
"uuuuuupppaaaaap  Oaaasshhhhhhhjjjjd2-%O.o$>fvvvmbNMMNNNNBBBBZVZZ",
"uuuuupppppaaaap  Oaaaaaahhhhhhhjjl          1vbmMMMNNNNNNBBBBVCZ",
"uuuuuuuupppaaay  Oaaaassahhhhhhhjj           8vvmbMMMNNNNNNNBBBV",
"uuuuuuupuppaaai             3hhhjj#:5dglf9=  +cvvvbMNNNNNNNBBBCB",
"uuuuuuuupupppay             3hhhhjjjllzzzcc1  9vcvvmvMMNNNNNBBNB",
"tuuuuuuuuuuuppy             3hhhhhjjjjzzzccg  1cvvbbbbMMNNNNBNNB",
"rttuuuuuuuuuppy  Oaaaaaaaaaahhhhhhhd,&O.      >cccvvvbMMMNNNNNNB",
"rrtuuuuuuuuuuuy  Oaaaaaaaaaaahhhhh,.          -cccmvmmMMMMNNNNNN",
"rrrruuuuuuuuupy  Oaaaaaaaaaaaghhh<            =ccccmvmvvbMNNNNNN",
"eerruuuuuuuuuuy  OpaaaaaaaaaaaahhO  -5dgjljg  =ccccccvmvMMMNNNNN",
"eerrrtuuuuuuuuy  Oaaaaaaaaaaaaaai  =hhhhjjl0  =ccccccvvvbvMMMNNN",
"eeerrrtuuuuuuuy  Oppaaaaaaaaaaaa6  -hhhhjjg%  =zcccccccvvbbMMMNN",
"eereerrruutuuut  Oupppaaaaaaaaaai.  ;6gg71@   =zccccccccvvbmMMNN",
"eeeeeerrtuuuuut              paaa*         -  =lcccccccccvvvvbMN",
"eeeeeerrrruuuut              paaai$       =g  =lcccccccccvvvvbbM",
"eeeeeererrtuuut              paaaaa<%X.@*5hg  =jjzzcccccccvvvbMb",
"eeeeeeeerrruuuuuuuuuppupppaaaaaaaasaaaghhhhhhhjjljllzcccccccvvvb",
"eeeeeeeeeerrruuuuuuuuuupppaaaaaaaaaaaasshhhhhhhjjjjlzzzccccccvvb",
"eeeeeeeeerrrrruuuuuuuuuupppaaaaaaaaaaaasghhhhhhhhjjllzczccccccmm",
"wwweeeeeeeerrrtuuuuuuuuuuppppaaaaaaaaaasashhhhhhhhjljllcccccccvm",
"wwweeeeeeeeerrrruuuuuuuuupppppaaaaaaaaaaaaahhhhhhjjjjljzcccccccv",
"wwwwweeeeeerrrrruuuuuuuuuupppppaaaaaaaaaaasshhhhhjhjjllkzzcccccc",
"wwwwweeeeeeeererrutuuuuuuuuppppaaaaaaaaaaaaashhhhhhhjjjkllzccccc",
"qwqwwweeeeeeeeeerrttuuuuuuuuuuuaaaaaaaaaaaaashhhhhhhhjjjllzzcccc",
"qqwwwwweeeeeeeeerrrutuuuuuuuuuuppppaaaaaaaaaaaghhhhhhhhjllllzccc",
"qqqwwwweeeeeeeeeerrtruuuuuuuuppppppaaaaaaaaaaaggshhhhhhjjjjlzccc",
"qqqqwwwweeeeeeeeeerrttuuuuuuuuuuupppaaaaaaaaaaagsshhhhhhhjjjzlcc",
"qqqqwwwwwweeeeeeeerrrrruuuuuuuuuuupppaaaaaaaaaasssshhhhhhhjjjzzz",
"qqqqqqwwwweweeeeeeeeerrruuuuuuuuuppppppaaaaaaaaaaaashhhhhjjjljll",
"qqqqqqqwwwwweeeeeeeerrrrtuuuuuuuuuupppppaaaaaaaaaasshhhhhhhjjjjk",
"qqqqqqqqqwwwweeeeeeeeerrruuuuuuuuuupupppaaaaaaaaaassghhhhhhjjjjj",
"qqqqqqqqqqwwewweeeeeeeeerrutuuuuuuupuupppaaaaaaaaaaashhhhhhhhjjj",
"44qqqqqqqqqqwweeeeeeeeererrrtuuuuuuuuppppaaaaaaaaaaaaghhhhhhhhjj",
"qq4qqqqqqqqqwwwweeeeeeeeerrrtuuuuuuuuupupppaaaaaaaaaaasahhhhhhhj",
"4444qqqqqqqqwwweeeeeeeeeeerrruuuuuuuuuuuppppaaaaaaaaaaaaahhhhhhh",
"44444qqqqqqqqqwwwweeeeeeeeeerrtuuuuuuuupuppppaaaaaaaaaaaashhhhhh",
"444q44qqqqqqqwqwweweeeeeeeeerrrtuuuuuuuupupppaaaaaaaaaaaaaashhhh",
"4444q44qqqqqqqqqwwwwweeeeeeeererruuuuuuuuuuupapaaaaaaaaaaasshhhh",
"444q4444qqqqqqqqwwwweeeeeeeeeerrrtuuuuuuuuupupppaaaaaaaaaaaashhh"
};
