/* XPM */
static char *_6e63a70b3514aecfc2ea565a1a53cd2AZBf4lQtxgrLCJsF[] = {
/* columns rows colors chars-per-pixel */
"64 64 47 1 ",
"  c #000FFF",
". c #0012FF",
"X c #0016FF",
"o c #001AFF",
"O c #001FFF",
"+ c #0022FF",
"@ c #0026FF",
"# c #002BFF",
"$ c #002DFF",
"% c #0032FF",
"& c #003AFF",
"* c #003CFF",
"= c #0043FF",
"- c #0047FF",
"; c #004BFF",
": c #004CFF",
"> c #0051FF",
", c #0055FF",
"< c #005BFF",
"1 c #005CFF",
"2 c #0062FF",
"3 c #0064FF",
"4 c #006BFF",
"5 c #006EFF",
"6 c #0070FF",
"7 c #0076FF",
"8 c #007BFF",
"9 c #007EFF",
"0 c #0082FF",
"q c #0087FF",
"w c #008AFF",
"e c #008DFF",
"r c #0092FF",
"t c #0097FF",
"y c #009BFF",
"u c #009FFF",
"i c #00A3FF",
"p c #00A5FF",
"a c #00A8FF",
"s c #00ACFF",
"d c #00B0FF",
"f c #00B4FF",
"g c #00B8FF",
"h c #00BCFF",
"j c #00C0FF",
"k c #00C4FF",
"l c #00C8FF",
/* pixels */
"pppppaaaassssssssdddddddffffffgggggggghhhhhhjjjjjjjkkkkkkkklllll",
"pppppaaaaasssssssssddddddfffffffggggghhhhhhhhjjjjjjjkkkkkkkkllll",
"pppppaaaaaaaasssssssdddddffffffffgggggghhhhhhhhhjjjjjjkkkkklllll",
"pppppaaaaaaaasssssddsdddddffffffffgggggghhhhhhhhjjjjjjkkkkkkklll",
"ppppppppaaaaasasssssssdddddfffffffgggggghhhhhhhhhhjjjjjkkkkkkkkl",
"ippppppppaaaaaasssssssdddddfdfffffgggggggggghhhhhhjjjjjjkkkkkkkl",
"iiiippppaaaaaaaassssssddddddddffffffgggggggghhhhhhjjjjjjjkkkkkkl",
"iiiippppppaaaaaassssssddddddddddffffffgggggghhhhhhhjjjjjjjjkkkkk",
"iiiiiiipppppaaaaaasssssssdddddddfffffffgggggggghhhhhjjjjjjjjkkkk",
"iiiiiiippppppaaaaaassssssdsddddfffffffffggggggghhhhhjjjjjjjjkkkk",
"uiiiiiiippppppaaaaasaassssddddddfdffffffgfgggggghhhhhhhjjjjjjkkk",
"uiiiiiiiipppppapaaaaaassssssdddddfffffffffggggggghhhhhhhjjjjjjjk",
"uuiiiiiiippppppaaaaaaaassssssddddddfdffffffgggggghhhhhhhjjjjjjjj",
"uuiuuiiiiipppppppaaaaasssssssdsddddddffffffggggggghghhhhhjjjjjjj",
"uuuuuiiiiiipppppppaaaaassssssssssdddddfffffffggggggghhhhhjjjjjjj",
"uuuuuuiiiiippppppaaaaaaaaasssssssdddddfffffffffggggghhhhhhhhjjjj",
"yuuuuuuuiiiiiiipppppaaaaaasssssssddddddddffffffggggggghhhhhhjhjj",
"yuuuuuuuuiiiiiipppppppaaaasssssssddddddddffffffgggggggghhhhhjhhj",
"yyuuuuuuuuiiiiippppppaaaaaasaassssssddddfdffffffffggggghhhhhhhjj",
"yyyuuuuuuuiiiiu   .tpppaaaaaw  9ssssdddddfffffffffgggggggghhhhhj",
"yyyyyuuuuuiiiiu    1ppppaaaaw..9sssssssddddffffffgfgggggghhhhhhh",
"yyyyyuuuuuuuiiu .   rppppaaaw. 9sssssssdddddddfffffggggggghhhhhh",
"yyyyyuuuuuuuuiy  @  ,pppppaaw  9ssssssssddddddfffffffgggggggghhh",
"yyyyyyyuuuuuuuy  ;1  epppppaw  9sssssssssddddddffffffffggggggghh",
"tytyyyuuuuuuuuy  ;t. :ppppppq  9aaasssssssdddddddffffffggggggghh",
"tyttyyyyyyuuuuy  ;i3  wpppppq  9aaassssu7:$+*4rdddffffffgggggghh",
"ttttyyyyyyuuuuy  ;ito =ippppq  8aaaasa7.      .>adffffffgggggggh",
"tttttyyyyyyuuuy  ;ii4  0ppppq  8aaaas5..        *sdffffffggggggg",
"ttttttyyyyyyuuy  ;iiy+ &ipppq  8aaaar.. 1tasi8o .5ddfffffffggggg",
"ttttttyyyyyyyuy  ;uui6  9ippq  8ppaa<  4asssssr .Xpdffffffffgggg",
"rrttttyyyyyyyut  ;uuuy# %uipq  8ppapX $passssss4..wdddffffffgggg",
"rrtttttyttyyyyt  ;uuuu7  7iiq  8pppt .3aaaassssr  7dddddffffffgg",
"rrttttttttyyyyt  ;uuuuu% @yiq  8pppe  8aaasssssu  4ddddfdffffffg",
"rrrtttttttyyyyt  ;uuuuu8  5iq  8pppe  7aaasasssu  4dddddddffffff",
"rrrttttttttyyyt  ;uuuuuu* +y0  8pppt  3aaaaaassr  6sdddddfdfffff",
"rrrrrttttttttyt  ;uuuuuu0  40  7pppio $paaaaaas4  wsssdddddfffff",
"rrrrrttttttttyt  -yuuuuuu- X6  7ippp,  4aaaaaar. Xisdddddddfffff",
"rrrrrrttttttttt  -yyuuyuuq  @  7iippe   <rppu8o  4sssssdddddffff",
"errrrrrtrtttttt  -yyyuyyuu;    7iiipp4          *psssssssdddddff",
"eerrrrrrrrttttr  -yyyyyyuuq    7iiiipi5.     . :iasssssssddddddd",
"eerrrrrrrrttttr  -yyyyyyuuu,   7iiiiiiit5-#O*2waaassssssssddddfd",
"eeeerrrrrrrtttttttyyyyyyyuuuuuuuuiiiiiiipppppaaaaaassssssssddddd",
"eeeeerrrrrrrrtttttttyyyyyyuuuuuuuuiiiiiippppppaaaaaaassssssddddd",
"eeeeeerrrrrrrrtttttttyyyyyyuuuuuuuiiiiiiipppppppaaaaassssssssddd",
"eeeeeerrrrrrrrtttttttttyyyyyuuuuuuuuiiiiipppppppaaaaaasssssssddd",
"weeeeeerrrrrrrttttttttttyyyyyyuuuuuuiiiiiippppppaaaaaaasssssssdd",
"weeeeeeeerrrrrrrttttttyyyyyyyyyuuuuuuiiiiiipppppaaaaaaaaassssssd",
"wwweeeeeerrrrrrrttttttttyyyyyyyyuuuuuiiiiiiipppppppaaaaaasssssss",
"wwwweeeeeeeerrrrrrttttttyyyyyyyyuuuuuuiiiiiiiippppppaaaaaaasssss",
"wwwweeeeeeererrrrrrtttttttyyyyyyuuuuuuuuiiiiiiippppppaaaaaasssss",
"wwwwweweeeeeerrrrrrtrtttttttyyyyyuyuuuuuuiiiiiipppppppaaaaaassss",
"wwwwwweweeeeeerrrrrrrrrttttttyyyyyyyuuuuuuuuiiiipppppppaaaaassss",
"qwwwwwwwweeeeeerrrrrrttttttttttyyyyyyuuuuuiuiiiiiipppppppaaaaass",
"qqwwwwwweeeeeeeerrrrrrrttttttttyyyyyyyuuuuuuiiiiiiipppppaaaaaass",
"qqqwwwwwwweeeeeeererrrrtttttttttyyyyyyuuuuuuiuiiiiiipppppapaaaas",
"qqqqwwwwwwwweeeeererrrrrrttttttttyyyyyyyuuuuuuuiiiiiippppppaaaaa",
"qqqqqqqwwwweweeeeerrrrrrrrtttttttyyyyyyyuuuuuuuiiiiiiiippppppaaa",
"qqqqqqwwwwwwweeeeeeerrrrrrtttttttyttyyyyyuyuuuuuiiiiiiipppppppaa",
"00qqqqqqwwwwweweeeeerrrrrrrrtttttttttyyyyyyuuuuuuuiiiiiippppppaa",
"00qqqqqqwwwwwwwweeeeeerrrrrrrtttttttttyyyyyyuuuuuuuiiiiiippppppp",
"00qqqqqqqwwwwwwweeeeeeerrrrrrtttttttttyyyyyyyyuuuuuiiiiiiipppppp",
"000qqqqqqqqwwwwwweeeeeererrrrrttttttttyyyyyyyyuuuuuuiiiiiiippppp",
"00000qqqqqqwwwwwweweeeeeerrrrrrttttttttyyyyyyyuuuuuuuiiiiiippppp",
"00000qqqqqqqwwwwwwweeeeeeerrrrrrttttttttyyyyyyyuyuuuuuiiiiiiippp"
};
