/* XPM */
static char *_3fae89d16fe4bb4da225e40d2d8b9ff6AbLSGifyAfLkJnj[] = {
/* columns rows colors chars-per-pixel */
"64 64 80 1 ",
"  c #00421C",
". c #004C1E",
"X c #00511E",
"o c #004A20",
"O c #005221",
"+ c #005B23",
"@ c #005D29",
"# c #006424",
"$ c #006926",
"% c #006529",
"& c #006C2A",
"* c #007726",
"= c #007926",
"- c #00732D",
"; c #006C31",
": c #007733",
"> c #007D32",
", c #00AE13",
"< c #00B017",
"1 c #00B21C",
"2 c #00822D",
"3 c #008D2D",
"4 c #00912D",
"5 c #008434",
"6 c #008B35",
"7 c #00833A",
"8 c #008C3C",
"9 c #009034",
"0 c #00923B",
"q c #009C39",
"w c #00A22E",
"e c #00B424",
"r c #00B72A",
"t c #00B82E",
"y c #00A535",
"u c #00AE36",
"i c #00A53D",
"p c #00AC3B",
"a c #00B332",
"s c #00BA33",
"d c #00B63C",
"f c #00BD3C",
"g c #008C41",
"h c #009342",
"j c #00A444",
"k c #00AA44",
"l c #00A24B",
"z c #00AB4C",
"x c #00B244",
"c c #00BF41",
"v c #00B24B",
"b c #00BB4B",
"n c #00A950",
"m c #00BB53",
"M c #00BE5A",
"N c #00C045",
"B c #00C34C",
"V c #00C553",
"C c #00C759",
"Z c #00C859",
"A c #00C85C",
"S c #00C85D",
"D c #00CA60",
"F c #00CC63",
"G c #00CB65",
"H c #00CC64",
"J c #00CD68",
"K c #00CE6C",
"L c #00D06F",
"P c #00CF70",
"I c #00D071",
"U c #00D174",
"Y c #00D379",
"T c #00D47A",
"R c #00D37C",
"E c #00D47C",
"W c #00D680",
"Q c #00D684",
"! c #00D887",
"~ c #00D889",
/* pixels */
"BBVVVVVVVVZCAAAAADDDDGHHHJJJKKKKIIIIIUUUUYYTTEEEWWWQQQ!~~~~~~~~~",
"BBBVVVVVVVCCZCAAAADDDGHGHHJJJJKKKLIIIUUUUUYYYREEEWWWQQQQ~~~~~~~~",
"BBBBVVVVVVVVCCZZAAADDDGGHHHJJJKKKKPIIIIUUUYYYYEEEEWWWWQQQ~~~~~~~",
"BBBBBVVVVVVVCCZZAAADADDDGHHHJJJKKKKIIIIUUUUUYYTEEEEEWWWQQ!~~~~~~",
"BBBBBBVVVVVVVVVZAZAAAADDDGHHHJJJKKKKKPIIUUUUUYYEEEEEWWWWQQQ~~~~~",
"BBBBBBBVVVVVVVCCZZAAAADDDDGHHHJJJKKKKKPIIIUUUYYYYREEEWWWWW!!!~~~",
"BBBBBBBBVVVVVVVCCCZZAAADDDDDGHHJJJJKKKPPIIIUUYYYYTEEEWWWWWQ!Q!~~",
"NBBBBBBBBVVVVVVVVCCZAAAADDDGGGGJJJJJKKKPPIIUUUUUYYTEEEWWWWWQQQ~~",
"NNNBBBBBBBBVVVVVVCCCZAAAADDDGFHHHJJJJKKKPIIIIUUUUYYEREEEWWWWQQ!~",
"NNNBBBBBBBBBVVVVVVVCCZAAAADDDGDHHHJJJJKKKPIIIUUUUYYYTREEEWWWQQQQ",
"cNNNBBBBBBBBVVVVVVVVCCZAAAADDDDDGHJJJJKKKKIIIIIUUUUYYTEEEWWWWWQQ",
"NcNNNBBBBBBBBVVVVVVVCCZZZAADADDDGGHHJJJJKKKKIIIUUUUYYYREEEWWWWQQ",
"ccNNNNBBBBBBBBVVVVVVVVCCZZAAADDDDHHHHJJJJKKKKIIIIUUUUYYREEEEWWWW",
"cccNNNNBBBBBBBBVVVVVVVCCZZAAAADDDGHHHHJJJJKKKKIIIUUUUUYYRYEEEWWW",
"ccccNNNNBBBBBBBBVVVVVVVVCCZAAAADDDDGHHJHJJJKKKPPIIUUUUUYYYYEEWWW",
"ffcccNNNNBBBBBBBBVVVVVVVVCCZAAADDDDDGHHJJJJKKKKKPIIIUUUYYYYTEEWE",
"fffccNcNNNNBBBBBBBVVVVVVVVCZAZAADDDDDDGHHJJJKKKKLIIIIUUUUYYYYEEE",
"ffffcccNNNNNBBBBBBBVVVVVVVVCZZAAADADDDHGHJJJJKKKKKIIIUUUUUYYTYEE",
"fffffcccNNNNNBBBBBBBVVVVVVVVCZCAAAADDDDGGHJJJJJKKKKPIIUUUUYYYTEE",
"ffffffccNNNNNBBBBx6&O O%-8jmVCCZAAAADDDDGHHHJJJKKKKLIIIIUUYUYYYE",
"fffffffcccNNNNBc5           VVCCZZAAAADDGGHHHJJJJKKKKIIIIUUUYYYY",
"fffffffccccNNNN-            VVVCZZZAAAADDDGGGHJJJJJKKKIIIIUUUUYY",
"fffffffffccccNq   -ibBBbvj7%VVVVCZZAAAAADDDGGHHJJJKKKKKIIIUUUUUY",
"ssffffffffcccN&  6BBBBBBBVVVVVVVCCZCAAAADDDDGGHHJJJJKKKPIIIUUUUU",
"sssffffffffccc.  cBBBBBBBBBVVVVVVVCCZAAAADDDDGHHJJJJJKKKKIIIIUUU",
"sssfffffffffcc   cNNBBBBBBBVVVVVVVVCmg&Oo@7nDDGHHJJJJJKKKIPIIIUU",
"sssssffffffffc+  iNNNBBBBBBBVVVVVVV8        ;CDDGHHJJJKKKKPIIIUU",
"ssssssffffffff3  OqcNBBBBBBBBVVVVV7          @ADGGHJJJJJKKKPPIII",
"ssssssffffffffd+    $5qxBBBBBBVVVk   :vCCmh   7DGGGHJJJJKKKKKIII",
"sssssssffffffffd-       O5xBBBBBV-  7VVCCZAz   MDDDHHHJJJJKKKPII",
"ttssssssfffffffffp2+       qBBBBB  OVVVVCCZZ7  lDDGDHHHJJJJKKKPI",
"ttssssssssffffffffccdi9-    iBBBx  5VVVVVCCZz  gDDDDDHHJJJJJKKKP",
"rtttssssssfffffffffcccNNx&  +BBBk  0VVVVVVCZm  7ADDDDGGHJJJJJKKK",
"rrttssssssssffffffffcccNNc.  xBBk  0VVVVVVVCm  7AADDDDGHHJJJJJKK",
"rtttttssssssssfffffffcccNN&  iBBx  5VVVVVVVVz  gAAADDDDGGHHJJJJK",
"rrttttssssssssfffffffcccNN#  iBBb  OBBVVVVVV7  lAAAAADDDGGHHJJJJ",
"rrrrttttsssssssffffffffccq   xNBB-  5BBVVVVz   mCAAAAADDDGHHJHJJ",
"errrrtttssssss#=4yudffdy2   &NNNBk   -kBBv0   7CZZAAAAADDDDHHJJJ",
"eerrrrttttssssX            .pNNNNB5          @mVCZZAAAAADDDDHHJJ",
"eeerrrrtttssssX           #pcNNNNNB6        &bVVCCCZAAAADDDDGHHJ",
"eeerrrrtrttsssaw3*#+. X$2yfcccNNNNBBx6%X.@>jVVVVVVCCZAAAADDDGGHH",
"eeeerrrrrttttssssssfffffffffcccNNNNNBBBBBBBVVVVVVVVCCZZAAADDDDGG",
"eeeeeerrrrrttssssssssffffffffccNcNNNNBBBBBBBBVVVVVVVCZAAAADADDDD",
"eeeeeeerrrrtttssssssssffffffffcccNNNNNBBBBBBBBVVVVVVVCZAZAAADDDF",
"eeeeeeeerrrrrtttssssssfffffffffccccNNNBBBBBBBBVVVVVVVVCZZZAAADDD",
"11eeeeeeerrrrrtttsssssssffffffffcccNNNNNBBBBBBBVVVVVVVCCCZZAAAAD",
"111eeeeeeerrrrrttsssssssfffffffffcccNNNNNBBBBBBBVVVVVVVVCZZZAAAA",
"111eeeeeeeerrrrttttssssssfsfffffffccNNNNNNBBBBBBBBVVVVVVCCCZZAAA",
"1111eeeeeeeerrrrtttssssssssfffffffcccNNNNNBBBBBBBBVVVVVVVVCCZZAA",
"11111eeeeeeeerrrrtttssssssssffffffffccccNNNBBBBBBBBVVVVVVVVCCCAA",
"11111eeeeeeeerrrrrttttssssssssfffffffcccNNNNNBBBBBBBBVVVVVVVCCAA",
"1111111eeeeeeeerrrrtttssssssssffffffffcccNNNNBBBBBBBBVVVVVVVVCCZ",
"<11111111eeeeeeerrrrrttssssssssffffffffcccNNNNBBBBBBBBBVVVVVVVCC",
"<11111111eeeeeeeerrrrrttsssssssssfffffffcccNNNNBBBBBBBBVVVVVVVVC",
",,<11111111eeeeeeerrrrrttsssssssssfffffffccNNNNNBBBBBBBBVVVVVVVV",
",,<11111111eeeeeeeerrrrtttsssssssssfffffffcccNNNNBBBBBBBBVVVVVVV",
",,,<11111111eeeeeeeerrrrtttssssssssffffffffccccNNNBBBBBBBBBVVVVV",
",,,,<11111111eeeeeeeerrrrtttsssssssssfffffffcccNNNNNBBBBBBBBVVVV",
",,,,,,11111111eeeeeeeerrrrttttsssssssffffffffcccNNNNBBBBBBBBVVVV",
",,,,,,<11111111eeeeeeeerrrrtttssssssssffffffffcccNNNNNBBBBBBBBVV",
",,,,,,<<11111111eeeeeeeerrrttttsssssssfffffffffccccNNNNBBBBBBBVV",
",,,,,,,<<111111111eeeeeeerrrrtttssssssssffffffffccccNNNBBBBBBBBB",
",,,,,,,,,<11111111eeeeeeeerrrrtttssssssssffffffffcccNNNNNBBBBBBB",
",,,,,,,,,,<<1111111eeeeeeerrrrrtttssssssssffffffffccccNNNBBBBBBB"
};
