/* XPM */
static char *_f5f9eb6fa2145cbf9e9d54a24191f26RUN1g8UeoFV8XwZ7[] = {
/* columns rows colors chars-per-pixel */
"64 64 93 2 ",
"   c #321205",
".  c #3C1B05",
"X  c #3F2005",
"o  c #411F05",
"O  c #432205",
"+  c #482505",
"@  c #4D2B05",
"#  c #532D05",
"$  c #592E06",
"%  c #5B3405",
"&  c #5F3804",
"*  c #623605",
"=  c #653B05",
"-  c #6B3D06",
";  c #713F06",
":  c #674105",
">  c #6F4006",
",  c #744406",
"<  c #794406",
"1  c #734A05",
"2  c #7F4B06",
"3  c #834F06",
"4  c #825505",
"5  c #8C5505",
"6  c #8B5906",
"7  c #935407",
"8  c #935B06",
"9  c #9C5D07",
"0  c #A15D07",
"q  c #A15C08",
"w  c #946305",
"e  c #9C6206",
"r  c #A26306",
"t  c #A96507",
"y  c #A26B05",
"u  c #AC6B07",
"i  c #B06607",
"p  c #B56E07",
"a  c #BA6E07",
"s  c #B76C08",
"d  c #B96B08",
"f  c #A47005",
"g  c #B37406",
"h  c #BB7407",
"j  c #B47C05",
"k  c #BB7906",
"l  c #BD7308",
"z  c #C37C07",
"x  c #C37409",
"c  c #CA7B08",
"v  c #D67D0A",
"b  c #E6740E",
"n  c #E67C0D",
"m  c #E77110",
"M  c #BB8005",
"N  c #C48306",
"B  c #CE8407",
"V  c #CD8A06",
"C  c #D28407",
"Z  c #D38B07",
"A  c #DC8C07",
"S  c #D68209",
"D  c #DC8509",
"F  c #D48808",
"G  c #DF8C08",
"H  c #DC9406",
"J  c #DD9905",
"K  c #E5840B",
"L  c #E58C09",
"P  c #E49507",
"I  c #E49A06",
"U  c #E49C05",
"Y  c #E49F05",
"T  c #E39008",
"R  c #E49208",
"E  c #E59208",
"W  c #E49308",
"Q  c #E49408",
"!  c #E59408",
"~  c #E3A303",
"^  c #E4A303",
"/  c #E3A603",
"(  c #E4A403",
")  c #E3A204",
"_  c #E4A105",
"`  c #E3A404",
"'  c #E4A404",
"]  c #E3A803",
"[  c #E4A803",
"{  c #E3AD01",
"}  c #E4AC02",
"|  c #E3B001",
" . c #E2B400",
/* pixels */
"W ! ! ! ! ! ! ! I I I I I I I I U U U U U U U _ _ _ _ ^ ` ' ' ' ' ' / ] [ [ [ [ ] ] ] } { { } { { | | | | | | |  . . .|  . . . .",
"W W ! ! ! ! ! ! I I I I I I I U U U U U U U U _ _ _ _ ) _ ' ) ( ( / / ( [ ] ] ] ] ] ] } { { } { { { | | | | |  . . . .|  . . . .",
"W W W ! ! ! ! ! ! ! ! I I I I I I I U U U U U U _ ) ) _ ) ) _ ' ` / ( ( / ( ] ] ] [ ] ] ] } { } } { { { | | | | |  .|  . . . . .",
"W W W W ! ! ! ! ! ! ! I I I I I I I U U U U U U _ _ _ _ _ ) _ ~ ^ ' ' ' / / [ [ [ ] [ ] ] ] } { { } { { | | | | | | |  . .| | | ",
"W W W W W ! ! ! ! ! ! ! I I I I I I I I U U U U U U ) _ ) _ ) ^ _ ) ` ' / ( ( ( [ ] [ [ ] ] { } } { } { | | | | | | |  . . . .| ",
"W W W W W ! ! ! ! ! ! ! I I I I I I I I U U U U U U U ) _ _ _ _ _ ^ ' / / ' ` / [ [ [ ] ] ] { { } { { { { | { | | | | |  . . . .",
"L W W W W W W ! ! ! ! ! I ! I I I I I I I U U U U U U U _ ) ) _ _ _ _ _ / ' / / / [ ] [ ] ] ] } [ ] { { { { { { | | | | |  .|  .",
"L W W W W W W W ! ! ! ! ! ! ! ! I I I I I I U U U U U U ) ) ) _ _ _ _ _ ' / / ( / / ] ] ] ] ] ] ] { ] } { { { } { | | | | | | | ",
"L L W W W W W W W ! ! ! ! ! ! ! I I I I I I I I U U U U U _ _ _ _ _ ) _ _ ' ( ' ( ` / ] ] ] [ ] ] ] ] { } { { { { { | | | | | | ",
"L L L W W W W W W W W W ! ! ! ! ! I I I I I I I U U U U U U U U _ _ ) ) _ ) ) ` ( ( ' / ] [ ] ] ] [ ] ] { { { } { { | { | | | | ",
"L L L L W W W W W W W ! ! ! ! ! ! ! I I I I I I I U U U U U U U _ _ _ _ _ _ _ ^ ( ( ` / ] ] / [ ] [ ] [ { { { { { { { { | | | | ",
"L L L L L L W W W W W W W ! ! ! ! ! ! ! I I I I I I U U U U U U U _ _ _ ) _ _ _ _ ` ` / / / [ ] ] ] ] [ ] { { { { } { { | | | | ",
"L L L L L L W W W W W W W W ! ! ! ! ! ! ! I I I I I I I U U U U U U U ) _ _ _ _ _ ' ' ` ` ( ( ( [ ] ] [ [ ] { } { { } { { { | | ",
"L L L L L L W W W W W W W W ! ! ! W ! ! ! ! I I I I I I I U U U U U U _ _ _ _ _ _ ) ` / ' ( ' ( ] [ ] ] ] ] [ { { { { { { { { | ",
"L L L L L L L L L L W W W W W W ! ! ! ! ! ! ! I I I I I I U U U U U U U _ _ _ _ ) ) ^ _ ( ` ( ( ( [ ] ] ] ] [ ] { { { { { { { { ",
"L L L L L L L L L L W W W W W W W ! ! ! ! ! ! ! I I I I I U U U U U U U U _ _ ) _ _ ) _ / ' ' / / ( [ ] ] ] ] ] ] ] { } { { { { ",
"L L L L L L L L L L L L W W W W W ! ! ! ! ! ! ! ! I I I I I I I U U U U U U _ _ _ _ _ ' _ ^ ` ( ( / ( ( ] [ ] [ ] ] { { } { } { ",
"L L L L L L L L L L L L W W W W W W W ! ! ! ! ! ! ! I I I I I I U U U U U U U U _ _ ) _ _ _ _ / ( / ( / / [ ] ] [ ] ] ] ] { { { ",
"K L L L L L L L L L L L L W W W W W W W ! ! ! ! ! ! I I I I I I I I U U U U U U U _ _ _ _ _ ) ` / ' ( ' ( ] / [ [ ] ] ] [ ] { { ",
"K K L L L L L L L L L L L L W W W W W W W W ! ! ! ! I I I I I I I I I U U U U U U U _ _ _ _ ) _ ' / ' ` / ] ( / ] ] ] ] ] ] { { ",
"K L L L L L L L L L *     D L W W W W W W W @     e ! ! ! I I I I I g     y U U U U U ) _ ) _ _ ) _ / ( ( / / ( [ ] ] [ ] ] ] { ",
"K K K L L L L L L L 8     l L W W W W W W B       = ! ! ! I ! I I I 6     N U U U U U _ ) _ _ ) _ ) ' ( ' ` / ( ] ] [ [ ] [ ] } ",
"K K K K L L L L L L h     9 L L L W W W W g         A ! ! ! ! I I I @     H U U U U U U U _ _ _ _ _ _ ) ` ( ( ( / / [ ] ] ] ] [ ",
"K K K K L L L L L L S     - L L L L W W W 5   3 O   k ! ! ! ! ! I Z     1 I I U U U U U U _ U _ ) _ ) ~ ( ' ` ` / / / ] [ ] ] ] ",
"K K K K K L L L L L L *     D L L L L W W #   u 2   e ! ! ! ! ! I g     y I I I U U U U U U _ ) _ _ ) _ ^ _ ~ / ( / ( / / ] ] ] ",
"K K K K K K L L L L L 7     x L L L L L C     B u   - ! ! ! ! ! ! 6     N I I I U U U U U U U U _ _ _ ) _ ) ) ` ( / ( / ( [ ] ] ",
"K K K K K K L L L L L a     9 L L L L L p   + T z     A ! P ! ! ! #     H I I I I I J g 4 % . @ 1 f J _ _ _ _ _ ) ` ` ( ( / ( [ ",
"K K K K K K K K L L L S     - L L L L L 5   3 W G .   k W W ! ! Z     , ! I I I I M @               X j ) _ _ _ _ ' ` ` ( / / / ",
"K K K K K K K K K K L L %     D L L L L #   u W W <   e W ! ! ! g     y ! ! I I k                       M _ _ _ _ ~ ' ( / / / / ",
"K K K K K K K K K K K L 7     x L L L S     c L W r   - W W W W 8     z ! ! I Z .     w N H I J V w     @ J _ ) ) ) ` / / ( / ( ",
"K K K K K K K K K K K L a     0 L L L p   o L L L z     A W W W %   . H ! ! ! 8     N I I U I U U U M     j ) _ ) _ _ ` ` ` ' ( ",
"K K K K K K K K K K K K v     ; L L L 7   2 L L L G     z W W F     , ! ! ! P +   6 I I I I I U U U U %   6 U _ _ _ _ _ _ ( ( ( ",
"K K K K K K K K K K K K K %     D L L $   t L L L L >   e W W h     r ! ! ! B       . .                   1 U _ _ _ _ ) ) _ ' ( ",
"n K n K K K K K K K K K K 7     x L v     c L L L L 9   > W W 8     z W ! ! z                             : U U ) _ _ _ ) ) _ ) ",
"n n n n K K K K K K K K K d     0 L s   . L L L L L l     A W %     G W ! ! z                             : U U U _ _ _ _ _ _ ' ",
"n n n n K K K K K K K K K v     , L 7   < L L L L L D     z S     , W W W W B     r ! ! ! I I I I I I U U U U U U ) _ _ _ _ _ _ ",
"n n n n K K K K K K K K K K $     D $   r L L L L L L =   r h     r W W W W H .   = P ! I I I I I I I I U U U U U U _ ) _ _ _ _ ",
"n n n K n K K K K K K K K K 7     i     x L L L L L L 9   , 8     z W W W W W 5     e ! ! I ! I I I I H y V U U U U U _ ) _ _ _ ",
"n n n K n n n K K K K K K K d     $     D L L L L L L l     #     G W W W W W C .     , k Z P P H N e @   V U U U U U U U U ) _ ",
"n n n n n n n K K K K K K K v         ; K K L L L L L S         , L W W W W W W h                         V I I U U U U U U U _ ",
"n n n n n n n n n n K K K K K $       q K K L L L L L L %       r L L W W W W W W z %                 # g I I I I U U U U U U U ",
"n n n n n n n n K n K K K K K 7       x K K K K L L L L 7       z L L L L L W W W W W h 6 = + O & 6 k P I I I I I U U U U U U U ",
"n n n n n n n n n n K K K K K K K K K K K K K K K K L L L L L L L L L L L L W W W W W W ! ! ! ! ! ! ! I I I I I I I U U U U U U ",
"n n n n n n n n n n n K n K K K K K K K K K K K K K L L L L L L L L L L L L L W W W W W W ! ! ! ! ! ! ! ! I I I I I U U U U U U ",
"n n n n n n n n n n n n n n K K K K K K K K K K K K L L L L L L L L L L L L L W W W W W W W W ! ! ! ! ! ! ! I I I I I I U U U U ",
"n n n n n n n n n n n n n n n K K K K K K K K K K K K L L L L L L L L L L L L W W W W W W W W W ! ! ! ! ! ! ! ! I I I I I I U U ",
"b b n n n n n n n n n n n n n K K K K K K K K K K K K K L L L L L L L L L L L L L W W W W W W W ! ! ! ! ! ! ! ! I I I I I I I U ",
"b b b b n n n n n n n n n n n n K K K K K K K K K K K K L K L L L L L L L L L L L L L W W W W W W ! ! ! ! ! ! ! I I I I I I I U ",
"b b b n n n n n n n n n n n n n K K K K K K K K K K K K K K L L L L L L L L L L L L L W W W W W W W W ! ! ! ! ! I I I I I I I I ",
"b b b n n n n n n n n n n n n n n n K K K K K K K K K K K K L L L L L L L L L L L L L L L W W W W W W W ! ! ! ! ! ! I I I I I I ",
"b b b n b n n n n n n n n n n n n n n K n K K K K K K K K K K L L L L L L L L L L L L L L W W W W W W W ! ! ! ! ! ! ! I I I I I ",
"b b b b b b b n n n n n n n n n n n n K K n K K K K K K K K K K K L L L L L L L L L L L L W W W W W W W W W ! ! ! ! ! ! ! I I I ",
"b b b b b b b b n n n n n n n n n n n n K K K K K K K K K K K K L K K L L L L L L L L L L L L L L W W W W W W ! ! ! ! ! ! ! I I ",
"b b b b b b b b b b n n n n n n n n n n n K n K K K K K K K K K K K K L L L L L L L L L L L L L L L W W W W W W ! ! ! ! ! ! ! I ",
"b b b b b b b b b b n n n n n n n n n n n n n n K K K K K K K K K K K K K K L L L L L L L L L L L L W W W W W W ! ! ! ! ! ! ! ! ",
"b b b b b b b b b b n n n n n n n n n n n n n n K K K K K K K K K K K K K K K L L L L L L L L L L L L L W W W W W W ! ! ! ! ! ! ",
"m b b b b b b b b b b b n n n n n n n n n n n n n K K K K K K K K K K K K K L L L L L L L L L L L L L L W W W W W W W W ! ! ! ! ",
"b b b b b b b b b b b b n n n n n n n n n n n n n n K K K K K K K K K K K K L L L L L L L L L L L L L L W W W W W W W W ! ! ! ! ",
"m m b b b b b b b b b b b n n n n n n n n n n n n n n K K K K K K K K K K K K K K K L L L L L L L L L L L W L W W W W W W ! ! ! ",
"b b m b b b b b b b b b b b n n n n n n n n n n n n n n K K K K K K K K K K K K K K K L L L L L L L L L L L L W W W W W W W ! ! ",
"m m m b b m b b b b b b b b b n n n n n n n n n n n n n n n K K K K K K K K K K K K L L L L L L L L L L L L L L W W W W W W W W ",
"m m m m m b m b b b b b b b b b n n n n n n n n n n n K n n K K K K K K K K K K K K L L L L L L L L L L L L L L L L W W W W W W ",
"m m m m b b b b b b b b b b b b n n b b n n n n n n n n n n K K K K K K K K K K K K K L K L L L L L L L L L L L L L W W W W W W ",
"m m m b m b m b b b b b b b b b b b b n n n n n n n n n n n n K n K K K K K K K K K K K K L L L L L L L L L L L L L L W W W W W "
};
