/* XPM */
static char *_6c29053e6fc436383f1af413fed2f53aFBrvKIbf17ObKgc[] = {
/* columns rows colors chars-per-pixel */
"64 64 99 2 ",
"   c #0A0606",
".  c #140707",
"X  c #1C0606",
"o  c #120F11",
"O  c #151213",
"+  c #191719",
"@  c #1A181A",
"#  c #2B0808",
"$  c #330808",
"%  c #3C0909",
"&  c #3C1112",
"*  c #361B1C",
"=  c #1E1D20",
"-  c #242326",
";  c #272529",
":  c #2A292D",
">  c #2E2E31",
",  c #302F33",
"<  c #3A3032",
"1  c #37363A",
"2  c #3A363A",
"3  c #3C383D",
"4  c #420A0A",
"5  c #4C0A0A",
"6  c #540B0B",
"7  c #490F10",
"8  c #540F10",
"9  c #4E1213",
"0  c #481D1F",
"q  c #511112",
"w  c #551718",
"e  c #561C1E",
"r  c #431F20",
"t  c #491E21",
"y  c #521E20",
"u  c #4C2527",
"i  c #552123",
"p  c #582526",
"a  c #57272A",
"s  c #502C2E",
"d  c #58292B",
"f  c #502D30",
"g  c #582D30",
"h  c #46383D",
"j  c #483B3F",
"k  c #5C3235",
"l  c #573A3F",
"z  c #5C3A3D",
"x  c #493D40",
"c  c #5A3D41",
"v  c #434149",
"b  c #47484E",
"n  c #4A494D",
"m  c #5D454A",
"M  c #514A4E",
"N  c #5E4A4E",
"B  c #4D4D53",
"V  c #514D54",
"C  c #5E4D54",
"Z  c #4F5055",
"A  c #535256",
"S  c #55545A",
"D  c #5B5A5F",
"F  c #634A4C",
"G  c #614D53",
"H  c #635156",
"J  c #635359",
"K  c #5D5D63",
"L  c #665D63",
"P  c #695E63",
"I  c #656164",
"U  c #696167",
"Y  c #62626D",
"T  c #69666C",
"R  c #6B696E",
"E  c #716C6E",
"W  c #666670",
"Q  c #686771",
"!  c #676871",
"~  c #6C6C73",
"^  c #706F76",
"/  c #6F7076",
"(  c #717177",
")  c #747479",
"_  c #77777B",
"`  c #78777A",
"'  c #77787A",
"]  c #78787A",
"[  c #79797C",
"{  c #7C7B7D",
"}  c #7B7C7E",
"|  c #7D7C7D",
" . c #807F7F",
".. c #7F807F",
"X. c #80807F",
"o. c #7F7F80",
"O. c #807F80",
"+. c #7F8080",
"@. c #808080",
/* pixels */
"^ ( ( ( ( ) ) ) ) ) ) ) ) ) ) ) ) ) ) ) ' ] ] ] ] ] [ [ [ ] [ } { { { } | | | | | | | | o.+.+.+.@...@.@.| +.@.@.| @.X.| O.X.o.+.",
"/ ( ( ( ( ( ( ( ( ( ) ) ) ) ) ) ) ) ) ) ) ' ] ] ' ] ] ] [ ] [ [ [ { { { | | | | | | | | o.+.+.+.....o.| @.+.| @.X. ...@.o.@.+.X.",
"~ / ( ( ( ( ( ) ( ( ) ) ) ) ) ) ) ) ) ) ) ` ) ) ) ] ) ] ] [ [ ] [ [ [ [ [ [ | | | | | | o.| | | | | +.| o.| o.@.O.X.+.+.O.+...@.",
"~ ~ / ( ( ( ( ( ( ) ( ( ) ) ) ) ) ) ) ) ) ) ) ) ) ) ` ] ] ] [ [ [ [ [ [ [ [ [ | | | | | | | | | | | ......X.@.+.+.| +.o.+... .| ",
"^ ~ ~ ( ( ( ( ( ( ( ( ( ( ) ) ) ) ) ) ) ) ) ) ) ' ' ) ] ` ] ] ] ] ] [ [ [ [ [ } | | | | | | | | ..| | | | X.@...| | ........@.O.",
"~ ~ ~ ~ / ^ ( ( ( ( ( ( ) ( ( ) ) ) ) ) ) ) ) ) ) ) ) ) ) ] ] ] [ ] [ [ [ [ [ [ | | | | | | | | | | | o...| O.@.@.@. .X.@.+... .",
"~ ~ ~ ~ ~ ~ ( ( ( ( ( ( ( ( ( ) ) ) ) ) ) ) ) ) ) ) ) ) ) ' ] ] ] ] ] [ [ [ [ [ [ | [ | | | | | | | | | o.X.@.O. .O.o.X.+.O. .O.",
"~ ~ ~ ~ ~ ~ ^ / / ( ( ( ( ( ( ) ) ) ) ) ) ) ) ) ) ) ) ) ) ) ) ] ] ] ] ] ] [ [ [ [ [ [ | | | | | | | | | | | X. .| O.X.+.+.o.@...",
"~ ~ ~ ~ / ^ ( ( ( ( ( ( ( ( ( ( ) ) ( ) ) ) ) ) ) ) ) ) ) ` ` ` ` ` [ ] ] [ [ [ [ [ [ [ | { | | | | | o.| o.o.+.+.| o.@.| | |  .",
"~ ~ ~ ~ ~ ~ ( ( ( ( ^ ( ( ( ( ( ( ( ( ) ) ) ) ) ) ) ) ) ) ` ' ] ' ' ' ] ] [ ] [ [ [ [ [ } } | | | | | | o.| o.+.+...o.o.o.+.@.| ",
"~ ~ ~ ~ ~ ~ ~ ~ ~ / ~ ^ ( ( ( ( ( ( ) ) ) ) ) ) ) ) ) ) ) ) ' ) ' ' ] ] ] [ [ ] [ [ [ [ [ { | } | | | | | | | | | o.X.O.X.X.+.X.",
"~ ~ ~ ~ ~ ~ ~ ~ ~ ~ ~ ^ ^ ( ( ( ( ( ) ( ( ( ) ) ) ) ) ) ) ) ) ` ) ) ] ] ` ] ] ] ] [ [ [ [ [ [ { [ | | | | | | | | | | | +.@.+.| ",
"~ ~ ~ ~ ~ ~ ~ ~ ~ ~ ( ( ( ( ( ( ( ( ( ( ( ( ) ) ) ) ) ) ) ) ) ) ) ` ] ] ` ` ] ] ] [ [ [ [ [ [ [ { | | | | | | | | | +.+.@.+.O. .",
"~ ~ ~ ~ ~ ~ ~ ~ ~ ~ ^ ^ ( ( ( ( ( ( ( ( ( ) ) ) ( ) ) ) ) ) ) ) ) ) ` ' ) ' ] ] ] ] ] [ [ [ [ [ | [ | | | | | | | | | +.+.+.|  .",
"~ ~ ~ ~ ~ ~ ~ ~ ~ ~ ~ ~ ( ( ^ ( ( ( ( ( ( ( ) ( ( ) ) ) ) ) ) ) ) ) ) ) ) ) ) ' ` [ ] ] [ [ [ [ [ [ { | | | | | | | | +.| | | O.",
"~ ~ ~ ~ ~ ~ ~ ~ ~ ~ ~ ~ / ~ ~ ~ ^ ( ( ( ( ( ( ( ( ) ) ) ) ) ) ) ) ) ) ) ' ` ) ) ] ] ] [ [ [ [ [ [ [ [ [ } | | | | | | o.| | |  .",
"~ ~ ~ ~ ~ ~ ~ ~ ~ ~ ~ ~ ~ ~ ~ ~ ( ^ ( ( ( ( ( ( ( ) ( ) ) ) ) ) ) ) ) ) ) ) ` ] ] ] ] ] ] ] ] [ [ } [ [ [ } | | | | | o.| | | | ",
"~ ~ ~ ~ ~ ~ ~ ~ ~ ~ ~ ~ ~ ~ ~ ~ ~ ~ ( ( ( ( ( ( ( ( ) ) ) ) ) ) ) ) ) ) ) ) ) ) ] ] ] ] [ [ ] [ [ [ } [ [ [ } { | | | | o.| | | ",
"~ ~ ~ ~ ~ ~ ~ ~ ~ ~ ~ ~ ~ ~ ~ ~ ~ ~ ~ ( ( ( ( ( ( ( ) ( ( ) ) ) ) ) ) ) ) ) ) ) ) ) ] ] ] ] ] ] [ [ [ [ [ [ [ [ | | | | | | | | ",
"Q ~ ~ ~ ~ ~ ~ ~ ~ ~ ~ ~ ~ ~ ~ ~ ~ ~ ~ ~ ( ( ( ( ( ( ( ( ) ) ) ) ) ) ) ) ) ) ) ) ) ) ) ' ) ] ] ] ] ] [ [ [ [ [ } } } | | | | | | ",
"~ ~ ~ ~ ~ ~ ~ ~ ~ ~ ~ ~ ~ ~ ~ ~ ~ ~ / / ( ( ( ( ( ( ( ( ( ) ) ) ) ) ) ) ) ) ) ) ) ) ' ' ] ] ' ] ] ] [ [ [ [ [ } { { | | | | | | ",
"! Q ~ ~ ~ ~ ~ ~ ~ ~ ~ ~ ~ ~ ~ ~ ~ ~ i d / / ^ ( ( ( ( ( ( ( ( ) ) ) ) ) ) ) ) ) ) ) ) ` ) ] ` ] ] ] ] [ [ [ [ [ [ [ [ | | | | | ",
"Q Q Q Q ~ ~ ~ ~ ~ ~ ~ ~ ~ ~ ~ ~ ~ ~ 6 q ~ / ~ ^ / ( ( ( ( ( ( ) ) ) ) ) ) ) ) ) ) ) ) ) ` ` ] ' ] ' ] ] [ ] [ [ [ [ [ | } | | | ",
"Q Q Q Q ~ ~ ~ ~ ~ ~ ~ ~ ~ ~ ~ ~ ~ ~ 6 q ~ ~ ~ ^ ~ ( ( ( ( ( ( ( ) ) ) ) ) ) ) ) ) ) ) ) ) ) ) ) ) ] ] [ ] [ [ ] [ [ [ [ [ { } | ",
"Q Q ! ! ! ! ~ ~ ~ ~ ~ ~ ~ ~ ~ ~ ~ ~ 6 q ~ ~ ~ ~ ~ ~ ( ( ( ( ( ( ( ( ) ( ( ) ) ) ) ) ) ) ) ) ) ) ) ) ] ] ] [ ] ] [ [ [ [ [ [ | | ",
"Q Q Q ! ! ~ ~ ~ ~ ~ ~ ~ H g w a G ~ 6 q ~ ~ ~ ~ ~ L z e w k J ( ( ( ( ( ( P z e w k J ) ) ) ) E 6 F ( F p 6 E [ ] [ [ [ [ [ | | ",
"Q Q Q ~ ! ~ ~ ~ ~ ~ ~ m 6 6 6 6 6 c 6 q ~ ~ ~ ~ G 6 6 6 6 6 6 z ( ( ( ( G 6 6 6 6 6 6 z ) ) ) I 6 a p 6 6 6 L ] [ [ [ [ [ [ { | ",
"Q Q Q Q Q Q ! ! ~ ! L 6 6 $ X X $ 8 6 q ~ ~ ~ U 6 6 % X X $ 6 6 H ( ( T 6 6 % X X $ 6 6 J ) ) I 6 6 9 # .   R ] ] [ ] [ [ [ [ [ ",
"Q Q Q Q Q Q Q Q ~ ~ l 6 & S T T S & 6 q ~ ~ ~ c 6 % A R ~ K * 6 y ( ( c 6 % S ~ ~ K * 6 i ) ) I 6 6 < R ) ) ] ` ] ] [ [ [ [ [ [ ",
"T Q Q Q Q Q Q Q ! Q y 6 V ~ ~ ~ ~ V 6 q ~ ~ ~ y 6 M ~ ~ ~ ~ K 6 6 ~ ( i 6 M ( ) ( ) I 6 6 ( ) I 6 7 ( ) ) ) ` ) ] ] [ ] ] [ [ [ ",
"T Q Q Q Q Q Q Q Q Q 9 6 Y ~ ~ ~ ~ Q 6 q ~ ~ ~ q 6 T ~ ~ ~ ~ ~ 9 6 T ( q 6 R ( ) ( ( ) 9 6 R ) I 6 u ) ) ) ) ) ) ) ] ] ] ] [ [ [ ",
"T Q Q Q Q Q Q Q Q Q 9 6 T ~ ~ ~ ~ Q 6 q ~ ~ ~ 9 6 T ~ ~ ~ ~ ~ q 6 T ( 9 6 R ( ( ) ( ( q 6 R ) I 6 s ) ) ) ) ) ) ) ) ' ] ] ] ] [ ",
"Y T Q Q T Q Q Q Q Q 0 6 C ~ ~ ~ ~ C 6 q ~ ~ ~ t 6 N ~ ~ ~ ~ L 6 5 ~ ( t 6 N ( ( ( ( U 6 5 ( ) I 6 f ) ) ) ) ) ) ) ) ] ` ] ] ] ] ",
"Y Y Y T Q Q T Q Q Q h 6 q C T T H w 6 q ~ ~ ~ j 6 6 H T ~ L e 6 r ~ ~ x 6 8 J ~ ^ P e 6 r ) ) L 6 s ) ) ) ) ) ) ` ) ] ] ] ] ] ] ",
"Y Y Y T Y T Q Q Q Q K 4 6 6 6 6 6 7 6 9 ~ ~ ~ K % 6 6 6 6 6 6 5 A ~ ~ I 4 6 6 6 6 6 6 5 A ( ( L 6 s ) ) ) ) ) ) ) ] ` ] ] ] ] ] ",
"Y Y Y Y Y T T Q T Q Q v % 5 6 6 % 3 6 q ~ ~ ~ ~ n $ 5 6 6 5 % 2 ~ ~ ~ ~ B $ 5 6 6 5 % 1 ( ( ( L 6 s ) ) ) ) ) ) ) ) ] ` ) ] ' ] ",
"Y Y Y Y T T Q Q Q Q Q Q B : o - b T = ; ~ ~ ~ ~ ~ D 1 + O > Z ~ ~ ~ ~ ~ / D 1 @ O , A ~ ( ( ( T   n ) ) ) ) ) ) ) ) ) ` ` ) ] ' ",
"Y Y Y T T T Q W T T Q Q Q Q Q Q Q Q ! ~ ~ ~ ~ ~ ~ ~ ~ ~ ~ ~ ~ ~ ~ ~ ~ ~ ~ ( / ( / ( ( ( ( ( ( ( ) ) ) ) ) ) ) ) ) ) ) ) ) ) ' ] ",
"Y Y Y Y T T W Y T Y Q Q T Q Q Q Q Q Q Q Q ~ ~ ~ ~ ~ ~ ~ ~ ~ ~ ~ ~ ~ ~ ~ ~ ~ ~ ( ~ ^ ( ( ( ( ( ( ( ( ( ) ) ) ) ) ) ) ) ) ) ' ` ' ",
"Y Y Y Y Y Y Q Y Y T Y T Q Q Q Q Q Q Q Q Q Q ~ ~ ~ ~ ~ ~ ~ ~ ~ ~ ~ ~ ~ ~ ~ ~ ~ / ~ ~ / ( ( ( ( ( ( ( ( ) ) ( ) ) ) ) ) ) ) ) ) ) ",
"Y Y Y Y Y Y Y Y Y T Q T T Q Q Q Q Q Q ! ! ! ~ ~ ~ ~ ~ ~ ~ ~ ~ ~ ~ ~ ~ ~ ~ ~ ~ ~ ~ ~ ( ( ( ( ( ( ( ( ( ) ) ) ) ) ) ) ) ) ) ) ) ) ",
"Y Y Y Y Y Y Y Y Y Y Q W T T T Q Q Q Q Q Q Q ~ ~ Q ~ ~ ~ ~ ~ ~ ~ ~ ~ ~ ~ ~ ~ ~ ~ ~ ~ ^ ( ( ( ( ( ( ( ( ) ( ) ) ) ) ) ) ) ) ) ) ) ",
"Y Y Y Y Y Y Y Y Y Y W W W Y T T Q Q Q Q Q ! ! ! Q ! ~ ~ ~ ~ ~ ~ ~ ~ ~ ~ ~ ~ ~ ~ ~ ~ ~ ^ ~ / ( ( ( ( ( ( ( ( ) ) ) ) ) ) ) ) ) ) ",
"Y Y Y Y Y Y Y Y Y Y Y W Y Y Y T Q Q Q Q Q Q Q ! Q ! Q Q ~ ~ ~ ~ ~ ~ ~ ~ ~ ~ ~ ~ ~ ~ ~ / ~ ~ ~ ^ ( ( ) ( ( ( ( ) ( ) ) ) ) ) ) ) ",
"Y Y Y Y Y Y Y Y Y Y Y Y Y Y T Q T T Q Q Q Q Q Q Q Q ! ~ ~ ~ ~ ~ ~ ~ ~ ~ ~ ~ ~ ~ ~ ~ ~ ~ ~ ~ ~ ~ ^ / ( ( ( ( ( ( ( ) ) ) ) ) ) ) ",
"Y Y Y Y Y Y Y Y Y Y Y Y Y Y Y W Q T Q Q Q Q Q Q Q Q Q Q ~ ~ ~ ~ ~ ~ ~ ~ ~ ~ ~ ~ ~ ~ ~ ~ ~ ~ ~ ~ ~ ^ ( ( ( ( ( ( ( ( ) ) ) ) ) ) ",
"K Y Y L Y Y Y Y Y Y Y Y Y Y W W Y Y Q Q Q Q Q Q Q Q Q Q ! ~ ~ ~ ~ ~ ~ ~ ~ ~ ~ ~ ~ ~ ~ ~ ~ ~ ~ ~ ~ ~ ( ^ ( ( ( ( ( ( ) ( ) ) ) ) ",
"K K K K Y Y Y Y Y Y Y Y Y Y Y W Y Y T Q Q T Q Q Q Q Q Q Q ! ! ~ ~ ~ ~ ~ ~ ~ ~ ~ ~ ~ ~ ~ ~ ~ ~ ~ ~ ~ ~ / ( ( ( ( ( ( ( ( ( ) ) ) ",
"Y Y Y Y K K K Y Y Y Y Y Y Y Y Y Y T Q T Q T T Q Q Q Q Q Q ! ! ~ ~ ~ ~ ~ ~ ~ ~ ~ ~ ~ ~ ~ ~ ~ ~ ~ ~ ~ ( ( ( ( ( ( ( ( ( ( ( ( ) ) ",
"Y Y Y Y K K Y Y Y Y Y Y Y Y Y Y Y Y T T Q T Q Q T Q Q Q Q Q ! ! ~ ~ ~ ~ ~ ~ ~ ~ ~ ~ ~ ~ ~ ~ ~ ~ ~ ~ ^ ( ( ( ~ ( ( ( ( ( ( ( ) ) ",
"Y Y Y Y Y Y Y Y Y Y Y Y Y Y Y Y Y Y Y T Y Y Q Q T Q Q Q Q Q Q ! ~ ! ~ ~ ~ ~ ~ ~ ~ ~ ~ ~ ~ ~ ~ ~ ~ ~ ~ ~ ~ ~ / ( ( ( ( ( ( ( ( ) ",
"Y Y Y Y Y Y Y Y Y Y Y Y Y Y Y Y Y Y Y Y Y W W Q Q T Q Q Q Q Q Q Q Q Q Q ~ ~ ~ ~ ~ ~ ~ ~ ~ ~ ~ ~ ~ ~ ~ ~ ~ ~ ~ ( ( ( ( ) ( ( ( ) ",
"Y Y Y Y Y Y Y K K Y Y Y Y Y Y Y Y Y Y Y Y Y Y Y T Q Q Q Q Q Q Q Q ! Q Q ~ ~ ~ ~ ~ ~ ~ ~ ~ ~ ~ ~ ~ ~ ~ ~ ~ ~ ~ ~ ~ ( ( ( ( ( ( ( ",
"K Y Y Y Y Y K K K K Y Y Y Y Y Y Y Y Y Y Y W Y Y Y Y Q Q T Q Q Q Q Q ! Q Q ! ~ ~ ~ ~ ~ ~ ~ ~ ~ ~ ~ ~ ~ ~ ~ ~ ~ ~ ~ ~ / ( ( ( ( ( ",
"K K Y Y Y Y K L K K Y Y Y Y K Y Y Y Y Y Y Y Y Y Y Y Q T Q Q Q Q Q Q Q Q Q Q Q ~ ~ ~ ~ ~ ~ ~ ~ ~ ~ ~ ~ ~ ~ ~ ~ ~ ~ ~ ~ ~ ( ( ( ( ",
"K K Y Y Y Y Y K Y Y Y Y Y Y K Y Y Y Y Y Y Y Y Y Y Y T Y Y Q Q Q Q Q Q Q Q Q Q Q ~ ~ ~ ~ ~ ~ ~ ~ ~ ~ ~ ~ ~ ~ ~ ~ ~ ~ ~ ~ ( ( ( ( ",
"K Y Y Y Y Y Y K K Y Y Y Y Y Y L Y Y Y Y Y Y Y Y Y Y T T Q Q Q Q Q Q Q Q Q Q ! ! ! ~ ~ ~ ~ ~ ~ ~ ~ ~ ~ ~ ~ ~ ~ ~ ~ ~ ~ ~ / ( ~ ( ",
"Y Y Y Y Y Y K K K K Y Y Y Y Y K Y Y Y Y Y Y Y Y Y Y Y T Q Q W Q Q Q Q Q Q Q Q Q ! ~ ~ ~ ~ ~ ~ ~ ~ ~ ~ ~ ~ ~ ~ ~ ~ ~ ~ ~ / ( ~ ^ ",
"Y Y Y Y Y Y Y Y Y Y Y Y Y Y Y Y Y Y Y Y Y Y Y Y Y Y Y Y Y T T T T Q T Q Q Q ! ! Q ! ~ ~ ~ ~ ~ ~ ~ ~ ~ ~ ~ ~ ~ ~ ~ ~ ~ ~ ^ ( ( ( ",
"Y Y Y Y Y Y Y Y Y Y Y Y Y Y Y Y Y Y Y Y Y Y Y Y Y Y Y Y Y T T T T Q Q Q Q Q Q Q Q Q ~ ~ ~ ~ ~ ~ ~ ~ ~ ~ ~ ~ ~ ~ ~ ~ ~ ~ ~ / / ( ",
"Y K Y Y Y Y Y Y Y Y Y Y Y Y Y Y Y Y Y Y Y Y Y Y Y Y Y Y Y Y Y T T Y Q Q Q Q Q Q Q Q ! ! ! ~ ~ ~ ~ ~ ~ ~ ~ ~ ~ ~ ~ ~ ~ ~ ~ ~ ~ ( ",
"Y K Y Y Y Y Y K K Y Y Y Y Y K K Y Y Y K Y Y Y Y Y Y Y Y Y Y Y Y Y T W Q Q Q Q Q T T ! ! ! ! ~ ~ ~ ~ ~ ~ ~ ~ ~ ~ ~ ~ ~ ~ ~ ~ ~ ~ ",
"K Y Y Y Y K K K K K Y Y Y Y K K Y K K K Y Y Y Y Y Y Y Y Y Y Y Y Y Y Y T Q T T Q Q Q Q Q Q ! ~ ~ ~ ~ ~ ~ ~ ~ ~ ~ ~ ~ ~ ~ ~ ~ ~ ~ ",
"K K Y Y Y Y K K K K Y Y Y Y K K Y K K K Y W Y Y Y Y Y Y Y Y Y Y Y Y Y T Q Q T Q Q Q Q Q Q Q ! ~ ~ ~ ~ ~ ~ ~ ~ ~ ~ ~ ~ ~ ~ ~ ~ ~ "
};
